<svg id="svg" version="1.1" width="400" height="400" xmlns="http://www.w3.org/2000/svg" xmlns:xlink="http://www.w3.org/1999/xlink" style="display: block;"><g id="svgg"><path id="path0" d="M185.600 78.800 C 184.923 79.616,183.109 80.000,179.930 80.000 C 176.075 80.000,175.106 80.280,174.400 81.600 C 173.746 82.823,172.725 83.200,170.070 83.200 C 167.958 83.200,166.205 83.670,165.600 84.400 C 165.052 85.060,163.925 85.600,163.094 85.600 C 162.264 85.600,160.968 86.320,160.214 87.200 C 159.461 88.080,158.080 88.800,157.146 88.800 C 156.212 88.800,154.796 89.520,154.000 90.400 C 153.204 91.280,151.864 92.000,151.022 92.000 C 150.181 92.000,148.304 93.260,146.852 94.800 C 145.399 96.340,143.566 97.600,142.778 97.600 C 141.990 97.600,139.269 99.580,136.732 102.000 C 134.195 104.420,131.618 106.400,131.007 106.400 C 129.326 106.400,120.004 115.630,119.975 117.322 C 119.961 118.135,118.703 120.040,117.181 121.555 L 114.413 124.310 116.006 126.007 C 116.883 126.940,117.600 128.401,117.600 129.254 C 117.600 130.108,119.400 132.423,121.600 134.400 C 123.915 136.481,125.600 138.681,125.600 139.624 C 125.600 140.540,127.528 143.159,130.000 145.600 C 132.420 147.990,134.400 150.642,134.400 151.494 C 134.400 152.345,136.380 154.991,138.800 157.373 C 141.220 159.754,143.200 162.312,143.200 163.056 C 143.200 163.800,145.685 166.945,148.723 170.043 C 151.833 173.215,154.367 176.534,154.523 177.638 C 155.124 181.893,163.200 178.625,163.200 174.128 C 163.200 172.042,178.531 156.800,180.629 156.800 C 181.495 156.800,182.652 156.260,183.200 155.600 C 183.748 154.940,184.972 154.400,185.920 154.400 C 186.869 154.400,188.261 153.680,189.014 152.800 C 189.950 151.707,191.374 151.200,193.507 151.200 C 195.544 151.200,196.789 150.783,197.089 150.000 C 197.463 149.025,199.360 148.800,207.200 148.800 C 215.040 148.800,216.937 149.025,217.311 150.000 C 217.623 150.813,218.897 151.200,221.257 151.200 C 223.925 151.200,224.945 151.576,225.600 152.800 C 226.071 153.680,227.273 154.400,228.271 154.400 C 229.290 154.400,231.259 155.610,232.759 157.158 C 234.230 158.675,236.370 160.025,237.516 160.158 C 238.968 160.327,239.677 160.941,239.854 162.184 C 239.993 163.165,242.055 166.045,244.436 168.584 C 247.998 172.382,248.768 173.709,248.782 176.076 C 248.794 177.919,249.375 179.472,250.400 180.400 C 251.870 181.731,252.000 182.864,252.000 194.400 C 252.000 205.936,251.870 207.069,250.400 208.400 C 249.520 209.196,248.800 210.648,248.800 211.626 C 248.800 212.604,248.274 213.841,247.631 214.374 C 246.988 214.908,246.231 216.122,245.949 217.072 C 245.250 219.429,232.758 232.000,231.116 232.000 C 230.390 232.000,229.348 232.540,228.800 233.200 C 228.252 233.860,227.004 234.400,226.026 234.400 C 225.048 234.400,223.596 235.120,222.800 236.000 C 221.846 237.054,220.336 237.600,218.374 237.600 C 216.707 237.600,214.959 238.127,214.403 238.796 C 213.536 239.841,203.207 240.018,132.905 240.196 L 52.400 240.400 52.193 280.200 L 51.985 320.000 137.164 320.000 C 221.525 320.000,222.352 319.985,223.200 318.400 C 223.945 317.009,224.875 316.800,230.330 316.800 C 234.931 316.800,236.870 316.480,237.600 315.600 C 238.241 314.828,240.014 314.400,242.572 314.400 C 245.336 314.400,247.167 313.913,248.582 312.800 C 249.700 311.920,251.243 311.200,252.010 311.200 C 252.777 311.200,253.852 310.660,254.400 310.000 C 254.959 309.327,256.703 308.800,258.374 308.800 C 260.336 308.800,261.846 308.254,262.800 307.200 C 263.596 306.320,265.103 305.600,266.149 305.600 C 267.195 305.600,268.257 305.060,268.511 304.400 C 268.764 303.740,269.923 303.198,271.086 303.196 C 272.563 303.193,274.017 302.229,275.913 299.996 C 277.519 298.104,279.326 296.800,280.342 296.800 C 282.681 296.800,307.661 271.674,308.442 268.535 C 308.752 267.290,309.500 266.081,310.103 265.850 C 310.706 265.618,311.200 264.564,311.200 263.507 C 311.200 262.449,311.920 260.968,312.800 260.214 C 313.680 259.461,314.400 258.013,314.400 256.997 C 314.400 255.981,314.940 254.943,315.600 254.689 C 316.279 254.429,316.800 253.237,316.800 251.943 C 316.800 250.475,317.373 249.350,318.400 248.800 C 319.291 248.323,320.000 247.125,320.000 246.096 C 320.000 245.080,320.720 243.596,321.600 242.800 C 322.719 241.788,323.200 240.336,323.200 237.974 C 323.200 235.947,323.680 234.198,324.400 233.600 C 325.253 232.892,325.600 231.020,325.600 227.133 C 325.600 222.650,325.896 221.387,327.238 220.136 C 329.565 217.968,329.352 177.216,327.000 174.620 C 325.990 173.505,325.600 171.721,325.600 168.223 C 325.600 164.846,325.266 163.243,324.501 162.949 C 323.792 162.677,323.274 160.769,323.043 157.575 C 322.787 154.038,322.302 152.409,321.343 151.872 C 320.565 151.437,320.000 150.140,320.000 148.788 C 320.000 147.275,319.438 146.156,318.400 145.600 C 317.241 144.980,316.800 143.925,316.799 141.772 C 316.799 139.509,316.131 138.050,313.999 135.655 C 312.460 133.925,311.200 131.713,311.200 130.740 C 311.200 129.767,310.660 128.764,310.000 128.511 C 309.340 128.257,308.800 127.225,308.800 126.216 C 308.800 123.777,282.530 97.600,280.082 97.600 C 279.164 97.600,277.964 96.880,277.414 96.000 C 276.865 95.120,275.591 94.400,274.583 94.400 C 273.512 94.400,271.683 93.237,270.181 91.600 C 268.767 90.060,266.977 88.800,266.203 88.800 C 265.428 88.800,263.451 88.080,261.809 87.200 C 260.167 86.320,258.052 85.600,257.110 85.600 C 256.167 85.600,254.948 85.060,254.400 84.400 C 253.841 83.727,252.097 83.200,250.426 83.200 C 248.464 83.200,246.954 82.654,246.000 81.600 C 244.873 80.355,243.536 80.000,239.974 80.000 C 236.881 80.000,235.073 79.611,234.400 78.800 C 233.556 77.783,229.828 77.600,210.000 77.600 C 190.172 77.600,186.444 77.783,185.600 78.800 " stroke="none" fill="#ffffff" fill-rule="evenodd"></path><path id="path1" d="M168.000 3.200 C 167.247 4.607,166.325 4.800,160.372 4.800 C 154.886 4.800,153.600 5.028,153.600 6.000 C 153.600 6.933,152.533 7.200,148.800 7.200 C 145.067 7.200,143.644 7.556,142.400 8.800 C 141.274 9.926,139.733 10.400,137.200 10.400 C 134.685 10.400,133.600 10.730,133.600 11.496 C 133.600 12.207,132.292 12.739,129.879 13.011 C 127.640 13.264,125.872 13.942,125.439 14.715 C 125.003 15.495,123.670 16.000,122.046 16.000 C 120.406 16.000,119.193 16.464,118.911 17.200 C 118.657 17.860,117.542 18.400,116.432 18.400 C 115.280 18.400,113.985 19.087,113.414 20.000 C 112.794 20.993,111.549 21.600,110.133 21.600 C 108.523 21.600,107.727 22.072,107.432 23.200 C 107.117 24.402,106.341 24.800,104.307 24.800 C 102.434 24.800,101.600 25.170,101.600 26.000 C 101.600 26.746,100.845 27.200,99.607 27.200 C 98.480 27.200,97.179 27.895,96.614 28.800 C 96.065 29.680,94.982 30.400,94.208 30.400 C 93.433 30.400,92.800 30.900,92.800 31.511 C 92.800 32.147,91.604 32.846,90.000 33.147 C 88.324 33.462,87.200 34.140,87.200 34.836 C 87.200 35.476,86.660 36.000,86.000 36.000 C 85.340 36.000,84.800 36.540,84.800 37.200 C 84.800 37.867,84.089 38.400,83.200 38.400 C 82.320 38.400,80.880 39.120,80.000 40.000 C 79.120 40.880,77.860 41.600,77.200 41.600 C 76.533 41.600,76.000 42.311,76.000 43.200 C 76.000 44.267,75.467 44.800,74.400 44.800 C 73.511 44.800,72.800 45.333,72.800 46.000 C 72.800 46.660,72.260 47.200,71.600 47.200 C 70.933 47.200,70.400 47.911,70.400 48.800 C 70.400 49.822,69.867 50.400,68.924 50.400 C 68.112 50.400,66.796 51.120,66.000 52.000 C 65.204 52.880,64.106 53.600,63.562 53.600 C 63.017 53.600,62.364 54.140,62.111 54.800 C 61.857 55.460,61.189 56.006,60.625 56.014 C 59.373 56.031,56.000 59.476,56.000 60.738 C 56.000 61.240,55.460 61.857,54.800 62.111 C 54.140 62.364,53.600 63.017,53.600 63.562 C 53.600 64.106,52.880 65.204,52.000 66.000 C 51.120 66.796,50.400 68.112,50.400 68.924 C 50.400 69.867,49.822 70.400,48.800 70.400 C 47.911 70.400,47.200 70.933,47.200 71.600 C 47.200 72.260,46.660 72.800,46.000 72.800 C 45.333 72.800,44.800 73.511,44.800 74.400 C 44.800 75.467,44.267 76.000,43.200 76.000 C 42.311 76.000,41.600 76.533,41.600 77.200 C 41.600 77.860,40.880 79.120,40.000 80.000 C 39.120 80.880,38.400 82.320,38.400 83.200 C 38.400 84.089,37.867 84.800,37.200 84.800 C 36.540 84.800,36.000 85.340,36.000 86.000 C 36.000 86.660,35.476 87.200,34.836 87.200 C 34.140 87.200,33.462 88.324,33.147 90.000 C 32.846 91.604,32.147 92.800,31.511 92.800 C 30.900 92.800,30.400 93.433,30.400 94.208 C 30.400 94.982,29.680 96.065,28.800 96.614 C 27.895 97.179,27.200 98.480,27.200 99.607 C 27.200 100.845,26.746 101.600,26.000 101.600 C 25.170 101.600,24.800 102.434,24.800 104.307 C 24.800 106.341,24.402 107.117,23.200 107.432 C 22.072 107.727,21.600 108.523,21.600 110.133 C 21.600 111.549,20.993 112.794,20.000 113.414 C 19.087 113.985,18.400 115.280,18.400 116.432 C 18.400 117.542,17.860 118.657,17.200 118.911 C 16.464 119.193,16.000 120.406,16.000 122.046 C 16.000 123.670,15.495 125.003,14.715 125.439 C 13.942 125.872,13.264 127.640,13.011 129.879 C 12.739 132.292,12.207 133.600,11.496 133.600 C 10.730 133.600,10.400 134.685,10.400 137.200 C 10.400 139.733,9.926 141.274,8.800 142.400 C 7.556 143.644,7.200 145.067,7.200 148.800 C 7.200 152.533,6.933 153.600,6.000 153.600 C 5.028 153.600,4.800 154.886,4.800 160.372 C 4.800 166.325,4.607 167.247,3.200 168.000 C 0.694 169.341,0.694 230.621,3.200 232.186 C 4.591 233.054,4.800 234.051,4.800 239.818 C 4.800 244.975,5.067 246.553,6.000 246.911 C 6.858 247.240,7.200 248.581,7.200 251.620 C 7.200 256.607,7.752 258.400,9.286 258.400 C 10.086 258.400,10.400 259.502,10.400 262.314 C 10.400 265.056,10.760 266.367,11.600 266.689 C 12.353 266.978,12.800 268.202,12.800 269.975 C 12.800 271.733,13.404 273.404,14.400 274.400 C 15.296 275.296,16.000 277.067,16.000 278.425 C 16.000 279.843,16.499 281.042,17.200 281.311 C 17.896 281.578,18.400 282.775,18.400 284.160 C 18.400 285.877,18.851 286.668,20.000 286.968 C 21.202 287.283,21.600 288.059,21.600 290.093 C 21.600 292.267,21.915 292.800,23.200 292.800 C 24.495 292.800,24.800 293.333,24.800 295.600 C 24.800 297.556,25.162 298.400,26.000 298.400 C 26.660 298.400,27.200 299.091,27.200 299.935 C 27.200 302.319,28.062 304.000,29.286 304.000 C 29.899 304.000,30.400 304.720,30.400 305.600 C 30.400 306.489,30.933 307.200,31.600 307.200 C 32.260 307.200,32.800 307.891,32.800 308.735 C 32.800 311.119,33.662 312.800,34.886 312.800 C 35.499 312.800,36.000 313.351,36.000 314.025 C 36.000 314.699,36.518 315.449,37.151 315.692 C 37.784 315.935,38.526 317.154,38.800 318.400 C 39.074 319.646,39.816 320.865,40.449 321.108 C 41.082 321.351,41.600 322.101,41.600 322.775 C 41.600 323.467,42.297 324.000,43.200 324.000 C 44.267 324.000,44.800 324.533,44.800 325.600 C 44.800 326.489,45.333 327.200,46.000 327.200 C 46.660 327.200,47.200 327.740,47.200 328.400 C 47.200 329.060,47.875 329.600,48.700 329.600 C 49.693 329.600,50.354 330.344,50.655 331.800 C 50.905 333.010,52.210 335.192,53.555 336.649 C 54.900 338.107,56.000 339.817,56.000 340.449 C 56.000 341.082,56.540 341.600,57.200 341.600 C 57.860 341.600,58.400 341.969,58.400 342.420 C 58.400 342.871,59.300 343.582,60.400 344.000 C 61.500 344.418,62.400 345.129,62.400 345.580 C 62.400 346.031,62.884 346.400,63.476 346.400 C 64.068 346.400,65.204 347.120,66.000 348.000 C 66.796 348.880,68.112 349.600,68.924 349.600 C 69.867 349.600,70.400 350.178,70.400 351.200 C 70.400 352.089,70.933 352.800,71.600 352.800 C 72.260 352.800,72.800 353.374,72.800 354.075 C 72.800 354.776,73.520 355.538,74.400 355.768 C 75.280 355.998,76.000 356.685,76.000 357.293 C 76.000 357.902,76.720 358.400,77.600 358.400 C 78.480 358.400,79.200 358.901,79.200 359.514 C 79.200 360.738,80.881 361.600,83.265 361.600 C 84.109 361.600,84.800 362.140,84.800 362.800 C 84.800 363.460,85.298 364.000,85.907 364.000 C 86.515 364.000,87.202 364.720,87.432 365.600 C 87.736 366.765,88.523 367.200,90.325 367.200 C 91.992 367.200,92.800 367.592,92.800 368.400 C 92.800 369.060,93.478 369.600,94.307 369.600 C 95.141 369.600,96.000 370.314,96.232 371.200 C 96.536 372.365,97.323 372.800,99.125 372.800 C 100.707 372.800,101.600 373.202,101.600 373.914 C 101.600 375.138,103.281 376.000,105.665 376.000 C 106.509 376.000,107.200 376.540,107.200 377.200 C 107.200 378.034,108.038 378.400,109.946 378.400 C 111.990 378.400,112.822 378.809,113.200 380.000 C 113.557 381.126,114.410 381.600,116.079 381.600 C 117.449 381.600,118.645 382.107,118.911 382.800 C 119.173 383.484,120.366 384.000,121.686 384.000 C 122.959 384.000,124.720 384.720,125.600 385.600 C 126.667 386.667,128.267 387.200,130.400 387.200 C 132.711 387.200,133.600 387.533,133.600 388.400 C 133.600 389.299,134.556 389.600,137.408 389.600 C 140.349 389.600,141.442 389.964,142.214 391.200 C 143.047 392.533,144.080 392.800,148.407 392.800 C 152.295 392.800,153.600 393.078,153.600 393.907 C 153.600 395.370,156.109 395.976,162.225 395.989 C 165.947 395.997,167.370 396.311,167.711 397.200 C 168.377 398.936,231.590 399.022,232.256 397.287 C 232.558 396.499,234.587 396.088,239.213 395.878 C 244.256 395.649,245.974 395.265,246.759 394.191 C 247.493 393.187,248.903 392.800,251.823 392.800 C 256.613 392.800,258.400 392.233,258.400 390.714 C 258.400 389.910,259.518 389.600,262.425 389.600 C 265.265 389.600,266.586 389.247,266.911 388.400 C 267.195 387.660,268.411 387.200,270.086 387.200 C 271.733 387.200,273.429 386.571,274.400 385.600 C 275.296 384.704,277.067 384.000,278.425 384.000 C 279.843 384.000,281.042 383.501,281.311 382.800 C 281.578 382.104,282.775 381.600,284.160 381.600 C 285.877 381.600,286.668 381.149,286.968 380.000 C 287.283 378.798,288.059 378.400,290.093 378.400 C 291.966 378.400,292.800 378.030,292.800 377.200 C 292.800 376.540,293.491 376.000,294.335 376.000 C 296.719 376.000,298.400 375.138,298.400 373.914 C 298.400 373.202,299.293 372.800,300.875 372.800 C 302.677 372.800,303.464 372.365,303.768 371.200 C 304.000 370.314,304.859 369.600,305.693 369.600 C 306.522 369.600,307.200 369.060,307.200 368.400 C 307.200 367.592,308.008 367.200,309.675 367.200 C 311.477 367.200,312.264 366.765,312.568 365.600 C 312.800 364.714,313.659 364.000,314.493 364.000 C 315.322 364.000,316.000 363.460,316.000 362.800 C 316.000 362.131,316.712 361.600,317.608 361.600 C 318.492 361.600,319.832 360.880,320.586 360.000 C 321.339 359.120,322.416 358.400,322.978 358.400 C 323.540 358.400,324.000 357.902,324.000 357.293 C 324.000 356.685,324.720 355.998,325.600 355.768 C 326.480 355.538,327.200 354.776,327.200 354.075 C 327.200 353.333,327.869 352.800,328.800 352.800 C 329.867 352.800,330.400 352.267,330.400 351.200 C 330.400 350.320,330.867 349.600,331.437 349.600 C 332.490 349.600,334.966 347.938,337.695 345.400 C 338.523 344.630,339.740 344.000,340.400 344.000 C 341.060 344.000,341.600 343.460,341.600 342.800 C 341.600 342.140,342.140 341.600,342.800 341.600 C 343.460 341.600,344.000 341.060,344.000 340.400 C 344.000 339.740,344.630 338.492,345.400 337.627 C 346.170 336.762,347.610 335.155,348.600 334.056 C 349.590 332.957,350.400 331.504,350.400 330.829 C 350.400 330.153,350.940 329.600,351.600 329.600 C 352.260 329.600,352.800 329.102,352.800 328.493 C 352.800 327.885,353.520 327.198,354.400 326.968 C 355.280 326.738,356.000 325.976,356.000 325.275 C 356.000 324.574,356.540 324.000,357.200 324.000 C 357.860 324.000,358.400 323.540,358.400 322.978 C 358.400 322.416,359.120 321.339,360.000 320.586 C 360.880 319.832,361.600 318.492,361.600 317.608 C 361.600 316.712,362.131 316.000,362.800 316.000 C 363.460 316.000,364.000 315.322,364.000 314.493 C 364.000 313.659,364.714 312.800,365.600 312.568 C 366.748 312.268,367.200 311.477,367.200 309.768 C 367.200 308.059,367.652 307.268,368.800 306.968 C 369.680 306.738,370.400 306.015,370.400 305.360 C 370.400 304.706,370.940 303.964,371.600 303.711 C 372.301 303.442,372.800 302.243,372.800 300.825 C 372.800 299.286,373.207 298.400,373.914 298.400 C 375.138 298.400,376.000 296.719,376.000 294.335 C 376.000 293.491,376.540 292.800,377.200 292.800 C 378.030 292.800,378.400 291.966,378.400 290.093 C 378.400 288.059,378.798 287.283,380.000 286.968 C 381.149 286.668,381.600 285.877,381.600 284.160 C 381.600 282.775,382.104 281.578,382.800 281.311 C 383.501 281.042,384.000 279.843,384.000 278.425 C 384.000 277.067,384.704 275.296,385.600 274.400 C 386.521 273.479,387.200 271.733,387.200 270.288 C 387.200 268.907,387.764 267.364,388.453 266.860 C 389.142 266.356,389.921 264.342,390.184 262.384 C 390.446 260.427,391.142 258.343,391.731 257.755 C 392.367 257.119,392.800 254.882,392.800 252.231 C 392.800 248.923,393.158 247.515,394.191 246.759 C 395.265 245.974,395.649 244.256,395.878 239.213 C 396.088 234.587,396.499 232.558,397.287 232.256 C 399.022 231.590,398.936 168.377,397.200 167.711 C 396.311 167.370,395.997 165.947,395.989 162.225 C 395.976 156.109,395.370 153.600,393.907 153.600 C 393.080 153.600,392.800 152.309,392.800 148.498 C 392.800 144.939,392.437 143.095,391.600 142.400 C 390.940 141.852,390.395 140.458,390.389 139.302 C 390.372 135.968,389.507 133.600,388.307 133.600 C 387.549 133.600,387.200 132.591,387.200 130.400 C 387.200 128.267,386.667 126.667,385.600 125.600 C 384.720 124.720,384.000 122.959,384.000 121.686 C 384.000 120.366,383.484 119.173,382.800 118.911 C 382.107 118.645,381.600 117.449,381.600 116.079 C 381.600 114.410,381.126 113.557,380.000 113.200 C 378.809 112.822,378.400 111.990,378.400 109.946 C 378.400 108.038,378.034 107.200,377.200 107.200 C 376.540 107.200,376.000 106.509,376.000 105.665 C 376.000 103.281,375.138 101.600,373.914 101.600 C 373.207 101.600,372.800 100.714,372.800 99.175 C 372.800 97.833,372.299 96.558,371.679 96.320 C 371.062 96.083,370.376 95.194,370.154 94.345 C 369.932 93.495,369.176 92.800,368.475 92.800 C 367.583 92.800,367.200 92.056,367.200 90.325 C 367.200 88.523,366.765 87.736,365.600 87.432 C 364.720 87.202,364.000 86.515,364.000 85.907 C 364.000 85.298,363.460 84.800,362.800 84.800 C 362.140 84.800,361.600 84.109,361.600 83.265 C 361.600 80.881,360.738 79.200,359.514 79.200 C 358.901 79.200,358.400 78.480,358.400 77.600 C 358.400 76.720,357.902 76.000,357.293 76.000 C 356.685 76.000,355.998 75.280,355.768 74.400 C 355.538 73.520,354.776 72.800,354.075 72.800 C 353.374 72.800,352.800 72.260,352.800 71.600 C 352.800 70.940,352.260 70.400,351.600 70.400 C 350.940 70.400,350.400 69.822,350.400 69.115 C 350.400 68.408,349.500 67.122,348.400 66.257 C 347.300 65.392,346.400 64.170,346.400 63.542 C 346.400 62.914,346.031 62.400,345.580 62.400 C 345.129 62.400,344.418 61.500,344.000 60.400 C 343.582 59.300,342.871 58.400,342.420 58.400 C 341.969 58.400,341.600 57.860,341.600 57.200 C 341.600 56.533,340.889 56.000,340.000 56.000 C 339.120 56.000,338.400 55.704,338.400 55.342 C 338.400 54.628,332.259 50.400,331.222 50.400 C 330.872 50.400,330.398 49.680,330.168 48.800 C 329.938 47.920,329.176 47.200,328.475 47.200 C 327.774 47.200,327.200 46.660,327.200 46.000 C 327.200 45.333,326.489 44.800,325.600 44.800 C 324.533 44.800,324.000 44.267,324.000 43.200 C 324.000 42.297,323.467 41.600,322.775 41.600 C 322.101 41.600,321.351 41.082,321.108 40.449 C 320.865 39.816,319.646 39.074,318.400 38.800 C 317.154 38.526,315.935 37.784,315.692 37.151 C 315.449 36.518,314.699 36.000,314.025 36.000 C 313.351 36.000,312.800 35.499,312.800 34.886 C 312.800 33.662,311.119 32.800,308.735 32.800 C 307.891 32.800,307.200 32.260,307.200 31.600 C 307.200 30.933,306.489 30.400,305.600 30.400 C 304.720 30.400,304.000 29.899,304.000 29.286 C 304.000 28.062,302.319 27.200,299.935 27.200 C 299.091 27.200,298.400 26.660,298.400 26.000 C 298.400 25.162,297.556 24.800,295.600 24.800 C 293.333 24.800,292.800 24.495,292.800 23.200 C 292.800 21.915,292.267 21.600,290.093 21.600 C 288.059 21.600,287.283 21.202,286.968 20.000 C 286.668 18.851,285.877 18.400,284.160 18.400 C 282.775 18.400,281.578 17.896,281.311 17.200 C 281.042 16.499,279.843 16.000,278.425 16.000 C 277.067 16.000,275.296 15.296,274.400 14.400 C 273.404 13.404,271.733 12.800,269.975 12.800 C 268.202 12.800,266.978 12.353,266.689 11.600 C 266.367 10.760,265.056 10.400,262.314 10.400 C 259.502 10.400,258.400 10.086,258.400 9.286 C 258.400 7.752,256.607 7.200,251.620 7.200 C 248.581 7.200,247.240 6.858,246.911 6.000 C 246.553 5.067,244.975 4.800,239.818 4.800 C 234.051 4.800,233.054 4.591,232.186 3.200 C 230.621 0.694,169.341 0.694,168.000 3.200 M234.400 78.800 C 235.073 79.611,236.881 80.000,239.974 80.000 C 243.536 80.000,244.873 80.355,246.000 81.600 C 246.954 82.654,248.464 83.200,250.426 83.200 C 252.097 83.200,253.841 83.727,254.400 84.400 C 254.948 85.060,256.167 85.600,257.110 85.600 C 258.052 85.600,260.167 86.320,261.809 87.200 C 263.451 88.080,265.428 88.800,266.203 88.800 C 266.977 88.800,268.767 90.060,270.181 91.600 C 271.683 93.237,273.512 94.400,274.583 94.400 C 275.591 94.400,276.865 95.120,277.414 96.000 C 277.964 96.880,279.164 97.600,280.082 97.600 C 282.530 97.600,308.800 123.777,308.800 126.216 C 308.800 127.225,309.340 128.257,310.000 128.511 C 310.660 128.764,311.200 129.767,311.200 130.740 C 311.200 131.713,312.460 133.925,313.999 135.655 C 316.131 138.050,316.799 139.509,316.799 141.772 C 316.800 143.925,317.241 144.980,318.400 145.600 C 319.438 146.156,320.000 147.275,320.000 148.788 C 320.000 150.140,320.565 151.437,321.343 151.872 C 322.302 152.409,322.787 154.038,323.043 157.575 C 323.274 160.769,323.792 162.677,324.501 162.949 C 325.266 163.243,325.600 164.846,325.600 168.223 C 325.600 171.721,325.990 173.505,327.000 174.620 C 329.352 177.216,329.565 217.968,327.238 220.136 C 325.896 221.387,325.600 222.650,325.600 227.133 C 325.600 231.020,325.253 232.892,324.400 233.600 C 323.680 234.198,323.200 235.947,323.200 237.974 C 323.200 240.336,322.719 241.788,321.600 242.800 C 320.720 243.596,320.000 245.080,320.000 246.096 C 320.000 247.125,319.291 248.323,318.400 248.800 C 317.373 249.350,316.800 250.475,316.800 251.943 C 316.800 253.237,316.279 254.429,315.600 254.689 C 314.940 254.943,314.400 255.981,314.400 256.997 C 314.400 258.013,313.680 259.461,312.800 260.214 C 311.920 260.968,311.200 262.449,311.200 263.507 C 311.200 264.564,310.706 265.618,310.103 265.850 C 309.500 266.081,308.752 267.290,308.442 268.535 C 307.661 271.674,282.681 296.800,280.342 296.800 C 279.326 296.800,277.519 298.104,275.913 299.996 C 274.017 302.229,272.563 303.193,271.086 303.196 C 269.923 303.198,268.764 303.740,268.511 304.400 C 268.257 305.060,267.195 305.600,266.149 305.600 C 265.103 305.600,263.596 306.320,262.800 307.200 C 261.846 308.254,260.336 308.800,258.374 308.800 C 256.703 308.800,254.959 309.327,254.400 310.000 C 253.852 310.660,252.777 311.200,252.010 311.200 C 251.243 311.200,249.700 311.920,248.582 312.800 C 247.167 313.913,245.336 314.400,242.572 314.400 C 240.014 314.400,238.241 314.828,237.600 315.600 C 236.870 316.480,234.931 316.800,230.330 316.800 C 224.875 316.800,223.945 317.009,223.200 318.400 C 222.352 319.985,221.525 320.000,137.164 320.000 L 51.985 320.000 52.193 280.200 L 52.400 240.400 132.905 240.196 C 203.207 240.018,213.536 239.841,214.403 238.796 C 214.959 238.127,216.707 237.600,218.374 237.600 C 220.336 237.600,221.846 237.054,222.800 236.000 C 223.596 235.120,225.048 234.400,226.026 234.400 C 227.004 234.400,228.252 233.860,228.800 233.200 C 229.348 232.540,230.390 232.000,231.116 232.000 C 232.758 232.000,245.250 219.429,245.949 217.072 C 246.231 216.122,246.988 214.908,247.631 214.374 C 248.274 213.841,248.800 212.604,248.800 211.626 C 248.800 210.648,249.520 209.196,250.400 208.400 C 251.870 207.069,252.000 205.936,252.000 194.400 C 252.000 182.864,251.870 181.731,250.400 180.400 C 249.375 179.472,248.794 177.919,248.782 176.076 C 248.768 173.709,247.998 172.382,244.436 168.584 C 242.055 166.045,239.993 163.165,239.854 162.184 C 239.677 160.941,238.968 160.327,237.516 160.158 C 236.370 160.025,234.230 158.675,232.759 157.158 C 231.259 155.610,229.290 154.400,228.271 154.400 C 227.273 154.400,226.071 153.680,225.600 152.800 C 224.945 151.576,223.925 151.200,221.257 151.200 C 218.897 151.200,217.623 150.813,217.311 150.000 C 216.937 149.025,215.040 148.800,207.200 148.800 C 199.360 148.800,197.463 149.025,197.089 150.000 C 196.789 150.783,195.544 151.200,193.507 151.200 C 191.374 151.200,189.950 151.707,189.014 152.800 C 188.261 153.680,186.869 154.400,185.920 154.400 C 184.972 154.400,183.748 154.940,183.200 155.600 C 182.652 156.260,181.495 156.800,180.629 156.800 C 178.531 156.800,163.200 172.042,163.200 174.128 C 163.200 178.625,155.124 181.893,154.523 177.638 C 154.367 176.534,151.833 173.215,148.723 170.043 C 145.685 166.945,143.200 163.800,143.200 163.056 C 143.200 162.312,141.220 159.754,138.800 157.373 C 136.380 154.991,134.400 152.345,134.400 151.494 C 134.400 150.642,132.420 147.990,130.000 145.600 C 127.528 143.159,125.600 140.540,125.600 139.624 C 125.600 138.681,123.915 136.481,121.600 134.400 C 119.400 132.423,117.600 130.108,117.600 129.254 C 117.600 128.401,116.883 126.940,116.006 126.007 L 114.413 124.310 117.181 121.555 C 118.703 120.040,119.961 118.135,119.975 117.322 C 120.004 115.630,129.326 106.400,131.007 106.400 C 131.618 106.400,134.195 104.420,136.732 102.000 C 139.269 99.580,141.990 97.600,142.778 97.600 C 143.566 97.600,145.399 96.340,146.852 94.800 C 148.304 93.260,150.181 92.000,151.022 92.000 C 151.864 92.000,153.204 91.280,154.000 90.400 C 154.796 89.520,156.212 88.800,157.146 88.800 C 158.080 88.800,159.461 88.080,160.214 87.200 C 160.968 86.320,162.264 85.600,163.094 85.600 C 163.925 85.600,165.052 85.060,165.600 84.400 C 166.205 83.670,167.958 83.200,170.070 83.200 C 172.725 83.200,173.746 82.823,174.400 81.600 C 175.106 80.280,176.075 80.000,179.930 80.000 C 183.109 80.000,184.923 79.616,185.600 78.800 C 186.444 77.783,190.172 77.600,210.000 77.600 C 229.828 77.600,233.556 77.783,234.400 78.800 " stroke="none" fill="#00aeef" fill-rule="evenodd"></path></g></svg>
