<svg id="svg" version="1.1" width="400" height="400" xmlns="http://www.w3.org/2000/svg" xmlns:xlink="http://www.w3.org/1999/xlink" style="display: block;"><g id="svgg"><path id="path0" d="M195.480 75.400 C 179.487 91.825,87.685 182.299,75.762 193.386 C 69.014 199.660,69.033 199.876,77.017 207.818 C 84.922 215.682,84.246 215.604,91.881 209.540 C 95.246 206.867,98.540 204.255,99.200 203.734 C 102.415 201.199,110.476 196.000,111.191 196.000 C 111.636 196.000,112.000 195.691,112.000 195.313 C 112.000 194.691,129.123 185.867,136.000 182.943 C 158.843 173.234,192.322 168.400,217.109 171.233 C 236.942 173.500,257.081 178.467,265.789 183.239 C 266.553 183.657,267.534 184.000,267.968 184.000 C 268.922 184.000,277.793 188.300,284.400 191.965 C 291.860 196.103,303.764 204.212,310.755 209.919 C 314.991 213.377,317.476 214.901,318.210 214.491 C 321.044 212.904,330.447 202.743,330.234 201.496 C 329.984 200.035,316.603 186.307,246.311 115.400 C 221.776 90.650,201.397 70.400,201.025 70.400 C 200.653 70.400,198.158 72.650,195.480 75.400 M207.176 120.000 C 207.849 120.660,210.920 123.353,214.000 125.984 C 217.080 128.615,221.580 132.628,224.000 134.901 C 226.420 137.174,230.650 140.902,233.400 143.186 C 240.554 149.127,239.906 151.654,231.816 149.368 C 217.790 145.404,204.351 144.207,188.034 145.467 C 181.494 145.972,175.187 146.749,174.019 147.193 C 171.398 148.189,164.253 148.256,163.655 147.290 C 163.414 146.899,164.868 145.226,166.887 143.571 C 168.906 141.917,171.153 139.967,171.879 139.239 C 173.709 137.405,195.872 118.353,198.734 116.152 L 201.069 114.358 203.510 116.579 C 204.853 117.801,206.503 119.340,207.176 120.000 M186.420 189.226 C 166.135 191.324,151.330 195.346,134.709 203.274 C 127.063 206.921,109.165 217.999,106.400 220.795 C 106.180 221.018,104.290 222.574,102.200 224.254 C 97.138 228.321,97.089 228.189,107.356 238.342 C 117.281 248.158,116.651 247.768,119.292 245.722 C 133.759 234.515,153.185 225.391,171.200 221.341 C 198.959 215.101,224.837 217.055,251.614 227.413 C 255.566 228.942,260.060 230.900,261.600 231.766 C 263.140 232.631,266.560 234.520,269.200 235.964 C 271.840 237.408,276.438 240.347,279.417 242.495 C 286.438 247.556,285.667 247.795,295.449 237.535 C 305.353 227.147,305.413 228.295,294.547 220.211 C 281.057 210.174,258.325 197.600,253.668 197.600 C 253.179 197.600,252.153 197.284,251.389 196.898 C 249.672 196.031,245.866 194.881,239.600 193.337 C 220.029 188.516,204.725 187.332,186.420 189.226 M184.972 237.248 C 165.151 240.335,143.213 249.384,132.200 259.014 C 129.596 261.291,129.472 261.097,140.611 272.212 C 152.064 283.639,152.017 283.620,158.000 279.200 C 160.382 277.440,162.534 276.000,162.782 276.000 C 163.029 276.000,164.575 275.167,166.216 274.148 C 169.166 272.318,176.908 269.054,182.467 267.298 C 192.813 264.030,213.776 264.012,223.779 267.263 C 231.018 269.615,234.152 270.798,236.400 272.026 C 243.962 276.156,246.972 277.934,248.693 279.287 C 249.750 280.119,250.946 280.800,251.351 280.800 C 252.591 280.800,271.171 261.282,271.186 259.963 C 271.212 257.664,247.779 244.000,243.809 244.000 C 243.210 244.000,242.378 243.686,241.960 243.303 C 241.280 242.679,237.037 241.338,228.800 239.142 C 217.368 236.096,197.801 235.250,184.972 237.248 M194.800 285.325 C 179.580 293.324,180.458 314.507,196.276 320.955 C 215.144 328.647,231.688 302.821,216.656 289.142 C 210.963 283.961,200.779 282.183,194.800 285.325 " stroke="none" fill="#ffffff" fill-rule="evenodd"></path><path id="path1" d="M179.200 10.000 C 179.200 10.978,177.867 11.200,172.000 11.200 C 167.733 11.200,164.800 11.526,164.800 12.000 C 164.800 12.444,162.667 12.800,160.000 12.800 C 156.267 12.800,155.200 13.067,155.200 14.000 C 155.200 14.907,154.222 15.200,151.200 15.200 C 149.000 15.200,147.200 15.560,147.200 16.000 C 147.200 16.440,145.929 16.800,144.375 16.800 C 142.602 16.800,141.378 17.247,141.089 18.000 C 140.805 18.740,139.589 19.200,137.914 19.200 C 136.421 19.200,135.200 19.560,135.200 20.000 C 135.200 20.440,133.929 20.800,132.375 20.800 C 130.602 20.800,129.378 21.247,129.089 22.000 C 128.836 22.660,127.767 23.200,126.714 23.200 C 125.661 23.200,124.800 23.560,124.800 24.000 C 124.800 24.440,123.540 24.800,122.000 24.800 C 120.044 24.800,119.200 25.162,119.200 26.000 C 119.200 26.747,118.444 27.200,117.200 27.200 C 116.100 27.200,115.200 27.560,115.200 28.000 C 115.200 28.440,114.300 28.800,113.200 28.800 C 111.956 28.800,111.200 29.253,111.200 30.000 C 111.200 30.692,110.477 31.200,109.492 31.200 C 108.552 31.200,106.949 32.100,105.930 33.200 C 104.910 34.300,103.339 35.200,102.438 35.200 C 101.537 35.200,100.800 35.560,100.800 36.000 C 100.800 36.440,100.130 36.800,99.312 36.800 C 98.494 36.800,97.148 37.700,96.322 38.800 C 95.495 39.902,94.007 40.800,93.010 40.800 C 91.934 40.800,91.200 41.287,91.200 42.000 C 91.200 42.660,90.660 43.200,90.000 43.200 C 89.340 43.200,88.800 43.560,88.800 44.000 C 88.800 44.440,88.204 44.800,87.476 44.800 C 86.748 44.800,84.782 46.240,83.108 48.000 C 81.434 49.760,79.484 51.200,78.775 51.200 C 77.311 51.200,75.200 53.056,75.200 54.343 C 75.200 54.814,74.814 55.200,74.343 55.200 C 73.235 55.200,71.200 57.235,71.200 58.343 C 71.200 58.814,70.814 59.200,70.343 59.200 C 69.235 59.200,67.200 61.235,67.200 62.343 C 67.200 62.814,66.814 63.200,66.343 63.200 C 65.235 63.200,63.200 65.235,63.200 66.343 C 63.200 66.814,62.814 67.200,62.343 67.200 C 61.235 67.200,59.200 69.235,59.200 70.343 C 59.200 70.814,58.814 71.200,58.343 71.200 C 57.235 71.200,55.200 73.235,55.200 74.343 C 55.200 74.814,54.814 75.200,54.343 75.200 C 53.056 75.200,51.200 77.311,51.200 78.775 C 51.200 79.484,49.760 81.434,48.000 83.108 C 46.240 84.782,44.800 86.748,44.800 87.476 C 44.800 88.204,44.440 88.800,44.000 88.800 C 43.560 88.800,43.200 89.340,43.200 90.000 C 43.200 90.660,42.660 91.200,42.000 91.200 C 41.287 91.200,40.800 91.934,40.800 93.010 C 40.800 94.007,39.902 95.495,38.800 96.322 C 37.700 97.148,36.800 98.494,36.800 99.312 C 36.800 100.130,36.440 100.800,36.000 100.800 C 35.560 100.800,35.200 101.537,35.200 102.438 C 35.200 103.339,34.300 104.910,33.200 105.930 C 32.100 106.949,31.200 108.552,31.200 109.492 C 31.200 110.477,30.692 111.200,30.000 111.200 C 29.253 111.200,28.800 111.956,28.800 113.200 C 28.800 114.300,28.440 115.200,28.000 115.200 C 27.560 115.200,27.200 116.100,27.200 117.200 C 27.200 118.444,26.747 119.200,26.000 119.200 C 25.162 119.200,24.800 120.044,24.800 122.000 C 24.800 123.540,24.440 124.800,24.000 124.800 C 23.560 124.800,23.200 125.661,23.200 126.714 C 23.200 127.767,22.660 128.836,22.000 129.089 C 21.247 129.378,20.800 130.602,20.800 132.375 C 20.800 133.929,20.440 135.200,20.000 135.200 C 19.560 135.200,19.200 136.421,19.200 137.914 C 19.200 139.589,18.740 140.805,18.000 141.089 C 17.247 141.378,16.800 142.602,16.800 144.375 C 16.800 145.929,16.440 147.200,16.000 147.200 C 15.560 147.200,15.200 149.000,15.200 151.200 C 15.200 154.222,14.907 155.200,14.000 155.200 C 13.067 155.200,12.800 156.267,12.800 160.000 C 12.800 162.667,12.444 164.800,12.000 164.800 C 11.526 164.800,11.200 167.733,11.200 172.000 C 11.200 177.867,10.978 179.200,10.000 179.200 C 8.965 179.200,8.800 181.956,8.800 199.200 C 8.800 216.444,8.965 219.200,10.000 219.200 C 10.973 219.200,11.200 220.489,11.200 226.000 C 11.200 230.000,11.529 232.800,12.000 232.800 C 12.451 232.800,12.800 235.067,12.800 238.000 C 12.800 242.089,13.056 243.200,14.000 243.200 C 14.907 243.200,15.200 244.178,15.200 247.200 C 15.200 249.400,15.560 251.200,16.000 251.200 C 16.440 251.200,16.800 252.460,16.800 254.000 C 16.800 255.956,17.162 256.800,18.000 256.800 C 18.867 256.800,19.200 257.689,19.200 260.000 C 19.200 261.760,19.560 263.200,20.000 263.200 C 20.440 263.200,20.800 264.460,20.800 266.000 C 20.800 267.956,21.162 268.800,22.000 268.800 C 22.747 268.800,23.200 269.556,23.200 270.800 C 23.200 271.900,23.560 272.800,24.000 272.800 C 24.440 272.800,24.800 274.240,24.800 276.000 C 24.800 278.311,25.133 279.200,26.000 279.200 C 26.747 279.200,27.200 279.956,27.200 281.200 C 27.200 282.300,27.560 283.200,28.000 283.200 C 28.440 283.200,28.800 284.100,28.800 285.200 C 28.800 286.444,29.253 287.200,30.000 287.200 C 30.680 287.200,31.200 287.917,31.200 288.857 C 31.200 290.628,32.931 292.800,34.343 292.800 C 34.814 292.800,35.200 293.700,35.200 294.800 C 35.200 295.900,35.560 296.800,36.000 296.800 C 36.440 296.800,36.800 297.700,36.800 298.800 C 36.800 300.044,37.253 300.800,38.000 300.800 C 38.660 300.800,39.200 301.340,39.200 302.000 C 39.200 302.660,39.560 303.200,40.000 303.200 C 40.440 303.200,40.800 304.100,40.800 305.200 C 40.800 306.300,41.186 307.200,41.657 307.200 C 43.069 307.200,44.800 309.372,44.800 311.143 C 44.800 312.083,45.320 312.800,46.000 312.800 C 46.660 312.800,47.200 313.186,47.200 313.657 C 47.200 314.765,49.235 316.800,50.343 316.800 C 50.814 316.800,51.200 317.700,51.200 318.800 C 51.200 319.900,51.560 320.800,52.000 320.800 C 52.440 320.800,52.800 321.340,52.800 322.000 C 52.800 322.660,53.186 323.200,53.657 323.200 C 54.765 323.200,56.800 325.235,56.800 326.343 C 56.800 326.814,57.186 327.200,57.657 327.200 C 58.765 327.200,60.800 329.235,60.800 330.343 C 60.800 330.814,61.186 331.200,61.657 331.200 C 62.765 331.200,64.800 333.235,64.800 334.343 C 64.800 334.814,65.186 335.200,65.657 335.200 C 66.765 335.200,68.800 337.235,68.800 338.343 C 68.800 338.814,69.186 339.200,69.657 339.200 C 70.765 339.200,72.800 341.235,72.800 342.343 C 72.800 342.814,73.186 343.200,73.657 343.200 C 74.765 343.200,76.800 345.235,76.800 346.343 C 76.800 346.814,77.700 347.200,78.800 347.200 C 79.900 347.200,80.800 347.560,80.800 348.000 C 80.800 348.440,81.340 348.800,82.000 348.800 C 82.660 348.800,83.200 349.186,83.200 349.657 C 83.200 351.069,85.372 352.800,87.143 352.800 C 88.083 352.800,88.800 353.320,88.800 354.000 C 88.800 354.660,89.340 355.200,90.000 355.200 C 90.660 355.200,91.200 355.560,91.200 356.000 C 91.200 356.440,92.100 356.800,93.200 356.800 C 94.300 356.800,95.200 357.186,95.200 357.657 C 95.200 359.069,97.372 360.800,99.143 360.800 C 100.083 360.800,100.800 361.320,100.800 362.000 C 100.800 362.747,101.556 363.200,102.800 363.200 C 103.900 363.200,104.800 363.560,104.800 364.000 C 104.800 364.440,105.340 364.800,106.000 364.800 C 106.660 364.800,107.200 365.340,107.200 366.000 C 107.200 366.747,107.956 367.200,109.200 367.200 C 110.300 367.200,111.200 367.560,111.200 368.000 C 111.200 368.440,112.100 368.800,113.200 368.800 C 114.444 368.800,115.200 369.253,115.200 370.000 C 115.200 370.747,115.956 371.200,117.200 371.200 C 118.300 371.200,119.200 371.560,119.200 372.000 C 119.200 372.440,120.460 372.800,122.000 372.800 C 123.956 372.800,124.800 373.162,124.800 374.000 C 124.800 374.747,125.556 375.200,126.800 375.200 C 127.900 375.200,128.800 375.560,128.800 376.000 C 128.800 376.440,130.240 376.800,132.000 376.800 C 134.311 376.800,135.200 377.133,135.200 378.000 C 135.200 378.838,136.044 379.200,138.000 379.200 C 139.540 379.200,140.800 379.560,140.800 380.000 C 140.800 380.440,142.240 380.800,144.000 380.800 C 146.311 380.800,147.200 381.133,147.200 382.000 C 147.200 382.907,148.178 383.200,151.200 383.200 C 153.400 383.200,155.200 383.560,155.200 384.000 C 155.200 384.444,157.333 384.800,160.000 384.800 C 163.733 384.800,164.800 385.067,164.800 386.000 C 164.800 386.978,166.133 387.200,172.000 387.200 C 176.267 387.200,179.200 387.526,179.200 388.000 C 179.200 388.512,186.400 388.800,199.200 388.800 C 212.000 388.800,219.200 388.512,219.200 388.000 C 219.200 387.529,222.000 387.200,226.000 387.200 C 231.511 387.200,232.800 386.973,232.800 386.000 C 232.800 385.056,233.911 384.800,238.000 384.800 C 240.933 384.800,243.200 384.451,243.200 384.000 C 243.200 383.560,245.000 383.200,247.200 383.200 C 250.222 383.200,251.200 382.907,251.200 382.000 C 251.200 381.162,252.044 380.800,254.000 380.800 C 255.540 380.800,256.800 380.440,256.800 380.000 C 256.800 379.560,258.240 379.200,260.000 379.200 C 262.311 379.200,263.200 378.867,263.200 378.000 C 263.200 377.162,264.044 376.800,266.000 376.800 C 267.540 376.800,268.800 376.440,268.800 376.000 C 268.800 375.560,269.700 375.200,270.800 375.200 C 272.044 375.200,272.800 374.747,272.800 374.000 C 272.800 373.133,273.689 372.800,276.000 372.800 C 277.760 372.800,279.200 372.440,279.200 372.000 C 279.200 371.560,280.100 371.200,281.200 371.200 C 282.444 371.200,283.200 370.747,283.200 370.000 C 283.200 369.253,283.956 368.800,285.200 368.800 C 286.300 368.800,287.200 368.440,287.200 368.000 C 287.200 367.560,288.100 367.200,289.200 367.200 C 290.300 367.200,291.200 366.814,291.200 366.343 C 291.200 364.931,293.372 363.200,295.143 363.200 C 296.083 363.200,296.800 362.680,296.800 362.000 C 296.800 361.253,297.556 360.800,298.800 360.800 C 299.900 360.800,300.800 360.440,300.800 360.000 C 300.800 359.560,301.340 359.200,302.000 359.200 C 302.660 359.200,303.200 358.660,303.200 358.000 C 303.200 357.320,303.917 356.800,304.857 356.800 C 306.628 356.800,308.800 355.069,308.800 353.657 C 308.800 353.186,309.700 352.800,310.800 352.800 C 311.900 352.800,312.800 352.440,312.800 352.000 C 312.800 351.560,313.340 351.200,314.000 351.200 C 314.660 351.200,315.200 350.814,315.200 350.343 C 315.200 348.931,317.372 347.200,319.143 347.200 C 320.083 347.200,320.800 346.680,320.800 346.000 C 320.800 345.340,321.186 344.800,321.657 344.800 C 322.765 344.800,324.800 342.765,324.800 341.657 C 324.800 341.186,325.186 340.800,325.657 340.800 C 326.765 340.800,328.800 338.765,328.800 337.657 C 328.800 337.186,329.186 336.800,329.657 336.800 C 330.765 336.800,332.800 334.765,332.800 333.657 C 332.800 333.186,333.186 332.800,333.657 332.800 C 334.765 332.800,336.800 330.765,336.800 329.657 C 336.800 329.186,337.186 328.800,337.657 328.800 C 338.765 328.800,340.800 326.765,340.800 325.657 C 340.800 325.186,341.186 324.800,341.657 324.800 C 342.765 324.800,344.800 322.765,344.800 321.657 C 344.800 321.186,345.340 320.800,346.000 320.800 C 346.680 320.800,347.200 320.083,347.200 319.143 C 347.200 317.372,348.931 315.200,350.343 315.200 C 350.814 315.200,351.200 314.660,351.200 314.000 C 351.200 313.340,351.560 312.800,352.000 312.800 C 352.440 312.800,352.800 311.900,352.800 310.800 C 352.800 309.700,353.186 308.800,353.657 308.800 C 355.069 308.800,356.800 306.628,356.800 304.857 C 356.800 303.917,357.320 303.200,358.000 303.200 C 358.660 303.200,359.200 302.660,359.200 302.000 C 359.200 301.340,359.560 300.800,360.000 300.800 C 360.440 300.800,360.800 299.900,360.800 298.800 C 360.800 297.556,361.253 296.800,362.000 296.800 C 362.680 296.800,363.200 296.083,363.200 295.143 C 363.200 293.372,364.931 291.200,366.343 291.200 C 366.814 291.200,367.200 290.300,367.200 289.200 C 367.200 288.100,367.560 287.200,368.000 287.200 C 368.440 287.200,368.800 286.300,368.800 285.200 C 368.800 283.956,369.253 283.200,370.000 283.200 C 370.747 283.200,371.200 282.444,371.200 281.200 C 371.200 280.100,371.560 279.200,372.000 279.200 C 372.440 279.200,372.800 277.760,372.800 276.000 C 372.800 273.689,373.133 272.800,374.000 272.800 C 374.747 272.800,375.200 272.044,375.200 270.800 C 375.200 269.700,375.560 268.800,376.000 268.800 C 376.440 268.800,376.800 267.540,376.800 266.000 C 376.800 264.044,377.162 263.200,378.000 263.200 C 378.867 263.200,379.200 262.311,379.200 260.000 C 379.200 258.240,379.560 256.800,380.000 256.800 C 380.440 256.800,380.800 255.540,380.800 254.000 C 380.800 252.044,381.162 251.200,382.000 251.200 C 382.907 251.200,383.200 250.222,383.200 247.200 C 383.200 245.000,383.560 243.200,384.000 243.200 C 384.451 243.200,384.800 240.933,384.800 238.000 C 384.800 233.911,385.056 232.800,386.000 232.800 C 386.973 232.800,387.200 231.511,387.200 226.000 C 387.200 222.000,387.529 219.200,388.000 219.200 C 388.512 219.200,388.800 212.000,388.800 199.200 C 388.800 186.400,388.512 179.200,388.000 179.200 C 387.526 179.200,387.200 176.267,387.200 172.000 C 387.200 166.133,386.978 164.800,386.000 164.800 C 385.067 164.800,384.800 163.733,384.800 160.000 C 384.800 157.333,384.444 155.200,384.000 155.200 C 383.560 155.200,383.200 153.400,383.200 151.200 C 383.200 148.178,382.907 147.200,382.000 147.200 C 381.133 147.200,380.800 146.311,380.800 144.000 C 380.800 142.240,380.440 140.800,380.000 140.800 C 379.560 140.800,379.200 139.540,379.200 138.000 C 379.200 136.044,378.838 135.200,378.000 135.200 C 377.133 135.200,376.800 134.311,376.800 132.000 C 376.800 130.240,376.440 128.800,376.000 128.800 C 375.560 128.800,375.200 127.900,375.200 126.800 C 375.200 125.556,374.747 124.800,374.000 124.800 C 373.162 124.800,372.800 123.956,372.800 122.000 C 372.800 120.460,372.440 119.200,372.000 119.200 C 371.560 119.200,371.200 118.300,371.200 117.200 C 371.200 115.956,370.747 115.200,370.000 115.200 C 369.253 115.200,368.800 114.444,368.800 113.200 C 368.800 112.100,368.440 111.200,368.000 111.200 C 367.560 111.200,367.200 110.300,367.200 109.200 C 367.200 107.956,366.747 107.200,366.000 107.200 C 365.340 107.200,364.800 106.660,364.800 106.000 C 364.800 105.340,364.440 104.800,364.000 104.800 C 363.560 104.800,363.200 103.900,363.200 102.800 C 363.200 101.556,362.747 100.800,362.000 100.800 C 361.320 100.800,360.800 100.083,360.800 99.143 C 360.800 97.372,359.069 95.200,357.657 95.200 C 357.186 95.200,356.800 94.300,356.800 93.200 C 356.800 92.100,356.440 91.200,356.000 91.200 C 355.560 91.200,355.200 90.660,355.200 90.000 C 355.200 89.340,354.660 88.800,354.000 88.800 C 353.320 88.800,352.800 88.083,352.800 87.143 C 352.800 85.372,351.069 83.200,349.657 83.200 C 349.186 83.200,348.800 82.660,348.800 82.000 C 348.800 81.340,348.440 80.800,348.000 80.800 C 347.560 80.800,347.200 79.900,347.200 78.800 C 347.200 77.700,346.814 76.800,346.343 76.800 C 345.235 76.800,343.200 74.765,343.200 73.657 C 343.200 73.186,342.814 72.800,342.343 72.800 C 341.235 72.800,339.200 70.765,339.200 69.657 C 339.200 69.186,338.814 68.800,338.343 68.800 C 337.235 68.800,335.200 66.765,335.200 65.657 C 335.200 65.186,334.814 64.800,334.343 64.800 C 333.235 64.800,331.200 62.765,331.200 61.657 C 331.200 61.186,330.814 60.800,330.343 60.800 C 329.235 60.800,327.200 58.765,327.200 57.657 C 327.200 57.186,326.814 56.800,326.343 56.800 C 325.235 56.800,323.200 54.765,323.200 53.657 C 323.200 53.186,322.660 52.800,322.000 52.800 C 321.340 52.800,320.800 52.440,320.800 52.000 C 320.800 51.560,319.900 51.200,318.800 51.200 C 317.700 51.200,316.800 50.814,316.800 50.343 C 316.800 49.235,314.765 47.200,313.657 47.200 C 313.186 47.200,312.800 46.660,312.800 46.000 C 312.800 45.320,312.083 44.800,311.143 44.800 C 309.372 44.800,307.200 43.069,307.200 41.657 C 307.200 41.186,306.300 40.800,305.200 40.800 C 304.100 40.800,303.200 40.440,303.200 40.000 C 303.200 39.560,302.660 39.200,302.000 39.200 C 301.340 39.200,300.800 38.660,300.800 38.000 C 300.800 37.253,300.044 36.800,298.800 36.800 C 297.700 36.800,296.800 36.440,296.800 36.000 C 296.800 35.560,295.900 35.200,294.800 35.200 C 293.700 35.200,292.800 34.814,292.800 34.343 C 292.800 32.931,290.628 31.200,288.857 31.200 C 287.917 31.200,287.200 30.680,287.200 30.000 C 287.200 29.253,286.444 28.800,285.200 28.800 C 284.100 28.800,283.200 28.440,283.200 28.000 C 283.200 27.560,282.300 27.200,281.200 27.200 C 279.956 27.200,279.200 26.747,279.200 26.000 C 279.200 25.133,278.311 24.800,276.000 24.800 C 274.240 24.800,272.800 24.440,272.800 24.000 C 272.800 23.560,271.900 23.200,270.800 23.200 C 269.556 23.200,268.800 22.747,268.800 22.000 C 268.800 21.162,267.956 20.800,266.000 20.800 C 264.460 20.800,263.200 20.440,263.200 20.000 C 263.200 19.560,261.760 19.200,260.000 19.200 C 257.689 19.200,256.800 18.867,256.800 18.000 C 256.800 17.162,255.956 16.800,254.000 16.800 C 252.460 16.800,251.200 16.440,251.200 16.000 C 251.200 15.560,249.400 15.200,247.200 15.200 C 244.178 15.200,243.200 14.907,243.200 14.000 C 243.200 13.056,242.089 12.800,238.000 12.800 C 235.067 12.800,232.800 12.451,232.800 12.000 C 232.800 11.529,230.000 11.200,226.000 11.200 C 220.489 11.200,219.200 10.973,219.200 10.000 C 219.200 8.965,216.444 8.800,199.200 8.800 C 181.956 8.800,179.200 8.965,179.200 10.000 M246.311 115.400 C 316.603 186.307,329.984 200.035,330.234 201.496 C 330.447 202.743,321.044 212.904,318.210 214.491 C 317.476 214.901,314.991 213.377,310.755 209.919 C 303.764 204.212,291.860 196.103,284.400 191.965 C 277.793 188.300,268.922 184.000,267.968 184.000 C 267.534 184.000,266.553 183.657,265.789 183.239 C 257.081 178.467,236.942 173.500,217.109 171.233 C 192.322 168.400,158.843 173.234,136.000 182.943 C 129.123 185.867,112.000 194.691,112.000 195.313 C 112.000 195.691,111.636 196.000,111.191 196.000 C 110.476 196.000,102.415 201.199,99.200 203.734 C 98.540 204.255,95.246 206.867,91.881 209.540 C 84.246 215.604,84.922 215.682,77.017 207.818 C 69.033 199.876,69.014 199.660,75.762 193.386 C 87.685 182.299,179.487 91.825,195.480 75.400 C 198.158 72.650,200.653 70.400,201.025 70.400 C 201.397 70.400,221.776 90.650,246.311 115.400 M198.734 116.152 C 195.872 118.353,173.709 137.405,171.879 139.239 C 171.153 139.967,168.906 141.917,166.887 143.571 C 164.868 145.226,163.414 146.899,163.655 147.290 C 164.253 148.256,171.398 148.189,174.019 147.193 C 175.187 146.749,181.494 145.972,188.034 145.467 C 204.351 144.207,217.790 145.404,231.816 149.368 C 239.906 151.654,240.554 149.127,233.400 143.186 C 230.650 140.902,226.420 137.174,224.000 134.901 C 221.580 132.628,217.080 128.615,214.000 125.984 C 210.920 123.353,207.849 120.660,207.176 120.000 C 206.503 119.340,204.853 117.801,203.510 116.579 L 201.069 114.358 198.734 116.152 M215.200 189.203 C 226.472 190.340,229.560 190.864,239.600 193.337 C 245.866 194.881,249.672 196.031,251.389 196.898 C 252.153 197.284,253.179 197.600,253.668 197.600 C 258.325 197.600,281.057 210.174,294.547 220.211 C 305.413 228.295,305.353 227.147,295.449 237.535 C 285.667 247.795,286.438 247.556,279.417 242.495 C 276.438 240.347,271.840 237.408,269.200 235.964 C 266.560 234.520,263.140 232.631,261.600 231.766 C 255.686 228.443,239.430 222.720,230.800 220.923 C 219.307 218.530,214.485 218.056,201.600 218.056 C 188.140 218.056,183.658 218.541,171.200 221.341 C 153.185 225.391,133.759 234.515,119.292 245.722 C 116.651 247.768,117.281 248.158,107.356 238.342 C 97.089 228.189,97.138 228.321,102.200 224.254 C 104.290 222.574,106.180 221.018,106.400 220.795 C 113.112 214.007,137.684 200.997,154.000 195.594 C 172.441 189.488,194.844 187.148,215.200 189.203 M218.209 237.198 C 222.494 237.857,227.260 238.732,228.800 239.142 C 237.037 241.338,241.280 242.679,241.960 243.303 C 242.378 243.686,243.210 244.000,243.809 244.000 C 247.779 244.000,271.212 257.664,271.186 259.963 C 271.171 261.282,252.591 280.800,251.351 280.800 C 250.946 280.800,249.750 280.119,248.693 279.287 C 246.972 277.934,243.962 276.156,236.400 272.026 C 234.152 270.798,231.018 269.615,223.779 267.263 C 213.776 264.012,192.813 264.030,182.467 267.298 C 176.908 269.054,169.166 272.318,166.216 274.148 C 164.575 275.167,163.029 276.000,162.782 276.000 C 162.534 276.000,160.382 277.440,158.000 279.200 C 152.017 283.620,152.064 283.639,140.611 272.212 C 129.472 261.097,129.596 261.291,132.200 259.014 C 151.141 242.450,189.346 232.760,218.209 237.198 M211.267 285.353 C 226.704 293.054,225.797 314.910,209.784 321.083 C 190.696 328.442,174.810 303.100,189.730 289.093 C 195.298 283.866,204.932 282.193,211.267 285.353 " stroke="none" fill="#1367a7" fill-rule="evenodd"></path></g></svg>
