<?xml version="1.0" encoding="UTF-8" ?>
<!DOCTYPE svg PUBLIC "-//W3C//DTD SVG 1.1//EN" "http://www.w3.org/Graphics/SVG/1.1/DTD/svg11.dtd">
<svg width="500pt" height="500pt" viewBox="0 0 500 500" version="1.1" xmlns="http://www.w3.org/2000/svg">
<g id="#009900ff">
<path fill="#009900" opacity="1.00" d=" M 225.56 2.85 C 267.77 -0.68 310.88 6.83 349.27 24.78 C 401.48 48.94 444.55 92.12 468.53 144.41 C 487.91 186.14 494.91 233.42 488.91 279.02 C 484.46 313.38 472.54 346.75 454.21 376.16 C 436.43 404.83 412.64 429.74 384.85 448.87 C 353.70 470.37 317.49 484.49 279.98 489.65 C 237.84 495.49 194.13 490.39 154.68 474.35 C 96.42 451.25 48.04 404.66 22.49 347.46 C 3.56 305.61 -3.01 258.37 3.37 212.91 C 9.85 165.52 30.82 120.30 62.59 84.56 C 103.78 37.78 163.37 7.70 225.56 2.85 M 158.73 106.05 C 149.08 108.13 140.41 113.56 133.50 120.51 C 126.36 127.76 117.88 134.12 113.31 143.48 C 103.76 161.27 106.28 184.46 119.14 199.97 C 127.68 209.36 136.58 218.41 145.30 227.63 C 145.55 227.90 146.06 228.45 146.31 228.72 C 151.07 234.07 156.44 238.86 160.96 244.42 L 161.68 244.38 L 161.40 245.53 L 162.56 245.38 L 162.49 246.52 L 163.63 246.43 L 163.49 247.16 C 163.83 247.50 164.51 248.20 164.84 248.54 L 165.68 248.48 L 165.42 249.88 L 166.75 249.03 L 166.41 250.02 C 170.60 252.74 174.40 256.12 179.05 258.08 C 190.47 263.50 203.90 264.14 215.92 260.39 C 217.77 259.67 220.52 259.68 221.04 257.29 C 214.86 251.55 209.29 245.20 203.35 239.21 L 203.60 238.87 C 203.22 238.51 202.46 237.78 202.09 237.41 L 201.32 237.72 L 201.62 236.34 L 200.82 236.70 C 200.48 236.31 199.80 235.54 199.46 235.15 L 199.51 234.90 C 185.26 220.68 171.69 205.77 157.64 191.35 C 152.11 185.97 149.07 177.68 151.45 170.12 C 153.07 162.89 159.22 158.20 164.40 153.46 C 172.70 146.33 186.29 147.33 193.63 155.39 C 215.23 177.87 236.65 200.53 258.17 223.09 C 267.97 204.29 264.09 179.71 249.43 164.50 C 241.44 156.52 233.97 148.03 226.02 140.00 C 218.74 132.61 211.98 124.70 204.45 117.56 C 192.28 106.59 174.64 102.05 158.73 106.05 M 197.73 183.67 C 194.52 185.30 192.22 188.18 189.59 190.56 C 187.75 192.45 185.40 194.13 184.73 196.83 C 184.08 200.25 185.33 203.77 187.57 206.35 C 219.70 240.23 251.95 273.98 284.13 307.82 C 286.14 309.82 288.93 310.97 291.74 311.20 C 295.96 310.81 298.56 307.11 301.48 304.49 C 303.40 302.46 305.86 300.76 307.01 298.13 C 308.28 294.23 306.52 290.04 303.82 287.19 C 271.86 253.79 240.13 220.18 208.12 186.82 C 205.56 183.93 201.48 182.49 197.73 183.67 M 271.61 235.00 C 271.49 235.51 271.27 236.52 271.16 237.03 C 277.81 243.64 284.46 250.28 290.64 257.34 C 305.83 272.86 320.74 288.66 335.66 304.44 C 343.20 312.01 342.98 325.09 335.92 332.90 C 331.16 337.82 326.18 343.27 319.26 344.95 C 311.31 347.10 302.57 343.92 297.22 337.81 C 276.16 315.48 254.78 293.46 233.83 271.03 C 226.43 285.32 226.86 302.82 233.67 317.25 C 236.85 323.16 241.02 328.45 245.86 333.10 C 258.80 346.81 271.79 360.49 284.90 374.05 C 294.36 384.12 308.18 389.86 321.98 389.56 C 334.99 389.51 347.88 384.20 357.08 374.98 C 364.02 368.00 372.22 362.03 377.21 353.35 C 387.09 337.37 386.70 316.02 376.93 300.08 C 372.81 292.92 366.30 287.67 360.89 281.55 C 354.87 274.76 348.17 268.60 342.26 261.71 C 333.19 253.14 325.72 242.35 314.22 236.77 C 307.82 233.39 300.61 232.17 293.51 231.43 C 286.03 231.10 278.74 233.05 271.61 235.00 Z" />
</g>
<g id="#ffffffff">
<path fill="#ffffff" opacity="1.00" d=" M 158.73 106.05 C 174.64 102.05 192.28 106.59 204.45 117.56 C 211.98 124.70 218.74 132.61 226.02 140.00 C 233.97 148.03 241.44 156.52 249.43 164.50 C 264.09 179.71 267.97 204.29 258.17 223.09 C 236.65 200.53 215.23 177.87 193.63 155.39 C 186.29 147.33 172.70 146.33 164.40 153.46 C 159.22 158.20 153.07 162.89 151.45 170.12 C 149.07 177.68 152.11 185.97 157.64 191.35 C 171.69 205.77 185.26 220.68 199.51 234.90 L 199.46 235.15 C 199.80 235.54 200.48 236.31 200.82 236.70 L 201.62 236.34 L 201.32 237.72 L 202.09 237.41 C 202.46 237.78 203.22 238.51 203.60 238.87 L 203.35 239.21 C 209.29 245.20 214.86 251.55 221.04 257.29 C 220.52 259.68 217.77 259.67 215.92 260.39 C 203.90 264.14 190.47 263.50 179.05 258.08 C 174.40 256.12 170.60 252.74 166.41 250.02 L 166.75 249.03 L 165.42 249.88 L 165.68 248.48 L 164.84 248.54 C 164.51 248.20 163.83 247.50 163.49 247.16 L 163.63 246.43 L 162.49 246.52 L 162.56 245.38 L 161.40 245.53 L 161.68 244.38 L 160.96 244.42 C 156.44 238.86 151.07 234.07 146.31 228.72 C 146.06 228.45 145.55 227.90 145.30 227.63 C 136.58 218.41 127.68 209.36 119.14 199.97 C 106.28 184.46 103.76 161.27 113.31 143.48 C 117.88 134.12 126.36 127.76 133.50 120.51 C 140.41 113.56 149.08 108.13 158.73 106.05 Z" />
<path fill="#ffffff" opacity="1.00" d=" M 197.73 183.67 C 201.48 182.49 205.56 183.93 208.12 186.82 C 240.13 220.18 271.86 253.79 303.82 287.19 C 306.52 290.04 308.28 294.23 307.01 298.13 C 305.86 300.76 303.40 302.46 301.48 304.49 C 298.56 307.11 295.96 310.81 291.74 311.20 C 288.93 310.97 286.14 309.82 284.13 307.82 C 251.95 273.98 219.70 240.23 187.57 206.35 C 185.33 203.77 184.08 200.25 184.73 196.83 C 185.40 194.13 187.75 192.45 189.59 190.56 C 192.22 188.18 194.52 185.30 197.73 183.67 Z" />
<path fill="#ffffff" opacity="1.00" d=" M 271.61 235.00 C 278.74 233.05 286.03 231.10 293.51 231.43 C 300.61 232.17 307.82 233.39 314.22 236.77 C 325.72 242.35 333.19 253.14 342.26 261.71 C 348.17 268.60 354.87 274.76 360.89 281.55 C 366.30 287.67 372.81 292.92 376.93 300.08 C 386.70 316.02 387.09 337.37 377.21 353.35 C 372.22 362.03 364.02 368.00 357.08 374.98 C 347.88 384.20 334.99 389.51 321.98 389.56 C 308.18 389.86 294.36 384.12 284.90 374.05 C 271.79 360.49 258.80 346.81 245.86 333.10 C 241.02 328.45 236.85 323.16 233.67 317.25 C 226.86 302.82 226.43 285.32 233.83 271.03 C 254.78 293.46 276.16 315.48 297.22 337.81 C 302.57 343.92 311.31 347.10 319.26 344.95 C 326.18 343.27 331.16 337.82 335.92 332.90 C 342.98 325.09 343.20 312.01 335.66 304.44 C 320.74 288.66 305.83 272.86 290.64 257.34 C 284.46 250.28 277.81 243.64 271.16 237.03 C 271.27 236.52 271.49 235.51 271.61 235.00 Z" />
</g>
</svg>
