<?xml version="1.0" encoding="UTF-8" ?>
<!DOCTYPE svg PUBLIC "-//W3C//DTD SVG 1.1//EN" "http://www.w3.org/Graphics/SVG/1.1/DTD/svg11.dtd">
<svg width="426pt" height="426pt" viewBox="0 0 426 426" version="1.1" xmlns="http://www.w3.org/2000/svg">
<g id="#0b486bff">
<path fill="#0b486b" opacity="1.00" d=" M 207.76 0.00 L 218.14 0.00 C 251.63 0.91 284.93 9.58 314.36 25.63 C 347.70 43.69 376.08 70.78 395.60 103.30 C 414.61 134.69 425.02 171.09 426.00 207.75 L 426.00 218.14 C 424.90 264.91 407.97 311.14 378.29 347.34 C 352.74 378.78 318.09 402.79 279.56 415.38 C 259.79 421.94 239.04 425.34 218.24 426.00 L 207.91 426.00 C 175.15 425.12 142.57 416.82 113.61 401.43 C 80.28 383.82 51.77 357.22 31.91 325.18 C 11.95 293.22 0.99 255.86 0.00 218.23 L 0.00 206.67 C 1.06 177.32 7.85 148.14 20.55 121.64 C 39.44 81.75 71.09 48.11 109.68 26.71 C 139.57 10.00 173.56 0.94 207.76 0.00 M 155.13 90.14 C 137.51 105.73 126.43 128.46 125.22 151.98 C 124.34 166.40 129.00 180.34 133.13 193.95 C 144.57 227.65 159.55 260.01 174.95 292.04 C 184.91 312.54 195.22 332.86 205.89 352.99 C 207.34 355.54 209.26 358.11 212.07 359.25 C 216.85 360.14 219.57 355.15 221.54 351.65 C 245.39 305.74 268.73 259.43 287.39 211.13 C 292.83 196.07 298.35 180.90 300.92 165.04 C 301.41 162.22 301.52 159.35 301.39 156.50 C 301.90 125.02 283.48 94.30 256.03 79.08 C 243.25 71.94 228.65 67.69 213.95 67.88 C 192.44 67.39 171.10 75.88 155.13 90.14 Z" />
<path fill="#0b486b" opacity="1.00" d=" M 189.68 99.75 C 194.12 98.19 198.31 95.75 202.98 94.99 C 205.02 94.68 207.50 95.47 208.20 97.60 C 212.83 110.61 217.20 123.71 221.87 136.70 C 221.71 139.15 219.80 141.61 217.40 142.43 C 212.79 144.33 208.22 146.44 203.33 147.56 C 201.19 147.76 200.71 150.21 200.89 151.97 C 201.28 157.55 203.30 162.83 205.15 168.05 C 207.58 174.39 210.13 180.71 213.29 186.72 C 215.10 189.89 216.97 193.60 220.80 194.62 C 225.32 191.41 230.70 189.85 235.76 187.74 C 239.29 186.30 244.29 187.37 245.54 191.37 C 249.59 201.65 253.75 211.89 257.77 222.18 C 259.45 226.69 257.78 233.31 252.68 234.74 C 246.60 236.93 240.74 240.53 234.06 240.30 C 224.38 240.08 215.62 234.74 208.99 228.00 C 196.84 215.90 189.13 200.20 182.66 184.52 C 177.48 171.99 173.62 158.92 171.29 145.55 C 171.23 143.23 170.98 140.92 170.66 138.63 C 169.56 136.07 170.00 133.25 170.14 130.57 C 171.82 125.27 171.78 119.48 174.40 114.43 C 177.26 107.74 182.74 102.14 189.68 99.75 Z" />
</g>
<g id="#ffffffff">
<path fill="#ffffff" opacity="1.00" d=" M 155.13 90.14 C 171.10 75.88 192.44 67.39 213.95 67.88 C 228.65 67.69 243.25 71.94 256.03 79.08 C 283.48 94.30 301.90 125.02 301.39 156.50 C 301.52 159.35 301.41 162.22 300.92 165.04 C 298.35 180.90 292.83 196.07 287.39 211.13 C 268.73 259.43 245.39 305.74 221.54 351.65 C 219.57 355.15 216.85 360.14 212.07 359.25 C 209.26 358.11 207.34 355.54 205.89 352.99 C 195.22 332.86 184.91 312.54 174.95 292.04 C 159.55 260.01 144.57 227.65 133.13 193.95 C 129.00 180.34 124.34 166.40 125.22 151.98 C 126.43 128.46 137.51 105.73 155.13 90.14 M 189.68 99.75 C 182.74 102.14 177.26 107.74 174.40 114.43 C 171.78 119.48 171.82 125.27 170.14 130.57 C 170.00 133.25 169.56 136.07 170.66 138.63 C 170.98 140.92 171.23 143.23 171.29 145.55 C 173.62 158.92 177.48 171.99 182.66 184.52 C 189.13 200.20 196.84 215.90 208.99 228.00 C 215.62 234.74 224.38 240.08 234.06 240.30 C 240.74 240.53 246.60 236.93 252.68 234.74 C 257.78 233.31 259.45 226.69 257.77 222.18 C 253.75 211.89 249.59 201.65 245.54 191.37 C 244.29 187.37 239.29 186.30 235.76 187.74 C 230.70 189.85 225.32 191.41 220.80 194.62 C 216.97 193.60 215.10 189.89 213.29 186.72 C 210.13 180.71 207.58 174.39 205.15 168.05 C 203.30 162.83 201.28 157.55 200.89 151.97 C 200.71 150.21 201.19 147.76 203.33 147.56 C 208.22 146.44 212.79 144.33 217.40 142.43 C 219.80 141.61 221.71 139.15 221.87 136.70 C 217.20 123.71 212.83 110.61 208.20 97.60 C 207.50 95.47 205.02 94.68 202.98 94.99 C 198.31 95.75 194.12 98.19 189.68 99.75 Z" />
</g>
</svg>
