<?xml version="1.0" encoding="UTF-8" ?>
<!DOCTYPE svg PUBLIC "-//W3C//DTD SVG 1.1//EN" "http://www.w3.org/Graphics/SVG/1.1/DTD/svg11.dtd">
<svg width="173pt" height="173pt" viewBox="0 0 173 173" version="1.1" xmlns="http://www.w3.org/2000/svg">
<g id="#639bd3ff">
<path fill="#639bd3" opacity="1.00" d=" M 83.25 0.00 L 87.46 0.00 C 106.99 0.19 126.36 7.22 141.41 19.67 C 160.52 35.22 172.30 59.22 173.00 83.84 L 173.00 89.59 C 172.24 109.09 164.82 128.28 151.98 143.00 C 136.10 161.61 112.01 172.82 87.55 173.00 L 83.56 173.00 C 63.79 172.27 44.33 164.67 29.50 151.54 C 11.71 136.14 0.90 113.23 0.00 89.74 L 0.00 84.01 C 0.64 60.50 11.31 37.48 28.97 21.93 C 43.79 8.58 63.35 0.84 83.25 0.00 M 63.02 44.84 C 56.69 47.23 49.97 50.95 47.64 57.75 C 45.24 63.56 47.63 69.89 50.88 74.83 C 57.29 73.96 63.58 72.18 69.52 69.61 C 69.88 65.55 69.15 61.18 70.40 57.32 C 74.45 54.96 79.50 55.23 84.07 54.99 C 90.49 55.33 97.55 55.00 103.17 58.66 C 102.72 62.02 102.67 65.42 102.70 68.81 C 107.93 72.18 113.76 76.03 120.28 75.19 C 125.78 73.77 128.39 67.17 126.97 61.99 C 125.54 56.86 122.62 51.79 117.87 49.09 C 101.30 40.02 80.75 37.89 63.02 44.84 M 80.39 69.59 C 71.76 71.33 63.78 76.67 59.27 84.29 C 53.57 93.33 53.06 105.32 57.98 114.82 C 64.53 128.16 80.93 135.46 95.24 131.36 C 109.50 127.92 120.15 113.70 119.11 99.02 C 118.62 88.56 112.49 78.62 103.41 73.42 C 96.58 69.21 88.20 68.32 80.39 69.59 Z" />
<path fill="#639bd3" opacity="1.00" d=" M 82.41 79.62 C 94.64 76.73 107.99 86.32 108.68 98.95 C 109.73 109.07 102.43 118.99 92.64 121.43 C 83.04 124.31 72.08 119.38 67.47 110.58 C 65.06 106.21 64.60 100.99 65.51 96.13 C 67.26 87.93 74.17 81.19 82.41 79.62 M 82.28 89.28 C 77.57 91.05 74.18 95.91 74.45 100.97 C 74.32 107.47 80.52 113.29 87.00 112.85 C 94.26 113.30 100.53 105.93 99.29 98.84 C 98.32 91.17 89.34 86.24 82.28 89.28 Z" />
</g>
<g id="#ffffffff">
<path fill="#ffffff" opacity="1.00" d=" M 63.02 44.84 C 80.75 37.89 101.30 40.02 117.87 49.09 C 122.62 51.79 125.54 56.86 126.97 61.99 C 128.39 67.17 125.78 73.77 120.28 75.19 C 113.76 76.03 107.93 72.18 102.70 68.81 C 102.67 65.42 102.72 62.02 103.17 58.66 C 97.55 55.00 90.49 55.33 84.07 54.99 C 79.50 55.23 74.45 54.96 70.40 57.32 C 69.15 61.18 69.88 65.55 69.52 69.61 C 63.58 72.18 57.29 73.96 50.88 74.83 C 47.63 69.89 45.24 63.56 47.64 57.75 C 49.97 50.95 56.69 47.23 63.02 44.84 Z" />
<path fill="#ffffff" opacity="1.00" d=" M 80.39 69.59 C 88.20 68.32 96.58 69.21 103.41 73.42 C 112.49 78.62 118.62 88.56 119.11 99.02 C 120.15 113.70 109.50 127.92 95.24 131.36 C 80.93 135.46 64.53 128.16 57.98 114.82 C 53.06 105.32 53.57 93.33 59.27 84.29 C 63.78 76.67 71.76 71.33 80.39 69.59 M 82.41 79.62 C 74.17 81.19 67.26 87.93 65.51 96.13 C 64.60 100.99 65.06 106.21 67.47 110.58 C 72.08 119.38 83.04 124.31 92.64 121.43 C 102.43 118.99 109.73 109.07 108.68 98.95 C 107.99 86.32 94.64 76.73 82.41 79.62 Z" />
<path fill="#ffffff" opacity="1.00" d=" M 82.28 89.28 C 89.34 86.24 98.32 91.17 99.29 98.84 C 100.53 105.93 94.26 113.30 87.00 112.85 C 80.52 113.29 74.32 107.47 74.45 100.97 C 74.18 95.91 77.57 91.05 82.28 89.28 Z" />
</g>
</svg>
