<?xml version="1.0" encoding="UTF-8" ?>
<!DOCTYPE svg PUBLIC "-//W3C//DTD SVG 1.1//EN" "http://www.w3.org/Graphics/SVG/1.1/DTD/svg11.dtd">
<svg width="400pt" height="400pt" viewBox="0 0 400 400" version="1.1" xmlns="http://www.w3.org/2000/svg">
<g id="#1aa1f3ff">
<path fill="#1aa1f3" opacity="1.00" d=" M 194.27 0.00 L 204.66 0.00 C 239.24 0.99 273.54 10.96 303.09 28.99 C 329.52 45.02 352.12 67.31 368.53 93.52 C 387.01 122.93 397.62 157.25 398.85 191.98 C 400.09 223.64 393.61 255.56 380.11 284.23 C 359.46 328.68 321.72 364.82 276.43 383.58 C 245.21 396.68 210.61 401.58 176.97 397.72 C 141.44 393.75 107.10 379.94 78.67 358.26 C 56.12 341.10 37.27 319.09 23.87 294.11 C 8.88 266.45 0.74 235.19 0.00 203.75 L 0.00 194.32 C 0.75 170.96 5.36 147.70 14.04 125.98 C 28.16 90.15 52.98 58.65 84.47 36.49 C 116.42 13.84 155.15 1.09 194.27 0.00 M 84.07 130.92 C 83.99 151.28 84.05 171.65 84.03 192.02 C 84.20 218.16 83.67 244.32 84.27 270.45 C 115.24 244.64 146.67 219.36 177.79 193.73 C 180.80 191.17 184.21 189.04 186.85 186.08 C 157.21 165.41 127.61 144.69 97.95 124.04 C 92.71 120.05 83.84 124.22 84.07 130.92 M 297.85 126.93 C 279.60 139.65 261.40 152.46 243.12 165.14 C 242.01 165.76 241.26 166.73 240.68 167.82 C 240.63 167.43 240.53 166.65 240.48 166.26 C 239.33 168.21 237.26 169.23 235.48 170.48 C 185.67 205.34 135.79 240.10 86.00 274.99 C 86.23 275.51 86.69 276.56 86.91 277.08 C 88.83 277.99 90.81 278.97 93.00 278.79 C 163.39 278.74 233.69 278.96 304.03 278.78 C 306.89 278.68 310.03 279.05 312.51 277.29 C 314.52 275.44 316.05 272.83 315.89 270.01 C 315.90 223.99 315.89 177.97 315.90 131.95 C 316.51 127.00 311.96 122.27 307.01 122.55 C 303.41 122.32 300.63 125.04 297.85 126.93 Z" />
</g>
<g id="#fffffdff">
<path fill="#fffffd" opacity="1.00" d=" M 84.07 130.92 C 83.84 124.22 92.71 120.05 97.95 124.04 C 127.61 144.69 157.21 165.41 186.85 186.08 C 184.21 189.04 180.80 191.17 177.79 193.73 C 146.67 219.36 115.24 244.64 84.27 270.45 C 83.67 244.32 84.20 218.16 84.03 192.02 C 84.05 171.65 83.99 151.28 84.07 130.92 Z" />
<path fill="#fffffd" opacity="1.00" d=" M 297.85 126.93 C 300.63 125.04 303.41 122.32 307.01 122.55 C 311.96 122.27 316.51 127.00 315.90 131.95 C 315.89 177.97 315.90 223.99 315.89 270.01 C 316.05 272.83 314.52 275.44 312.51 277.29 C 310.03 279.05 306.89 278.68 304.03 278.78 C 233.69 278.96 163.39 278.74 93.00 278.79 C 90.81 278.97 88.83 277.99 86.91 277.08 C 86.69 276.56 86.23 275.51 86.00 274.99 C 135.79 240.10 185.67 205.34 235.48 170.48 C 237.26 169.23 239.33 168.21 240.48 166.26 C 240.53 166.65 240.63 167.43 240.68 167.82 C 241.26 166.73 242.01 165.76 243.12 165.14 C 261.40 152.46 279.60 139.65 297.85 126.93 Z" />
</g>
</svg>
