<?xml version="1.0" encoding="UTF-8" ?>
<!DOCTYPE svg PUBLIC "-//W3C//DTD SVG 1.1//EN" "http://www.w3.org/Graphics/SVG/1.1/DTD/svg11.dtd">
<svg width="72pt" height="71pt" viewBox="0 0 72 71" version="1.1" xmlns="http://www.w3.org/2000/svg">
<g id="#507cbeff">
<path fill="#507cbe" opacity="1.00" d=" M 33.71 0.00 L 38.17 0.00 C 45.19 0.47 52.07 2.97 57.63 7.29 C 70.60 16.88 75.26 35.76 68.26 50.28 C 61.81 64.91 44.69 73.64 29.05 70.21 C 12.06 67.18 -0.89 50.29 0.64 33.08 C 1.41 15.80 16.46 0.83 33.71 0.00 M 33.33 19.26 C 30.40 21.78 31.34 26.03 31.15 29.42 C 29.93 29.42 28.71 29.43 27.49 29.44 C 27.49 31.18 27.49 32.93 27.48 34.68 C 28.70 34.69 29.93 34.70 31.16 34.72 C 31.18 40.87 31.15 47.02 31.17 53.17 C 33.47 53.16 35.76 53.16 38.05 53.16 C 38.07 47.01 38.05 40.86 38.06 34.71 C 39.86 34.69 41.65 34.70 43.45 34.69 C 43.56 32.93 43.70 31.18 43.85 29.43 C 41.90 29.42 39.96 29.43 38.01 29.43 C 38.11 27.61 38.13 25.80 38.12 23.98 C 39.93 23.26 41.88 23.38 43.78 23.60 C 44.01 21.80 44.27 20.00 44.55 18.20 C 40.87 17.98 36.49 16.67 33.33 19.26 Z" />
</g>
<g id="#ffffffff">
<path fill="#ffffff" opacity="1.00" d=" M 33.33 19.26 C 36.49 16.67 40.87 17.98 44.55 18.20 C 44.27 20.00 44.01 21.80 43.78 23.60 C 41.88 23.38 39.93 23.26 38.12 23.98 C 38.13 25.80 38.11 27.61 38.01 29.43 C 39.96 29.43 41.90 29.42 43.85 29.43 C 43.70 31.18 43.56 32.93 43.45 34.69 C 41.65 34.70 39.86 34.69 38.06 34.71 C 38.05 40.86 38.07 47.01 38.05 53.16 C 35.76 53.16 33.47 53.16 31.17 53.17 C 31.15 47.02 31.18 40.87 31.16 34.72 C 29.93 34.70 28.70 34.69 27.48 34.68 C 27.49 32.93 27.49 31.18 27.49 29.44 C 28.71 29.43 29.93 29.42 31.15 29.42 C 31.34 26.03 30.40 21.78 33.33 19.26 Z" />
</g>
</svg>
