<?xml version="1.0" encoding="UTF-8" ?>
<!DOCTYPE svg PUBLIC "-//W3C//DTD SVG 1.1//EN" "http://www.w3.org/Graphics/SVG/1.1/DTD/svg11.dtd">
<svg width="110pt" height="108pt" viewBox="0 0 110 108" version="1.1" xmlns="http://www.w3.org/2000/svg">
<g id="#0ba35bff">
<path fill="#0ba35b" opacity="1.00" d=" M 17.37 0.00 L 73.87 0.00 C 74.28 8.65 73.77 17.32 74.11 25.97 C 76.55 29.23 79.54 32.02 82.23 35.06 C 63.50 34.94 44.76 35.01 26.02 35.02 C 25.96 47.70 26.03 60.39 25.99 73.08 C 21.37 74.06 16.62 73.92 12.01 72.99 C 12.03 51.31 11.96 29.62 12.01 7.94 C 11.77 4.36 14.65 1.79 17.37 0.00 Z" />
</g>
<g id="#7bcfa9ff">
<path fill="#7bcfa9" opacity="1.00" d=" M 73.87 0.00 L 74.53 0.00 C 82.90 8.78 91.79 17.07 100.11 25.91 C 91.44 26.06 82.77 26.05 74.11 25.97 C 73.77 17.32 74.28 8.65 73.87 0.00 Z" />
</g>
<g id="#056f3dff">
<path fill="#056f3d" opacity="1.00" d=" M 74.11 25.97 C 82.77 26.05 91.44 26.06 100.11 25.91 C 99.89 34.64 100.05 43.37 99.98 52.10 C 95.21 47.75 90.96 42.83 85.97 38.71 C 85.88 37.58 85.78 36.45 85.68 35.31 C 84.53 35.22 83.38 35.13 82.23 35.06 C 79.54 32.02 76.55 29.23 74.11 25.97 Z" />
</g>
<g id="#e6f5eeff">
<path fill="#e6f5ee" opacity="1.00" d=" M 26.02 35.02 C 44.76 35.01 63.50 34.94 82.23 35.06 C 83.38 35.13 84.53 35.22 85.68 35.31 C 85.78 36.45 85.88 37.58 85.97 38.71 C 86.08 52.80 85.98 66.89 85.98 80.98 C 65.99 81.01 46.00 81.05 26.01 80.98 C 25.97 78.35 25.97 75.71 25.99 73.08 C 26.03 60.39 25.96 47.70 26.02 35.02 M 30.01 39.03 C 29.99 42.35 29.99 45.66 30.01 48.98 C 34.67 49.02 39.33 49.02 43.99 48.98 C 44.01 45.66 44.01 42.34 43.99 39.02 C 39.33 38.98 34.67 38.98 30.01 39.03 M 48.02 39.02 C 47.99 42.34 47.99 45.66 48.01 48.98 C 59.34 49.01 70.67 49.01 82.00 48.99 C 82.01 45.66 82.01 42.34 82.00 39.01 C 70.67 38.99 59.34 38.99 48.02 39.02 M 30.01 53.02 C 29.99 56.34 29.99 59.66 30.00 62.98 C 34.67 63.02 39.33 63.02 43.99 62.98 C 44.01 59.66 44.01 56.34 43.99 53.02 C 39.33 52.98 34.67 52.98 30.01 53.02 M 48.01 53.02 C 47.99 56.34 47.99 59.66 48.01 62.98 C 59.34 63.01 70.67 63.01 82.00 62.99 C 82.01 59.66 82.01 56.34 82.00 53.01 C 70.67 52.99 59.34 52.99 48.01 53.02 M 30.01 67.02 C 29.99 70.34 29.99 73.66 30.00 76.98 C 34.67 77.02 39.33 77.02 44.00 76.98 C 44.01 73.66 44.01 70.34 43.99 67.02 C 39.33 66.98 34.67 66.98 30.01 67.02 M 48.01 67.02 C 47.99 70.34 47.99 73.66 48.01 76.99 C 59.34 77.02 70.67 77.01 82.00 76.99 C 82.01 73.66 82.01 70.34 82.00 67.01 C 70.67 66.99 59.34 66.99 48.01 67.02 Z" />
</g>
<g id="#0aa25aff">
<path fill="#0aa25a" opacity="1.00" d=" M 30.01 39.03 C 34.67 38.98 39.33 38.98 43.99 39.02 C 44.01 42.34 44.01 45.66 43.99 48.98 C 39.33 49.02 34.67 49.02 30.01 48.98 C 29.99 45.66 29.99 42.35 30.01 39.03 Z" />
</g>
<g id="#089e57ff">
<path fill="#089e57" opacity="1.00" d=" M 48.02 39.02 C 59.34 38.99 70.67 38.99 82.00 39.01 C 82.01 42.34 82.01 45.66 82.00 48.99 C 70.67 49.01 59.34 49.01 48.01 48.98 C 47.99 45.66 47.99 42.34 48.02 39.02 Z" />
</g>
<g id="#069750ff">
<path fill="#069750" opacity="1.00" d=" M 85.97 38.71 C 90.96 42.83 95.21 47.75 99.98 52.10 C 99.99 68.09 100.04 84.08 99.97 100.06 C 100.19 103.63 97.20 106.05 94.65 108.00 L 17.38 108.00 C 14.80 106.08 11.80 103.64 12.02 100.06 C 11.91 91.04 12.04 82.01 12.01 72.99 C 16.62 73.92 21.37 74.06 25.99 73.08 C 25.97 75.71 25.97 78.35 26.01 80.98 C 46.00 81.05 65.99 81.01 85.98 80.98 C 85.98 66.89 86.08 52.80 85.97 38.71 Z" />
</g>
<g id="#099f58ff">
<path fill="#099f58" opacity="1.00" d=" M 30.01 53.02 C 34.67 52.98 39.33 52.98 43.99 53.02 C 44.01 56.34 44.01 59.66 43.99 62.98 C 39.33 63.02 34.67 63.02 30.00 62.98 C 29.99 59.66 29.99 56.34 30.01 53.02 Z" />
</g>
<g id="#089c55ff">
<path fill="#089c55" opacity="1.00" d=" M 48.01 53.02 C 59.34 52.99 70.67 52.99 82.00 53.01 C 82.01 56.34 82.01 59.66 82.00 62.99 C 70.67 63.01 59.34 63.01 48.01 62.98 C 47.99 59.66 47.99 56.34 48.01 53.02 Z" />
</g>
<g id="#089d55ff">
<path fill="#089d55" opacity="1.00" d=" M 30.01 67.02 C 34.67 66.98 39.33 66.98 43.99 67.02 C 44.01 70.34 44.01 73.66 44.00 76.98 C 39.33 77.02 34.67 77.02 30.00 76.98 C 29.99 73.66 29.99 70.34 30.01 67.02 Z" />
</g>
<g id="#079a53ff">
<path fill="#079a53" opacity="1.00" d=" M 48.01 67.02 C 59.34 66.99 70.67 66.99 82.00 67.01 C 82.01 70.34 82.01 73.66 82.00 76.99 C 70.67 77.01 59.34 77.02 48.01 76.99 C 47.99 73.66 47.99 70.34 48.01 67.02 Z" />
</g>
</svg>
