<?xml version="1.0" encoding="UTF-8" ?>
<!DOCTYPE svg PUBLIC "-//W3C//DTD SVG 1.1//EN" "http://www.w3.org/Graphics/SVG/1.1/DTD/svg11.dtd">
<svg width="498pt" height="498pt" viewBox="0 0 498 498" version="1.1" xmlns="http://www.w3.org/2000/svg">
<g id="#f79b22ff">
<path fill="#f79b22" opacity="1.00" d=" M 228.17 0.00 L 270.04 0.00 C 273.18 1.60 276.80 0.81 280.18 1.20 C 282.45 1.99 284.88 2.04 287.25 2.28 C 289.69 2.89 292.20 3.10 294.65 3.65 C 296.32 3.96 298.00 4.24 299.66 4.65 C 301.33 4.97 303.01 5.26 304.66 5.69 C 305.55 5.88 306.46 6.07 307.36 6.26 C 309.09 6.78 310.86 7.19 312.60 7.69 C 313.94 8.00 315.29 8.31 316.62 8.69 C 317.06 8.84 317.94 9.13 318.38 9.27 C 320.12 9.80 321.88 10.21 323.62 10.74 C 324.06 10.86 324.94 11.10 325.38 11.22 C 326.40 11.60 327.41 11.97 328.44 12.32 C 329.44 12.67 330.44 13.01 331.45 13.34 C 332.50 13.65 333.56 13.96 334.62 14.25 C 335.58 14.79 336.54 15.34 337.51 15.90 C 338.01 15.94 339.02 16.04 339.52 16.09 C 340.50 16.70 341.49 17.31 342.49 17.92 C 342.99 17.96 344.01 18.04 344.51 18.08 C 345.50 18.69 346.48 19.30 347.47 19.91 C 347.98 19.96 348.98 20.06 349.48 20.11 C 350.44 20.66 351.41 21.20 352.39 21.74 C 353.74 22.38 355.08 23.04 356.43 23.71 C 357.76 24.38 359.10 25.05 360.43 25.72 C 361.76 26.38 363.10 27.05 364.43 27.73 C 365.77 28.38 367.12 29.03 368.47 29.68 C 370.57 30.78 372.58 32.04 374.61 33.27 C 376.55 34.39 378.43 35.60 380.39 36.70 C 381.42 37.32 382.44 37.96 383.46 38.62 C 384.45 39.29 385.44 39.97 386.43 40.66 C 387.83 41.54 389.21 42.47 390.63 43.34 C 391.07 43.66 391.95 44.29 392.39 44.61 C 398.45 49.16 404.78 53.42 410.36 58.58 C 412.80 60.12 414.77 62.24 416.77 64.30 C 405.03 61.40 392.32 61.25 381.06 66.07 C 363.23 73.15 350.17 90.84 348.86 110.01 C 347.57 123.44 352.04 136.92 360.22 147.52 C 328.07 195.99 296.17 244.62 264.10 293.15 C 253.14 290.54 241.32 290.63 230.79 294.90 C 224.46 297.31 218.85 301.22 213.77 305.63 C 192.56 293.93 171.37 282.21 150.13 270.57 C 152.21 258.64 150.65 245.97 144.73 235.30 C 137.62 222.18 124.68 212.31 110.04 209.23 C 96.08 206.10 80.91 209.06 69.16 217.22 C 56.34 225.91 47.85 240.62 46.74 256.07 C 45.89 265.05 47.87 274.05 51.35 282.30 C 37.64 295.51 23.81 308.60 10.20 321.91 C 9.98 321.02 9.53 319.25 9.30 318.36 C 9.15 317.93 8.86 317.05 8.72 316.62 C 8.21 314.88 7.81 313.12 7.32 311.39 C 7.00 310.03 6.68 308.68 6.28 307.35 C 6.09 306.44 5.88 305.55 5.68 304.66 C 5.26 303.00 4.98 301.32 4.67 299.64 C 4.15 297.54 3.83 295.40 3.30 293.31 C 3.03 291.27 2.81 289.22 2.30 287.23 C 2.04 284.87 1.98 282.46 1.20 280.20 C 0.91 276.73 1.39 273.11 0.00 269.82 L 0.00 227.96 C 1.59 224.82 0.82 221.20 1.19 217.83 C 1.98 215.55 2.04 213.13 2.30 210.77 C 2.81 208.78 3.03 206.73 3.32 204.70 C 3.75 203.04 4.04 201.34 4.36 199.66 C 4.76 198.00 5.02 196.32 5.30 194.65 C 5.69 193.31 6.02 191.96 6.35 190.62 C 6.71 189.29 7.00 187.94 7.31 186.60 C 7.81 184.87 8.21 183.11 8.73 181.38 C 8.86 180.94 9.13 180.06 9.26 179.62 C 9.79 177.88 10.21 176.12 10.74 174.38 C 10.86 173.94 11.10 173.06 11.22 172.61 C 11.60 171.60 11.97 170.58 12.32 169.56 C 12.67 168.55 13.01 167.55 13.34 166.54 C 13.66 165.49 13.96 164.43 14.25 163.38 C 14.79 162.41 15.34 161.45 15.90 160.49 C 15.94 159.99 16.04 158.98 16.09 158.48 C 16.70 157.49 17.31 156.50 17.92 155.52 C 17.96 155.01 18.04 153.99 18.08 153.49 C 18.69 152.50 19.30 151.51 19.91 150.52 C 19.96 150.02 20.06 149.02 20.11 148.52 C 20.66 147.56 21.20 146.59 21.74 145.62 C 21.99 145.11 22.48 144.08 22.73 143.56 C 23.24 142.51 23.76 141.46 24.27 140.41 C 24.75 139.47 25.24 138.53 25.72 137.59 C 26.38 136.24 27.05 134.91 27.74 133.57 C 28.23 132.52 28.74 131.47 29.23 130.42 C 30.59 127.74 32.19 125.19 33.72 122.61 C 34.55 121.19 35.44 119.82 36.27 118.40 C 37.24 116.69 38.31 115.04 39.31 113.36 C 39.65 112.93 40.32 112.07 40.65 111.64 C 41.29 110.60 41.96 109.57 42.63 108.55 C 43.28 107.54 43.95 106.53 44.62 105.53 C 51.98 95.40 59.62 85.44 68.60 76.69 C 70.07 74.19 72.15 72.10 74.47 70.39 C 78.90 67.26 82.20 62.87 86.33 59.40 C 92.59 54.30 99.01 49.38 105.53 44.62 C 106.53 43.95 107.54 43.29 108.56 42.65 C 109.55 41.97 110.54 41.30 111.55 40.64 C 112.54 39.96 113.54 39.28 114.54 38.63 C 115.56 37.97 116.58 37.31 117.61 36.70 C 119.31 35.75 120.95 34.71 122.62 33.73 C 124.57 32.61 126.45 31.38 128.38 30.23 C 129.44 29.74 130.50 29.25 131.56 28.76 C 132.08 28.49 133.11 27.95 133.62 27.68 C 134.94 27.02 136.26 26.37 137.59 25.73 C 138.53 25.24 139.47 24.75 140.41 24.26 C 141.47 23.76 142.52 23.25 143.58 22.75 C 145.24 21.88 146.91 21.03 148.56 20.12 C 149.05 20.07 150.03 19.96 150.53 19.91 C 151.51 19.30 152.50 18.69 153.49 18.08 C 153.99 18.04 155.01 17.96 155.51 17.92 C 156.50 17.31 157.49 16.70 158.48 16.09 C 158.98 16.04 159.99 15.94 160.49 15.90 C 161.45 15.34 162.41 14.79 163.38 14.24 C 164.44 13.96 165.50 13.65 166.55 13.34 C 167.56 13.01 168.56 12.67 169.56 12.32 C 170.58 11.97 171.60 11.60 172.62 11.22 C 173.06 11.10 173.94 10.86 174.38 10.75 C 176.11 10.21 177.88 9.79 179.62 9.27 C 180.06 9.13 180.94 8.86 181.39 8.73 C 183.11 8.21 184.87 7.81 186.60 7.31 C 187.94 7.00 189.28 6.70 190.61 6.35 C 191.96 6.02 193.31 5.70 194.65 5.32 C 196.33 5.02 198.03 4.73 199.70 4.29 C 200.90 4.09 202.10 3.91 203.31 3.71 C 205.76 3.09 208.29 2.90 210.74 2.28 C 213.11 2.04 215.54 1.98 217.82 1.20 C 221.28 0.91 224.89 1.39 228.17 0.00 Z" />
<path fill="#f79b22" opacity="1.00" d=" M 452.11 103.82 C 453.24 105.39 454.33 106.98 455.36 108.62 C 455.69 109.06 456.33 109.93 456.65 110.37 C 457.52 111.78 458.46 113.15 459.36 114.55 C 460.19 115.80 460.98 117.09 461.74 118.40 C 462.56 119.82 463.45 121.20 464.28 122.62 C 465.62 124.92 467.07 127.15 468.31 129.51 C 468.56 130.04 469.05 131.10 469.30 131.63 C 469.96 132.92 470.61 134.23 471.27 135.54 C 471.52 136.05 472.04 137.08 472.30 137.59 C 473.23 139.47 474.13 141.36 475.07 143.24 C 467.22 138.08 459.21 133.14 451.34 128.00 C 453.26 120.11 453.61 111.82 452.11 103.82 Z" />
</g>
<g id="#ffffffff">
<path fill="#ffffff" opacity="1.00" d=" M 381.06 66.07 C 392.32 61.25 405.03 61.40 416.77 64.30 C 418.23 65.78 419.72 67.22 421.27 68.61 C 424.57 70.59 427.42 73.44 429.40 76.74 C 432.56 80.56 436.84 83.44 439.42 87.73 C 441.13 89.64 443.08 91.39 444.39 93.63 C 445.12 94.54 445.87 95.45 446.62 96.37 C 447.49 97.80 448.55 99.09 449.61 100.39 C 450.38 101.57 451.26 102.68 452.11 103.82 C 453.61 111.82 453.26 120.11 451.34 128.00 C 459.21 133.14 467.22 138.08 475.07 143.24 C 475.64 144.29 476.20 145.34 476.79 146.38 C 477.47 148.05 478.07 149.75 478.68 151.44 C 478.95 151.95 479.50 152.97 479.78 153.48 C 480.02 154.45 480.29 155.41 480.58 156.38 C 480.88 156.90 481.47 157.94 481.76 158.46 C 482.04 159.43 482.34 160.39 482.68 161.35 C 483.45 163.03 484.09 164.77 484.72 166.52 C 485.04 167.56 485.39 168.60 485.78 169.63 C 485.89 170.07 486.09 170.94 486.20 171.37 C 486.60 172.39 486.98 173.41 487.35 174.44 C 487.84 176.16 488.18 177.91 488.72 179.62 C 488.86 180.06 489.15 180.94 489.30 181.38 C 489.70 182.70 490.01 184.05 490.32 185.40 C 490.83 187.13 491.18 188.90 491.68 190.63 L 491.91 191.53 C 472.73 179.22 453.56 166.89 434.33 154.66 C 421.27 165.54 403.04 169.20 386.70 164.76 C 354.54 213.32 322.57 262.01 290.52 310.65 C 298.18 320.31 302.49 332.61 302.04 344.97 C 301.78 362.34 292.05 379.20 277.15 388.12 C 265.02 395.70 249.72 397.72 235.96 393.97 C 221.58 390.14 209.19 379.73 202.77 366.32 C 197.71 356.21 196.67 344.49 198.52 333.43 C 177.39 321.54 156.05 310.02 134.89 298.17 C 126.59 305.64 116.15 310.92 104.96 312.11 C 93.88 313.52 82.47 311.02 72.75 305.58 C 58.02 319.58 43.46 333.73 28.75 347.74 C 26.59 349.77 24.44 351.82 22.57 354.13 L 22.31 353.61 C 21.78 352.55 21.23 351.50 20.69 350.45 C 20.21 349.16 19.81 347.86 19.34 346.58 C 19.07 346.07 18.52 345.04 18.25 344.52 C 17.96 343.54 17.65 342.57 17.31 341.62 C 16.38 339.57 15.62 337.45 14.73 335.39 C 14.19 334.06 13.73 332.71 13.18 331.39 C 13.08 330.95 12.89 330.07 12.80 329.63 C 12.40 328.61 12.03 327.58 11.68 326.55 C 11.32 325.55 10.97 324.54 10.64 323.53 C 10.53 323.12 10.31 322.32 10.20 321.91 C 23.81 308.60 37.64 295.51 51.35 282.30 C 47.87 274.05 45.89 265.05 46.74 256.07 C 47.85 240.62 56.34 225.91 69.16 217.22 C 80.91 209.06 96.08 206.10 110.04 209.23 C 124.68 212.31 137.62 222.18 144.73 235.30 C 150.65 245.97 152.21 258.64 150.13 270.57 C 171.37 282.21 192.56 293.93 213.77 305.63 C 218.85 301.22 224.46 297.31 230.79 294.90 C 241.32 290.63 253.14 290.54 264.10 293.15 C 296.17 244.62 328.07 195.99 360.22 147.52 C 352.04 136.92 347.57 123.44 348.86 110.01 C 350.17 90.84 363.23 73.15 381.06 66.07 Z" />
</g>
<g id="#f05924ff">
<path fill="#f05924" opacity="1.00" d=" M 386.70 164.76 C 403.04 169.20 421.27 165.54 434.33 154.66 C 453.56 166.89 472.73 179.22 491.91 191.53 C 492.15 192.57 492.41 193.60 492.70 194.64 C 492.97 196.31 493.25 198.00 493.64 199.66 C 493.95 201.34 494.26 203.03 494.67 204.70 C 494.96 206.73 495.21 208.77 495.73 210.76 C 495.92 212.58 496.07 214.40 496.28 216.22 C 497.53 220.11 496.38 224.36 498.00 228.18 L 498.00 270.04 C 496.19 273.71 497.64 277.97 496.28 281.78 C 496.07 283.59 495.91 285.42 495.73 287.24 C 495.21 289.23 494.96 291.27 494.67 293.30 C 494.26 294.96 493.95 296.65 493.64 298.34 C 493.25 300.00 492.97 301.68 492.69 303.36 C 492.31 304.69 491.98 306.03 491.65 307.38 C 491.29 308.70 490.99 310.04 490.69 311.39 C 490.19 313.12 489.78 314.89 489.27 316.63 C 489.14 317.06 488.87 317.94 488.74 318.38 C 488.21 320.12 487.77 321.88 487.25 323.62 C 487.14 324.07 486.92 324.96 486.81 325.41 C 486.25 326.79 485.74 328.19 485.19 329.58 C 485.08 330.03 484.87 330.93 484.76 331.38 C 484.40 332.45 484.06 333.53 483.74 334.62 C 483.19 335.58 482.65 336.55 482.11 337.52 C 482.06 338.02 481.96 339.02 481.91 339.52 C 481.30 340.50 480.68 341.49 480.08 342.49 C 480.04 343.00 479.96 344.01 479.92 344.52 C 479.30 345.50 478.69 346.48 478.09 347.47 C 478.04 347.96 477.93 348.95 477.87 349.44 C 476.97 351.09 476.11 352.77 475.25 354.45 C 474.60 355.78 473.94 357.11 473.28 358.45 C 472.61 359.78 471.94 361.11 471.26 362.45 C 470.75 363.48 470.23 364.51 469.72 365.55 C 469.05 366.90 468.39 368.25 467.76 369.62 C 466.77 371.29 465.72 372.92 464.73 374.58 C 463.77 376.27 462.73 377.92 461.75 379.61 C 454.09 392.02 445.42 403.84 435.75 414.76 C 430.21 419.58 426.62 426.28 420.34 430.31 C 408.20 442.48 394.17 452.66 379.60 461.75 C 377.92 462.72 376.28 463.76 374.60 464.74 C 372.29 466.15 369.97 467.54 367.57 468.78 C 366.52 469.26 365.49 469.75 364.45 470.25 C 362.16 471.41 359.86 472.57 357.57 473.73 C 355.83 474.57 354.11 475.43 352.37 476.27 C 351.40 476.80 350.44 477.34 349.48 477.89 C 348.98 477.94 347.98 478.04 347.48 478.09 C 346.48 478.69 345.50 479.30 344.51 479.92 C 344.00 479.96 342.99 480.04 342.49 480.08 C 341.49 480.69 340.50 481.30 339.52 481.92 C 339.01 481.96 338.00 482.04 337.49 482.08 C 336.50 482.68 335.52 483.28 334.53 483.89 C 334.05 483.96 333.09 484.11 332.61 484.18 C 331.23 484.71 329.83 485.19 328.45 485.72 C 327.42 486.05 326.40 486.40 325.39 486.76 C 324.94 486.89 324.06 487.13 323.62 487.26 C 321.88 487.78 320.12 488.21 318.38 488.73 C 317.94 488.88 317.06 489.16 316.62 489.31 C 315.29 489.67 313.95 489.99 312.61 490.32 C 310.87 490.80 309.12 491.19 307.39 491.68 C 306.04 491.99 304.69 492.31 303.36 492.69 C 301.67 492.97 300.00 493.25 298.34 493.64 C 296.65 493.95 294.97 494.26 293.30 494.68 C 291.27 494.96 289.24 495.22 287.24 495.69 C 284.87 495.94 282.47 496.08 280.18 496.78 C 276.72 497.06 273.13 496.67 269.83 498.00 L 227.96 498.00 C 224.79 496.46 221.19 497.15 217.81 496.79 C 215.02 496.02 212.11 495.92 209.29 495.35 C 207.30 495.05 205.30 494.80 203.34 494.37 C 201.67 494.04 200.00 493.75 198.35 493.35 C 196.67 493.02 194.99 492.72 193.34 492.31 C 192.44 492.11 191.54 491.92 190.64 491.74 C 188.90 491.22 187.14 490.80 185.39 490.31 C 184.05 489.99 182.70 489.67 181.37 489.31 C 180.93 489.16 180.06 488.88 179.62 488.74 C 177.88 488.21 176.11 487.77 174.38 487.25 C 173.93 487.14 173.03 486.92 172.58 486.81 C 171.20 486.25 169.80 485.74 168.41 485.19 C 167.97 485.08 167.07 484.87 166.62 484.76 C 165.55 484.40 164.47 484.06 163.38 483.74 C 162.41 483.19 161.45 482.65 160.48 482.11 C 159.98 482.06 158.98 481.96 158.48 481.91 C 157.49 481.30 156.50 480.69 155.51 480.08 C 155.01 480.04 153.99 479.96 153.49 479.92 C 152.50 479.30 151.51 478.69 150.52 478.09 C 150.02 478.04 149.02 477.94 148.52 477.89 C 147.56 477.34 146.59 476.80 145.63 476.27 C 143.89 475.43 142.16 474.57 140.43 473.73 C 138.43 472.71 136.43 471.70 134.42 470.71 C 132.79 469.89 131.15 469.09 129.52 468.30 C 127.42 467.21 125.42 465.96 123.41 464.74 C 121.72 463.77 120.07 462.72 118.39 461.75 C 107.35 454.99 96.87 447.33 86.97 439.00 C 82.80 435.90 79.74 431.57 75.47 428.60 C 72.37 426.37 69.99 423.36 67.70 420.36 C 55.53 408.20 45.35 394.17 36.25 379.61 C 35.27 377.93 34.23 376.28 33.27 374.60 C 31.84 372.30 30.46 369.97 29.23 367.56 C 28.59 366.21 27.94 364.88 27.28 363.55 C 26.62 362.22 25.96 360.90 25.28 359.59 C 24.38 357.77 23.45 355.96 22.57 354.13 C 24.44 351.82 26.59 349.77 28.75 347.74 C 43.46 333.73 58.02 319.58 72.75 305.58 C 82.47 311.02 93.88 313.52 104.96 312.11 C 116.15 310.92 126.59 305.64 134.89 298.17 C 156.05 310.02 177.39 321.54 198.52 333.43 C 196.67 344.49 197.71 356.21 202.77 366.32 C 209.19 379.73 221.58 390.14 235.96 393.97 C 249.72 397.72 265.02 395.70 277.15 388.12 C 292.05 379.20 301.78 362.34 302.04 344.97 C 302.49 332.61 298.18 320.31 290.52 310.65 C 322.57 262.01 354.54 213.32 386.70 164.76 Z" />
</g>
</svg>
