<?xml version="1.0" encoding="UTF-8" ?>
<!DOCTYPE svg PUBLIC "-//W3C//DTD SVG 1.1//EN" "http://www.w3.org/Graphics/SVG/1.1/DTD/svg11.dtd">
<svg width="194pt" height="194pt" viewBox="0 0 194 194" version="1.1" xmlns="http://www.w3.org/2000/svg">
<g id="#ffffffff">
<path fill="#eeeeee" opacity="1.00" d=" M 93.92 0.00 L 99.80 0.00 C 125.00 0.71 149.73 11.63 167.07 29.95 C 183.52 46.96 193.20 70.17 194.00 93.81 L 194.00 100.03 C 193.26 122.78 184.34 145.17 168.98 162.00 C 151.63 181.44 126.16 193.17 100.14 194.00 L 94.10 194.00 C 69.89 193.27 46.10 183.18 28.93 166.08 C 11.30 148.89 0.81 124.78 0.00 100.19 L 0.00 93.99 C 0.74 70.55 10.23 47.50 26.42 30.49 C 43.72 11.92 68.57 0.81 93.92 0.00 M 77.11 36.99 C 63.54 76.85 50.44 116.89 37.08 156.83 C 47.07 156.85 57.06 156.86 67.05 156.83 C 73.37 156.81 79.11 151.99 80.86 146.01 C 86.19 129.80 91.74 113.67 96.99 97.44 C 102.63 113.76 107.95 130.18 113.42 146.56 C 115.39 152.58 121.53 157.13 127.93 156.83 C 137.63 156.79 147.34 156.86 157.05 156.78 C 143.82 116.77 130.26 76.87 117.21 36.80 L 117.12 37.05 C 103.79 36.92 90.45 37.05 77.11 36.99 Z" />
</g>
<g id="#4285f5ff">
<path fill="#4285f5" opacity="1.00" d=" M 77.11 36.99 C 90.45 37.05 103.79 36.92 117.12 37.05 C 110.37 57.17 103.64 77.29 96.99 97.44 C 91.74 113.67 86.19 129.80 80.86 146.01 C 79.11 151.99 73.37 156.81 67.05 156.83 C 57.06 156.86 47.07 156.85 37.08 156.83 C 50.44 116.89 63.54 76.85 77.11 36.99 Z" />
</g>
<g id="#0d8f51ff">
<path fill="#0d8f51" opacity="1.00" d=" M 117.12 37.05 L 117.21 36.80 C 130.26 76.87 143.82 116.77 157.05 156.78 C 147.34 156.86 137.63 156.79 127.93 156.83 C 121.53 157.13 115.39 152.58 113.42 146.56 C 107.95 130.18 102.63 113.76 96.99 97.44 C 103.64 77.29 110.37 57.17 117.12 37.05 Z" />
</g>
</svg>
