<?xml version="1.0" encoding="UTF-8" ?>
<!DOCTYPE svg PUBLIC "-//W3C//DTD SVG 1.1//EN" "http://www.w3.org/Graphics/SVG/1.1/DTD/svg11.dtd">
<svg width="256pt" height="256pt" viewBox="0 0 256 256" version="1.1" xmlns="http://www.w3.org/2000/svg">
<g id="#434343ff">
<path fill="#434343" opacity="1.00" d=" M 123.57 0.00 L 132.73 0.00 C 161.07 1.30 188.91 12.07 210.40 30.66 C 235.41 51.92 251.70 83.17 254.46 115.90 C 256.87 141.83 251.15 168.49 238.05 191.02 C 222.50 218.23 196.55 239.30 166.69 248.84 C 136.73 258.58 103.15 256.68 74.54 243.49 C 46.65 230.81 23.66 207.72 11.18 179.74 C 4.47 165.05 0.95 149.07 0.00 132.99 L 0.00 123.65 C 0.96 89.85 16.00 56.73 40.96 33.90 C 63.23 13.11 93.15 0.96 123.57 0.00 M 77.57 51.15 C 77.45 54.43 77.28 57.72 77.41 61.00 C 80.41 63.19 82.90 65.98 85.96 68.09 C 80.26 73.72 74.59 79.38 68.95 85.07 C 68.03 83.99 67.12 82.92 66.20 81.86 C 64.43 80.28 62.76 78.60 61.14 76.88 C 59.41 75.14 57.63 73.45 55.75 71.88 C 53.80 75.96 54.76 80.60 54.50 84.97 C 54.31 94.38 57.31 105.08 65.95 110.12 C 73.58 115.22 83.13 115.98 91.95 114.37 C 104.57 128.08 118.36 140.71 130.88 154.52 L 131.48 154.36 L 131.53 155.48 L 132.67 155.55 L 132.28 156.52 L 133.18 156.46 C 135.77 159.49 138.44 162.48 141.54 165.01 C 142.08 172.57 142.18 180.41 145.49 187.41 C 148.07 193.89 153.86 198.34 159.89 201.44 C 165.22 203.35 170.91 203.95 176.53 203.16 C 176.36 199.80 176.25 196.43 176.43 193.07 C 173.25 190.62 170.38 187.70 168.24 184.29 C 174.18 179.05 180.01 173.58 185.31 167.70 C 185.34 168.18 185.40 169.15 185.43 169.63 L 186.64 169.39 L 186.47 170.14 C 191.10 173.44 194.55 178.13 199.44 181.10 C 199.44 178.11 199.56 175.11 200.19 172.19 C 201.03 167.78 200.05 163.35 198.98 159.08 C 196.62 150.26 189.69 143.05 181.04 140.19 C 175.78 138.24 170.16 138.66 164.66 138.72 C 163.88 139.04 162.32 139.70 161.54 140.03 L 161.39 138.92 C 157.03 135.18 153.17 130.90 149.10 126.86 C 148.45 126.22 147.81 125.56 147.19 124.91 C 146.92 124.64 146.37 124.10 146.10 123.84 C 145.43 123.17 144.78 122.50 144.13 121.82 C 143.47 121.18 142.80 120.54 142.14 119.90 C 141.47 119.10 140.80 118.29 140.14 117.48 L 139.23 117.51 L 139.67 116.52 L 138.44 116.51 L 138.50 115.26 L 137.40 115.78 L 137.72 114.49 L 136.86 114.59 C 128.55 105.30 119.50 96.68 110.78 87.77 C 110.77 84.54 110.93 81.31 111.12 78.08 C 111.33 74.51 109.97 71.12 109.19 67.69 C 108.92 67.18 108.40 66.15 108.14 65.64 C 107.90 65.03 107.44 63.80 107.21 63.19 C 104.21 59.87 101.07 56.55 96.97 54.59 C 95.04 54.01 93.13 53.35 91.24 52.65 C 86.71 51.77 82.13 51.61 77.57 51.15 Z" />
</g>
<g id="#ffffffff">
<path fill="#ffffff" opacity="1.00" d=" M 77.57 51.15 C 82.13 51.61 86.71 51.77 91.24 52.65 C 93.13 53.35 95.04 54.01 96.97 54.59 C 101.07 56.55 104.21 59.87 107.21 63.19 C 107.44 63.80 107.90 65.03 108.14 65.64 C 108.40 66.15 108.92 67.18 109.19 67.69 C 109.97 71.12 111.33 74.51 111.12 78.08 C 110.93 81.31 110.77 84.54 110.78 87.77 C 119.50 96.68 128.55 105.30 136.86 114.59 L 137.72 114.49 L 137.40 115.78 L 138.50 115.26 L 138.44 116.51 L 139.67 116.52 L 139.23 117.51 L 140.14 117.48 C 140.80 118.29 141.47 119.10 142.14 119.90 C 142.80 120.54 143.47 121.18 144.13 121.82 C 144.78 122.50 145.43 123.17 146.10 123.84 C 146.37 124.10 146.92 124.64 147.19 124.91 C 147.81 125.56 148.45 126.22 149.10 126.86 C 153.17 130.90 157.03 135.18 161.39 138.92 L 161.54 140.03 C 162.32 139.70 163.88 139.04 164.66 138.72 C 170.16 138.66 175.78 138.24 181.04 140.19 C 189.69 143.05 196.62 150.26 198.98 159.08 C 200.05 163.35 201.03 167.78 200.19 172.19 C 199.56 175.11 199.44 178.11 199.44 181.10 C 194.55 178.13 191.10 173.44 186.47 170.14 L 186.64 169.39 L 185.43 169.63 C 185.40 169.15 185.34 168.18 185.31 167.70 C 180.01 173.58 174.18 179.05 168.24 184.29 C 170.38 187.70 173.25 190.62 176.43 193.07 C 176.25 196.43 176.36 199.80 176.53 203.16 C 170.91 203.95 165.22 203.35 159.89 201.44 C 153.86 198.34 148.07 193.89 145.49 187.41 C 142.18 180.41 142.08 172.57 141.54 165.01 C 138.44 162.48 135.77 159.49 133.18 156.46 L 132.28 156.52 L 132.67 155.55 L 131.53 155.48 L 131.48 154.36 L 130.88 154.52 C 118.36 140.71 104.57 128.08 91.95 114.37 C 83.13 115.98 73.58 115.22 65.95 110.12 C 57.31 105.08 54.31 94.38 54.50 84.97 C 54.76 80.60 53.80 75.96 55.75 71.88 C 57.63 73.45 59.41 75.14 61.14 76.88 C 62.76 78.60 64.43 80.28 66.20 81.86 C 67.12 82.92 68.03 83.99 68.95 85.07 C 74.59 79.38 80.26 73.72 85.96 68.09 C 82.90 65.98 80.41 63.19 77.41 61.00 C 77.28 57.72 77.45 54.43 77.57 51.15 Z" />
</g>
</svg>
