<?xml version="1.0" encoding="UTF-8" ?>
<!DOCTYPE svg PUBLIC "-//W3C//DTD SVG 1.1//EN" "http://www.w3.org/Graphics/SVG/1.1/DTD/svg11.dtd">
<svg width="71pt" height="72pt" viewBox="0 0 71 72" version="1.1" xmlns="http://www.w3.org/2000/svg">
<g id="#1187c9ff">
<path fill="#1187c9" opacity="1.00" d=" M 4.46 18.42 C 10.77 6.89 23.87 -0.45 37.01 0.30 C 49.92 0.71 62.13 8.89 67.53 20.61 C 74.23 34.33 70.66 52.12 59.12 62.14 C 47.39 73.05 28.13 74.21 15.15 64.84 C 6.49 58.90 0.90 48.95 0.00 38.52 L 0.00 33.04 C 0.53 27.94 1.91 22.89 4.46 18.42 M 20.23 18.24 C 17.62 18.93 16.71 22.61 18.64 24.49 C 21.15 27.33 27.29 25.15 26.06 21.01 C 25.68 18.32 22.48 17.45 20.23 18.24 M 18.52 28.42 C 18.55 35.81 18.53 43.19 18.52 50.58 C 20.87 50.57 23.23 50.57 25.58 50.59 C 25.57 43.19 25.57 35.80 25.58 28.41 C 23.23 28.42 20.87 28.43 18.52 28.42 M 37.36 31.46 C 37.42 30.70 37.53 29.19 37.59 28.43 C 34.94 28.43 32.30 28.42 29.66 28.42 C 29.71 35.80 29.74 43.18 29.61 50.56 C 32.25 50.56 34.89 50.58 37.53 50.58 C 37.62 46.02 37.29 41.45 37.67 36.90 C 38.51 33.27 44.59 33.21 45.04 37.10 C 45.66 41.56 45.17 46.09 45.31 50.58 C 47.96 50.59 50.61 50.55 53.26 50.57 C 52.91 44.86 54.05 38.95 52.39 33.39 C 50.30 27.23 41.10 26.45 37.36 31.46 Z" />
</g>
<g id="#ffffffff">
<path fill="#ffffff" opacity="1.00" d=" M 20.23 18.24 C 22.48 17.45 25.68 18.32 26.06 21.01 C 27.29 25.15 21.15 27.33 18.64 24.49 C 16.71 22.61 17.62 18.93 20.23 18.24 Z" />
<path fill="#ffffff" opacity="1.00" d=" M 18.52 28.42 C 20.87 28.43 23.23 28.42 25.58 28.41 C 25.57 35.80 25.57 43.19 25.58 50.59 C 23.23 50.57 20.87 50.57 18.52 50.58 C 18.53 43.19 18.55 35.81 18.52 28.42 Z" />
<path fill="#ffffff" opacity="1.00" d=" M 37.36 31.46 C 41.10 26.45 50.30 27.23 52.39 33.39 C 54.05 38.95 52.91 44.86 53.26 50.57 C 50.61 50.55 47.96 50.59 45.31 50.58 C 45.17 46.09 45.66 41.56 45.04 37.10 C 44.59 33.21 38.51 33.27 37.67 36.90 C 37.29 41.45 37.62 46.02 37.53 50.58 C 34.89 50.58 32.25 50.56 29.61 50.56 C 29.74 43.18 29.71 35.80 29.66 28.42 C 32.30 28.42 34.94 28.43 37.59 28.43 C 37.53 29.19 37.42 30.70 37.36 31.46 Z" />
</g>
</svg>
