<?xml version="1.0" encoding="UTF-8" ?>
<!DOCTYPE svg PUBLIC "-//W3C//DTD SVG 1.1//EN" "http://www.w3.org/Graphics/SVG/1.1/DTD/svg11.dtd">
<svg width="258pt" height="258pt" viewBox="0 0 258 258" version="1.1" xmlns="http://www.w3.org/2000/svg">
<g id="#2b84c4ff">
<path fill="#2b84c4" opacity="1.00" d=" M 89.10 6.87 C 107.70 0.98 127.69 -1.08 147.02 1.94 C 174.17 5.42 199.86 18.43 219.28 37.64 C 237.20 55.29 249.81 78.30 254.82 102.96 C 260.92 132.29 256.43 163.72 242.08 190.04 C 238.47 196.36 234.84 202.82 229.87 208.17 C 232.09 201.21 237.88 196.19 240.57 189.42 C 258.56 156.63 260.40 115.66 245.74 81.30 C 242.15 70.04 235.29 60.14 228.18 50.82 C 216.80 36.02 201.52 24.62 185.05 16.03 C 174.46 11.21 163.42 7.09 151.89 5.21 C 139.39 3.22 126.61 1.94 114.04 4.11 C 86.06 6.97 59.76 20.29 39.60 39.67 C 24.37 55.41 12.41 74.61 6.72 95.86 C 3.77 105.66 2.96 115.89 1.75 126.00 C 1.13 132.03 2.45 138.01 2.88 144.00 C 4.07 155.79 6.95 167.46 11.61 178.36 C 13.62 183.35 16.95 187.80 17.94 193.17 C -3.97 157.02 -5.04 109.60 13.88 71.95 C 28.94 41.37 56.66 17.35 89.10 6.87 Z" />
<path fill="#2b84c4" opacity="1.00" d=" M 127.17 55.48 C 129.23 57.93 131.29 60.39 133.23 62.94 C 117.12 70.13 102.74 80.80 90.48 93.42 C 82.47 101.86 75.25 111.22 70.53 121.92 C 68.21 124.04 65.30 125.46 63.01 127.66 C 60.47 124.70 57.14 122.22 55.56 118.57 C 54.38 113.31 56.22 107.98 58.38 103.24 C 62.89 93.78 69.51 85.49 76.69 77.92 C 80.33 82.62 84.06 87.24 87.52 92.07 C 91.22 89.67 93.92 86.12 97.22 83.25 C 106.39 75.08 116.62 68.09 127.61 62.59 C 127.44 60.22 127.30 57.85 127.17 55.48 Z" />
</g>
<g id="#489fd7ff">
<path fill="#489fd7" opacity="1.00" d=" M 114.04 4.11 C 126.61 1.94 139.39 3.22 151.89 5.21 C 163.42 7.09 174.46 11.21 185.05 16.03 C 201.52 24.62 216.80 36.02 228.18 50.82 C 235.29 60.14 242.15 70.04 245.74 81.30 C 260.40 115.66 258.56 156.63 240.57 189.42 C 237.88 196.19 232.09 201.21 229.87 208.17 C 215.64 227.25 195.24 241.43 173.00 249.71 C 147.46 259.06 118.92 259.95 92.83 252.28 C 61.59 243.10 33.79 221.70 17.94 193.17 C 16.95 187.80 13.62 183.35 11.61 178.36 C 6.95 167.46 4.07 155.79 2.88 144.00 C 2.45 138.01 1.13 132.03 1.75 126.00 C 2.96 115.89 3.77 105.66 6.72 95.86 C 12.41 74.61 24.37 55.41 39.60 39.67 C 59.76 20.29 86.06 6.97 114.04 4.11 M 117.04 43.43 C 103.47 49.00 91.35 57.64 80.47 67.38 C 69.75 77.22 59.89 88.41 53.68 101.69 C 51.28 107.14 49.39 113.26 50.68 119.23 C 51.80 124.66 57.08 127.52 59.85 131.95 C 55.32 140.38 55.36 151.24 61.16 159.07 C 64.91 164.62 71.10 167.79 77.44 169.41 C 82.13 183.50 91.22 196.02 102.79 205.26 C 115.17 215.04 131.09 220.83 146.96 219.30 C 163.63 217.90 178.81 209.09 190.77 197.76 C 195.62 193.61 200.06 188.88 203.21 183.29 C 205.35 179.34 209.52 175.91 208.70 170.94 C 208.57 167.43 205.56 165.12 202.38 164.37 C 202.25 162.23 202.13 160.10 202.01 157.96 C 204.37 155.53 206.76 152.57 206.00 148.91 C 206.03 144.62 202.02 142.37 199.69 139.35 C 196.34 134.99 191.85 131.72 187.27 128.76 C 187.15 120.45 190.09 111.91 187.22 103.81 C 184.57 98.78 183.61 92.99 180.06 88.42 C 184.55 83.62 188.50 78.25 191.35 72.31 C 193.70 67.44 194.88 61.76 193.43 56.45 C 191.47 51.01 186.99 46.04 181.08 45.09 C 171.09 43.35 161.27 47.18 152.22 50.99 C 148.41 47.16 145.62 41.63 140.01 40.21 C 132.27 38.22 124.25 40.61 117.04 43.43 Z" />
<path fill="#489fd7" opacity="1.00" d=" M 114.06 50.11 C 121.92 46.49 130.64 42.99 139.43 44.91 C 139.12 47.07 138.87 49.24 138.72 51.42 L 138.02 51.02 C 135.41 49.59 132.88 47.89 130.02 46.99 C 128.62 47.19 127.28 47.61 125.92 47.98 C 125.81 50.54 125.26 53.40 127.17 55.48 C 127.30 57.85 127.44 60.22 127.61 62.59 C 116.62 68.09 106.39 75.08 97.22 83.25 C 93.92 86.12 91.22 89.67 87.52 92.07 C 84.06 87.24 80.33 82.62 76.69 77.92 C 87.57 66.77 100.06 57.02 114.06 50.11 Z" />
</g>
<g id="#614b3fff">
<path fill="#614b3f" opacity="1.00" d=" M 117.04 43.43 C 124.25 40.61 132.27 38.22 140.01 40.21 C 145.62 41.63 148.41 47.16 152.22 50.99 C 161.27 47.18 171.09 43.35 181.08 45.09 C 186.99 46.04 191.47 51.01 193.43 56.45 C 194.88 61.76 193.70 67.44 191.35 72.31 C 188.50 78.25 184.55 83.62 180.06 88.42 C 183.61 92.99 184.57 98.78 187.22 103.81 C 190.09 111.91 187.15 120.45 187.27 128.76 C 191.85 131.72 196.34 134.99 199.69 139.35 C 202.02 142.37 206.03 144.62 206.00 148.91 C 206.76 152.57 204.37 155.53 202.01 157.96 C 202.13 160.10 202.25 162.23 202.38 164.37 C 205.56 165.12 208.57 167.43 208.70 170.94 C 209.52 175.91 205.35 179.34 203.21 183.29 C 200.06 188.88 195.62 193.61 190.77 197.76 C 178.81 209.09 163.63 217.90 146.96 219.30 C 131.09 220.83 115.17 215.04 102.79 205.26 C 91.22 196.02 82.13 183.50 77.44 169.41 C 71.10 167.79 64.91 164.62 61.16 159.07 C 55.36 151.24 55.32 140.38 59.85 131.95 C 57.08 127.52 51.80 124.66 50.68 119.23 C 49.39 113.26 51.28 107.14 53.68 101.69 C 59.89 88.41 69.75 77.22 80.47 67.38 C 91.35 57.64 103.47 49.00 117.04 43.43 M 114.06 50.11 C 100.06 57.02 87.57 66.77 76.69 77.92 C 69.51 85.49 62.89 93.78 58.38 103.24 C 56.22 107.98 54.38 113.31 55.56 118.57 C 57.14 122.22 60.47 124.70 63.01 127.66 C 65.30 125.46 68.21 124.04 70.53 121.92 C 75.43 120.42 80.58 119.27 85.66 120.62 C 96.13 102.98 111.97 88.11 131.20 80.57 C 129.98 79.67 128.46 79.58 127.01 79.41 C 133.73 76.78 140.99 76.01 148.14 76.78 C 147.06 75.84 145.99 74.90 144.92 73.95 C 149.23 73.16 153.52 74.21 157.76 74.93 C 157.60 74.43 157.28 73.42 157.13 72.92 C 159.84 73.86 162.50 74.93 165.10 76.14 C 165.53 75.94 166.37 75.55 166.79 75.35 C 171.60 77.46 175.72 80.90 177.91 85.76 C 181.99 81.78 185.22 76.99 187.94 72.00 C 190.26 67.74 191.70 62.62 190.19 57.85 C 188.91 54.25 185.27 52.41 182.06 50.84 C 171.91 47.22 161.32 51.90 151.93 55.67 C 149.55 52.24 146.80 49.09 144.14 45.88 C 143.17 44.52 141.32 45.57 139.99 45.54 C 140.18 48.03 140.38 50.53 140.56 53.03 C 139.73 52.34 138.90 51.64 138.02 51.02 L 138.72 51.42 C 138.87 49.24 139.12 47.07 139.43 44.91 C 130.64 42.99 121.92 46.49 114.06 50.11 M 146.93 90.20 C 138.80 91.85 130.69 94.27 123.61 98.70 C 117.27 102.69 111.31 108.26 108.82 115.48 C 105.77 121.80 105.15 129.24 106.35 136.11 C 106.78 135.38 107.64 133.92 108.07 133.19 C 108.33 136.07 108.38 138.97 108.26 141.86 C 108.77 141.20 109.28 140.53 109.80 139.87 C 110.65 143.59 110.95 147.47 112.46 151.02 C 112.56 150.14 112.76 148.40 112.85 147.52 C 114.36 149.44 115.56 151.55 116.66 153.72 C 111.46 158.76 107.91 165.70 107.92 173.04 C 107.71 179.98 110.56 186.63 114.76 192.04 C 114.89 190.57 115.03 189.11 115.18 187.65 C 116.55 189.94 117.82 192.29 119.09 194.64 C 119.51 194.52 120.36 194.30 120.78 194.19 C 122.17 196.13 123.65 198.00 125.19 199.83 C 125.56 199.74 126.31 199.58 126.68 199.49 C 137.77 205.20 150.94 206.05 163.10 204.16 C 169.77 203.19 176.28 201.10 182.15 197.75 L 182.17 197.64 C 189.60 193.70 196.13 187.47 199.64 179.78 C 201.37 177.32 203.82 175.11 204.35 172.02 C 204.35 169.47 201.71 168.62 199.62 169.31 C 196.78 165.67 198.11 161.02 196.80 156.91 C 191.93 159.45 187.25 162.45 181.96 164.09 C 169.78 168.54 156.44 167.65 143.91 165.34 C 141.64 166.29 140.35 168.39 139.07 170.36 C 139.16 168.07 139.82 165.27 142.22 164.35 C 146.11 162.73 150.28 165.04 154.28 164.44 C 170.29 166.71 187.20 161.82 200.03 152.06 C 203.67 149.73 199.96 145.79 197.56 144.18 C 194.93 140.31 191.41 136.94 187.39 134.56 C 185.25 132.89 182.40 131.12 182.81 127.95 C 182.43 119.09 186.84 108.54 180.27 101.01 C 180.21 96.85 178.04 92.75 174.58 90.44 C 171.09 88.44 166.93 88.46 163.09 87.74 C 160.93 87.24 158.75 87.73 156.65 88.24 C 156.91 87.66 157.42 86.51 157.68 85.93 C 153.72 86.40 150.85 89.63 146.93 90.20 M 67.83 129.80 C 62.42 134.27 60.33 141.84 61.49 148.61 C 63.02 155.57 68.31 161.61 75.10 163.86 C 80.22 165.66 85.85 164.72 90.80 162.81 C 90.71 160.50 90.89 158.02 89.58 155.99 L 89.93 155.19 C 89.97 154.33 90.06 152.60 90.10 151.73 C 89.62 151.98 88.65 152.48 88.17 152.73 C 88.09 152.27 87.92 151.33 87.84 150.86 C 88.43 148.63 88.93 146.38 89.27 144.10 C 88.75 144.86 87.72 146.38 87.20 147.14 C 86.81 143.00 88.89 139.16 90.52 135.49 C 91.70 133.38 92.80 131.23 93.89 129.08 C 90.41 126.51 86.22 124.92 81.93 124.43 C 76.79 124.37 71.54 126.19 67.83 129.80 Z" />
<path fill="#614b3f" opacity="1.00" d=" M 172.70 127.27 C 173.04 124.89 172.17 121.08 175.02 120.07 C 178.63 121.18 177.50 126.12 178.14 129.03 C 176.32 128.45 174.52 127.82 172.70 127.27 Z" />
<path fill="#614b3f" opacity="1.00" d=" M 147.96 124.99 C 148.43 123.68 150.57 123.49 151.31 124.58 C 154.00 127.64 154.06 132.06 153.85 135.91 C 151.99 136.43 150.12 136.83 148.22 137.15 C 147.14 133.26 146.05 128.78 147.96 124.99 Z" />
<path fill="#614b3f" opacity="1.00" d=" M 176.34 137.51 C 176.27 135.73 176.56 133.98 177.77 132.61 L 178.61 133.76 C 178.63 134.05 178.66 134.63 178.67 134.93 C 178.24 136.07 177.44 136.96 176.34 137.51 Z" />
<path fill="#614b3f" opacity="1.00" d=" M 166.83 134.02 C 168.76 134.92 170.64 136.10 170.95 138.41 C 168.25 139.06 164.94 136.95 166.83 134.02 Z" />
<path fill="#614b3f" opacity="1.00" d=" M 173.90 182.52 C 183.55 181.12 192.47 176.80 200.43 171.32 C 198.23 174.81 194.73 177.14 191.22 179.15 C 181.71 184.32 170.67 186.04 159.96 185.76 C 154.88 185.60 149.63 185.25 144.95 183.14 C 142.29 181.94 140.88 179.23 139.47 176.85 C 139.71 176.71 140.19 176.43 140.43 176.29 C 141.17 177.30 141.91 178.31 142.70 179.29 C 144.38 181.04 146.71 182.00 149.05 182.48 C 157.25 184.09 165.67 183.55 173.90 182.52 Z" />
</g>
<g id="#f2cca1ff">
<path fill="#f2cca1" opacity="1.00" d=" M 139.99 45.54 C 141.32 45.57 143.17 44.52 144.14 45.88 C 146.80 49.09 149.55 52.24 151.93 55.67 C 151.26 55.98 149.93 56.61 149.26 56.92 C 147.83 55.22 146.41 53.52 144.97 51.84 C 145.16 53.51 145.36 55.18 145.57 56.85 C 145.02 57.36 144.48 57.86 143.93 58.37 C 141.51 56.62 138.84 55.29 136.12 54.10 C 137.89 56.38 139.76 58.58 141.71 60.71 C 140.59 61.34 139.49 62.02 138.41 62.72 C 134.24 57.81 130.23 52.76 125.92 47.98 C 127.28 47.61 128.62 47.19 130.02 46.99 C 132.88 47.89 135.41 49.59 138.02 51.02 C 138.90 51.64 139.73 52.34 140.56 53.03 C 140.38 50.53 140.18 48.03 139.99 45.54 Z" />
<path fill="#f2cca1" opacity="1.00" d=" M 165.84 105.87 C 170.34 103.62 174.77 98.22 180.27 101.01 C 186.84 108.54 182.43 119.09 182.81 127.95 C 182.40 131.12 185.25 132.89 187.39 134.56 C 184.48 134.59 181.57 134.77 178.67 134.93 C 178.66 134.63 178.63 134.05 178.61 133.76 C 178.53 132.17 178.38 130.60 178.14 129.03 C 177.50 126.12 178.63 121.18 175.02 120.07 C 172.17 121.08 173.04 124.89 172.70 127.27 C 167.14 126.82 163.32 131.40 160.86 135.76 C 159.44 138.82 155.82 139.04 153.03 140.06 C 148.09 141.53 143.56 144.08 139.29 146.93 C 133.03 144.48 126.90 140.57 123.84 134.37 C 121.99 130.83 121.74 126.76 121.97 122.85 C 123.17 115.61 127.59 108.71 134.24 105.38 C 144.66 100.31 155.53 111.22 165.84 105.87 M 147.96 124.99 C 146.05 128.78 147.14 133.26 148.22 137.15 C 150.12 136.83 151.99 136.43 153.85 135.91 C 154.06 132.06 154.00 127.64 151.31 124.58 C 150.57 123.49 148.43 123.68 147.96 124.99 Z" />
<path fill="#f2cca1" opacity="1.00" d=" M 166.83 134.02 C 168.85 130.06 175.21 128.19 177.77 132.61 C 176.56 133.98 176.27 135.73 176.34 137.51 C 174.56 137.88 172.76 138.18 170.95 138.41 C 170.64 136.10 168.76 134.92 166.83 134.02 Z" />
<path fill="#f2cca1" opacity="1.00" d=" M 80.38 134.46 C 83.55 133.23 88.02 132.70 90.52 135.49 C 88.89 139.16 86.81 143.00 87.20 147.14 C 87.72 146.38 88.75 144.86 89.27 144.10 C 88.93 146.38 88.43 148.63 87.84 150.86 C 87.74 151.29 87.53 152.15 87.43 152.58 C 86.24 150.88 85.20 149.08 84.25 147.23 C 83.91 148.55 83.59 149.87 83.24 151.19 C 82.49 149.53 81.73 147.87 80.98 146.22 C 80.61 146.63 79.87 147.45 79.49 147.85 C 78.80 146.29 78.09 144.74 77.38 143.19 C 77.15 143.73 76.71 144.81 76.49 145.35 C 75.72 144.21 74.90 143.10 74.09 141.99 C 75.45 138.98 77.06 135.68 80.38 134.46 Z" />
<path fill="#f2cca1" opacity="1.00" d=" M 197.56 144.18 C 199.96 145.79 203.67 149.73 200.03 152.06 C 187.20 161.82 170.29 166.71 154.28 164.44 C 156.49 163.51 158.74 162.64 161.10 162.17 C 170.39 160.24 179.67 157.60 187.99 152.92 C 191.69 150.68 195.55 148.16 197.56 144.18 Z" />
<path fill="#f2cca1" opacity="1.00" d=" M 120.66 163.13 C 121.72 155.35 128.87 150.13 136.06 148.36 C 134.37 150.84 132.30 153.00 130.32 155.24 C 127.79 158.08 126.38 161.66 124.87 165.10 C 124.28 165.59 123.10 166.56 122.51 167.05 C 122.97 164.54 123.51 162.05 124.12 159.58 C 122.98 160.78 121.83 161.97 120.66 163.13 Z" />
<path fill="#f2cca1" opacity="1.00" d=" M 139.07 170.36 C 140.35 168.39 141.64 166.29 143.91 165.34 C 142.55 167.38 141.33 169.54 140.59 171.90 C 152.32 176.32 165.10 174.58 177.23 173.14 C 172.60 174.60 167.82 175.69 162.95 175.77 C 155.75 175.86 148.35 176.37 141.44 173.91 C 141.76 175.72 142.11 177.54 142.70 179.29 C 141.91 178.31 141.17 177.30 140.43 176.29 C 140.19 176.43 139.71 176.71 139.47 176.85 C 139.13 174.70 139.04 172.53 139.07 170.36 Z" />
<path fill="#f2cca1" opacity="1.00" d=" M 184.89 186.78 C 190.13 185.20 194.88 182.42 199.64 179.78 C 196.13 187.47 189.60 193.70 182.17 197.64 C 182.65 195.15 183.17 192.67 183.71 190.20 C 180.04 190.43 176.33 190.46 172.78 189.43 C 176.81 188.55 180.94 188.05 184.89 186.78 Z" />
</g>
<g id="#111f34ff">
<path fill="#111f34" opacity="1.00" d=" M 125.92 47.98 C 130.23 52.76 134.24 57.81 138.41 62.72 C 123.93 71.62 111.05 82.89 99.24 95.06 C 117.36 78.09 137.48 62.38 161.15 54.06 C 167.83 51.70 174.92 49.91 182.06 50.84 C 185.27 52.41 188.91 54.25 190.19 57.85 C 191.70 62.62 190.26 67.74 187.94 72.00 C 185.22 76.99 181.99 81.78 177.91 85.76 C 175.72 80.90 171.60 77.46 166.79 75.35 C 166.37 75.55 165.53 75.94 165.10 76.14 C 162.50 74.93 159.84 73.86 157.13 72.92 C 157.28 73.42 157.60 74.43 157.76 74.93 C 153.52 74.21 149.23 73.16 144.92 73.95 C 145.99 74.90 147.06 75.84 148.14 76.78 C 140.99 76.01 133.73 76.78 127.01 79.41 C 128.46 79.58 129.98 79.67 131.20 80.57 C 111.97 88.11 96.13 102.98 85.66 120.62 C 80.58 119.27 75.43 120.42 70.53 121.92 C 75.25 111.22 82.47 101.86 90.48 93.42 C 102.74 80.80 117.12 70.13 133.23 62.94 C 131.29 60.39 129.23 57.93 127.17 55.48 C 125.26 53.40 125.81 50.54 125.92 47.98 Z" />
<path fill="#111f34" opacity="1.00" d=" M 144.97 51.84 C 146.41 53.52 147.83 55.22 149.26 56.92 C 146.74 58.17 144.21 59.40 141.71 60.71 C 139.76 58.58 137.89 56.38 136.12 54.10 C 138.84 55.29 141.51 56.62 143.93 58.37 C 144.48 57.86 145.02 57.36 145.57 56.85 C 145.36 55.18 145.16 53.51 144.97 51.84 Z" />
</g>
<g id="#fef1d9ff">
<path fill="#fef1d9" opacity="1.00" d=" M 151.93 55.67 C 161.32 51.90 171.91 47.22 182.06 50.84 C 174.92 49.91 167.83 51.70 161.15 54.06 C 137.48 62.38 117.36 78.09 99.24 95.06 C 111.05 82.89 123.93 71.62 138.41 62.72 C 139.49 62.02 140.59 61.34 141.71 60.71 C 144.21 59.40 146.74 58.17 149.26 56.92 C 149.93 56.61 151.26 55.98 151.93 55.67 Z" />
<path fill="#fef1d9" opacity="1.00" d=" M 160.86 135.76 C 163.32 131.40 167.14 126.82 172.70 127.27 C 174.52 127.82 176.32 128.45 178.14 129.03 C 178.38 130.60 178.53 132.17 178.61 133.76 L 177.77 132.61 C 175.21 128.19 168.85 130.06 166.83 134.02 C 164.94 136.95 168.25 139.06 170.95 138.41 C 172.76 138.18 174.56 137.88 176.34 137.51 C 177.44 136.96 178.24 136.07 178.67 134.93 C 181.57 134.77 184.48 134.59 187.39 134.56 C 191.41 136.94 194.93 140.31 197.56 144.18 C 195.55 148.16 191.69 150.68 187.99 152.92 C 179.67 157.60 170.39 160.24 161.10 162.17 C 158.74 162.64 156.49 163.51 154.28 164.44 C 150.28 165.04 146.11 162.73 142.22 164.35 C 139.82 165.27 139.16 168.07 139.07 170.36 C 139.04 172.53 139.13 174.70 139.47 176.85 C 140.88 179.23 142.29 181.94 144.95 183.14 C 149.63 185.25 154.88 185.60 159.96 185.76 C 170.67 186.04 181.71 184.32 191.22 179.15 C 194.73 177.14 198.23 174.81 200.43 171.32 C 192.47 176.80 183.55 181.12 173.90 182.52 C 165.67 183.55 157.25 184.09 149.05 182.48 C 146.71 182.00 144.38 181.04 142.70 179.29 C 142.11 177.54 141.76 175.72 141.44 173.91 C 148.35 176.37 155.75 175.86 162.95 175.77 C 167.82 175.69 172.60 174.60 177.23 173.14 C 165.10 174.58 152.32 176.32 140.59 171.90 C 141.33 169.54 142.55 167.38 143.91 165.34 C 156.44 167.65 169.78 168.54 181.96 164.09 C 187.25 162.45 191.93 159.45 196.80 156.91 C 198.11 161.02 196.78 165.67 199.62 169.31 C 201.71 168.62 204.35 169.47 204.35 172.02 C 203.82 175.11 201.37 177.32 199.64 179.78 C 194.88 182.42 190.13 185.20 184.89 186.78 C 180.94 188.05 176.81 188.55 172.78 189.43 C 176.33 190.46 180.04 190.43 183.71 190.20 C 183.17 192.67 182.65 195.15 182.17 197.64 L 182.15 197.75 C 176.28 201.10 169.77 203.19 163.10 204.16 C 158.67 204.41 154.14 204.36 149.85 203.11 C 146.15 202.12 142.99 199.68 139.18 199.03 C 138.39 198.07 137.61 197.11 136.84 196.14 C 136.46 196.20 135.71 196.33 135.33 196.39 C 134.27 194.61 133.22 192.83 132.15 191.06 C 132.01 191.83 131.74 193.37 131.60 194.14 C 128.44 188.70 127.45 182.44 126.84 176.27 C 126.40 177.11 125.51 178.78 125.07 179.61 C 124.12 174.84 123.83 169.88 124.87 165.10 C 126.38 161.66 127.79 158.08 130.32 155.24 C 132.30 153.00 134.37 150.84 136.06 148.36 C 137.16 147.93 138.23 147.45 139.29 146.93 C 143.56 144.08 148.09 141.53 153.03 140.06 C 155.82 139.04 159.44 138.82 160.86 135.76 Z" />
<path fill="#fef1d9" opacity="1.00" d=" M 73.69 142.48 C 74.97 143.92 75.92 145.60 76.74 147.32 C 76.68 146.83 76.55 145.84 76.49 145.35 C 76.71 144.81 77.15 143.73 77.38 143.19 C 78.09 144.74 78.80 146.29 79.49 147.85 C 79.87 147.45 80.61 146.63 80.98 146.22 C 81.73 147.87 82.49 149.53 83.24 151.19 C 83.59 149.87 83.91 148.55 84.25 147.23 C 85.20 149.08 86.24 150.88 87.43 152.58 C 87.47 154.01 87.53 155.44 87.62 156.87 C 84.22 156.76 80.49 156.57 77.80 154.21 C 74.22 151.51 73.08 146.75 73.69 142.48 Z" />
<path fill="#fef1d9" opacity="1.00" d=" M 89.58 155.99 C 88.01 156.27 87.39 154.16 88.97 153.68 C 89.21 154.06 89.69 154.82 89.93 155.19 L 89.58 155.99 Z" />
</g>
<g id="#996c4bff">
<path fill="#996c4b" opacity="1.00" d=" M 146.93 90.20 C 150.85 89.63 153.72 86.40 157.68 85.93 C 157.42 86.51 156.91 87.66 156.65 88.24 C 158.75 87.73 160.93 87.24 163.09 87.74 C 166.93 88.46 171.09 88.44 174.58 90.44 C 178.04 92.75 180.21 96.85 180.27 101.01 C 174.77 98.22 170.34 103.62 165.84 105.87 C 155.53 111.22 144.66 100.31 134.24 105.38 C 127.59 108.71 123.17 115.61 121.97 122.85 C 117.48 120.59 112.86 118.51 108.82 115.48 C 111.31 108.26 117.27 102.69 123.61 98.70 C 130.69 94.27 138.80 91.85 146.93 90.20 Z" />
<path fill="#996c4b" opacity="1.00" d=" M 67.83 129.80 C 71.54 126.19 76.79 124.37 81.93 124.43 C 86.22 124.92 90.41 126.51 93.89 129.08 C 92.80 131.23 91.70 133.38 90.52 135.49 C 88.02 132.70 83.55 133.23 80.38 134.46 C 77.06 135.68 75.45 138.98 74.09 141.99 C 74.90 143.10 75.72 144.21 76.49 145.35 C 76.55 145.84 76.68 146.83 76.74 147.32 C 75.92 145.60 74.97 143.92 73.69 142.48 C 73.08 146.75 74.22 151.51 77.80 154.21 C 80.49 156.57 84.22 156.76 87.62 156.87 C 87.53 155.44 87.47 154.01 87.43 152.58 C 87.53 152.15 87.74 151.29 87.84 150.86 C 87.92 151.33 88.09 152.27 88.17 152.73 C 88.65 152.48 89.62 151.98 90.10 151.73 C 90.06 152.60 89.97 154.33 89.93 155.19 C 89.69 154.82 89.21 154.06 88.97 153.68 C 87.39 154.16 88.01 156.27 89.58 155.99 C 90.89 158.02 90.71 160.50 90.80 162.81 C 85.85 164.72 80.22 165.66 75.10 163.86 C 68.31 161.61 63.02 155.57 61.49 148.61 C 60.33 141.84 62.42 134.27 67.83 129.80 Z" />
</g>
<g id="#b4825bff">
<path fill="#b4825b" opacity="1.00" d=" M 106.35 136.11 C 105.15 129.24 105.77 121.80 108.82 115.48 C 112.86 118.51 117.48 120.59 121.97 122.85 C 121.74 126.76 121.99 130.83 123.84 134.37 C 126.90 140.57 133.03 144.48 139.29 146.93 C 138.23 147.45 137.16 147.93 136.06 148.36 C 128.87 150.13 121.72 155.35 120.66 163.13 C 121.83 161.97 122.98 160.78 124.12 159.58 C 123.51 162.05 122.97 164.54 122.51 167.05 C 123.10 166.56 124.28 165.59 124.87 165.10 C 123.83 169.88 124.12 174.84 125.07 179.61 C 125.51 178.78 126.40 177.11 126.84 176.27 C 127.45 182.44 128.44 188.70 131.60 194.14 C 131.74 193.37 132.01 191.83 132.15 191.06 C 133.22 192.83 134.27 194.61 135.33 196.39 C 135.71 196.33 136.46 196.20 136.84 196.14 C 137.61 197.11 138.39 198.07 139.18 199.03 C 142.99 199.68 146.15 202.12 149.85 203.11 C 154.14 204.36 158.67 204.41 163.10 204.16 C 150.94 206.05 137.77 205.20 126.68 199.49 C 126.31 199.58 125.56 199.74 125.19 199.83 C 123.65 198.00 122.17 196.13 120.78 194.19 C 120.36 194.30 119.51 194.52 119.09 194.64 C 117.82 192.29 116.55 189.94 115.18 187.65 C 115.03 189.11 114.89 190.57 114.76 192.04 C 110.56 186.63 107.71 179.98 107.92 173.04 C 107.91 165.70 111.46 158.76 116.66 153.72 C 115.56 151.55 114.36 149.44 112.85 147.52 C 112.76 148.40 112.56 150.14 112.46 151.02 C 110.95 147.47 110.65 143.59 109.80 139.87 C 109.28 140.53 108.77 141.20 108.26 141.86 C 108.38 138.97 108.33 136.07 108.07 133.19 C 107.64 133.92 106.78 135.38 106.35 136.11 Z" />
</g>
</svg>
