<svg id="svg" version="1.1" width="400" height="400" xmlns="http://www.w3.org/2000/svg" xmlns:xlink="http://www.w3.org/1999/xlink" style="display: block;"><g id="svgg"><path id="path0" d="M184.610 5.334 C 185.471 5.499,186.717 5.493,187.378 5.320 C 188.040 5.147,187.336 5.011,185.813 5.019 C 184.291 5.026,183.749 5.168,184.610 5.334 M212.292 5.334 C 213.153 5.499,214.398 5.493,215.060 5.320 C 215.722 5.147,215.017 5.011,213.495 5.019 C 211.972 5.026,211.431 5.168,212.292 5.334 M67.441 56.228 L 64.706 59.170 67.647 56.434 C 69.265 54.929,70.588 53.606,70.588 53.493 C 70.588 52.969,69.986 53.493,67.441 56.228 M331.142 56.055 C 332.629 57.578,334.001 58.824,334.191 58.824 C 334.381 58.824,333.321 57.578,331.834 56.055 C 330.347 54.533,328.975 53.287,328.785 53.287 C 328.595 53.287,329.655 54.533,331.142 56.055 M55.677 67.993 L 52.941 70.934 55.882 68.199 C 58.618 65.655,59.142 65.052,58.618 65.052 C 58.505 65.052,57.181 66.375,55.677 67.993 M342.907 67.820 C 344.393 69.343,345.765 70.588,345.956 70.588 C 346.146 70.588,345.085 69.343,343.599 67.820 C 342.112 66.298,340.740 65.052,340.550 65.052 C 340.359 65.052,341.420 66.298,342.907 67.820 M290.416 150.684 C 287.123 156.371,284.429 161.229,284.429 161.481 C 284.429 161.732,289.908 161.938,296.606 161.938 L 308.782 161.938 306.891 158.711 C 304.617 154.831,304.911 154.459,312.101 152.124 C 325.425 147.797,343.564 151.057,353.503 159.565 C 356.194 161.868,356.450 161.938,362.221 161.938 C 369.369 161.938,369.368 161.941,363.495 156.271 C 348.321 141.622,327.831 137.051,308.170 143.929 C 304.818 145.102,301.609 146.219,301.038 146.412 C 300.342 146.647,299.407 145.705,298.202 143.554 L 296.403 140.345 290.416 150.684 M200.188 173.340 C 179.355 179.204,178.055 210.352,198.326 217.959 C 203.178 219.780,211.775 219.712,216.090 217.818 L 218.685 216.680 218.685 211.147 L 218.685 205.614 215.398 207.106 C 201.745 213.300,189.669 200.056,197.740 187.739 C 200.515 183.504,209.685 181.949,215.225 184.775 C 216.717 185.536,218.106 186.159,218.312 186.159 C 218.517 186.159,218.685 183.702,218.685 180.698 L 218.685 175.237 215.772 174.071 C 211.686 172.436,204.582 172.103,200.188 173.340 M28.374 195.848 L 28.374 218.685 33.895 218.685 L 39.416 218.685 39.604 205.464 L 39.792 192.243 45.535 200.274 C 48.693 204.691,51.496 208.298,51.763 208.291 C 52.031 208.283,54.818 204.649,57.958 200.213 L 63.668 192.149 63.668 205.417 L 63.668 218.685 69.560 218.685 L 75.451 218.685 75.269 196.021 L 75.087 173.356 69.839 173.156 L 64.591 172.956 58.420 182.312 C 55.026 187.457,52.060 191.674,51.828 191.681 C 51.596 191.689,48.638 187.498,45.253 182.367 L 39.100 173.038 33.737 173.024 L 28.374 173.010 28.374 195.848 M100.279 174.886 C 99.869 175.948,96.158 185.692,92.034 196.540 C 87.909 207.388,84.317 216.821,84.050 217.503 C 83.605 218.645,84.029 218.728,89.360 218.541 L 95.154 218.339 96.624 214.187 L 98.095 210.035 106.626 210.035 L 115.157 210.035 116.809 214.360 L 118.460 218.685 124.272 218.685 L 130.084 218.685 128.652 214.857 C 127.864 212.752,124.009 202.553,120.085 192.193 L 112.950 173.356 106.987 173.156 C 101.028 172.956,101.024 172.957,100.279 174.886 M138.408 195.848 L 138.408 218.685 144.324 218.685 L 150.241 218.685 150.034 207.957 C 149.920 202.057,149.983 197.245,150.173 197.264 C 150.363 197.283,153.458 201.987,157.049 207.717 C 164.522 219.639,163.462 218.806,170.825 218.542 L 176.482 218.339 171.184 210.415 C 168.270 206.056,166.228 202.376,166.647 202.236 C 175.910 199.149,178.165 183.590,170.308 176.978 C 166.578 173.840,162.271 173.010,149.701 173.010 L 138.408 173.010 138.408 195.848 M230.450 195.848 L 230.450 218.685 235.986 218.685 L 241.522 218.685 241.522 209.668 L 241.522 200.652 250.692 200.845 L 259.862 201.038 260.055 209.862 L 260.249 218.685 265.765 218.685 L 271.280 218.685 271.280 195.848 L 271.280 173.010 265.744 173.010 L 260.208 173.010 260.208 182.007 L 260.208 191.003 250.865 191.003 L 241.522 191.003 241.522 182.007 L 241.522 173.010 235.986 173.010 L 230.450 173.010 230.450 195.848 M283.737 195.848 L 283.737 218.685 300.000 218.685 L 316.263 218.685 316.263 213.859 L 316.263 209.033 305.789 208.842 L 295.316 208.651 295.316 204.844 L 295.316 201.038 305.789 200.847 L 316.263 200.656 316.263 195.830 L 316.263 191.003 305.709 191.004 L 295.156 191.004 295.249 187.145 L 295.343 183.285 305.630 183.165 L 315.917 183.045 316.120 178.028 L 316.324 173.010 300.030 173.010 L 283.737 173.010 283.737 195.848 M325.260 173.581 C 325.260 173.895,328.529 178.947,332.526 184.808 C 336.522 190.669,339.792 195.657,339.792 195.894 C 339.792 196.131,336.522 201.183,332.526 207.120 C 328.529 213.058,325.260 218.089,325.260 218.301 C 325.260 218.512,328.140 218.678,331.661 218.669 L 338.062 218.652 342.445 212.013 L 346.828 205.373 351.279 212.029 L 355.730 218.685 361.948 218.685 C 365.368 218.685,368.166 218.528,368.166 218.336 C 368.166 218.143,364.843 212.999,360.781 206.903 L 353.396 195.820 360.438 185.503 C 369.736 171.879,369.586 173.010,362.103 173.010 L 355.892 173.010 351.557 179.585 C 346.333 187.508,347.280 187.509,342.038 179.568 L 337.710 173.010 331.485 173.010 C 328.061 173.010,325.260 173.267,325.260 173.581 M160.772 183.504 C 168.031 187.370,164.042 195.848,154.964 195.848 L 150.173 195.848 150.173 189.273 L 150.173 182.699 154.717 182.699 C 157.216 182.699,159.941 183.061,160.772 183.504 M5.019 185.813 C 5.026 187.336,5.168 187.877,5.334 187.016 C 5.499 186.155,5.493 184.910,5.320 184.248 C 5.147 183.586,5.011 184.291,5.019 185.813 M393.946 185.813 C 393.954 187.336,394.096 187.877,394.261 187.016 C 394.427 186.155,394.420 184.910,394.247 184.248 C 394.074 183.586,393.938 184.291,393.946 185.813 M111.419 200.085 C 111.419 200.419,109.239 200.692,106.574 200.692 C 103.910 200.692,101.730 200.596,101.730 200.478 C 101.730 200.305,104.727 191.846,106.314 187.543 C 106.644 186.647,111.419 198.377,111.419 200.085 M5.019 213.495 C 5.026 215.017,5.168 215.559,5.334 214.698 C 5.499 213.837,5.493 212.591,5.320 211.930 C 5.147 211.268,5.011 211.972,5.019 213.495 M371.104 211.938 C 367.790 216.079,372.768 221.695,376.471 217.993 C 378.198 216.266,378.250 213.721,376.589 212.218 C 375.095 210.866,372.085 210.712,371.104 211.938 M393.946 213.495 C 393.954 215.017,394.096 215.559,394.261 214.698 C 394.427 213.837,394.420 212.591,394.247 211.930 C 394.074 211.268,393.938 211.972,393.946 213.495 M376.075 212.852 C 377.350 214.127,377.420 214.836,376.446 216.654 C 375.029 219.302,370.934 217.906,370.934 214.775 C 370.934 212.137,374.156 210.933,376.075 212.852 M373.183 212.962 C 372.708 213.128,372.318 213.978,372.318 214.850 C 372.318 217.131,375.391 217.119,375.530 214.837 C 375.630 213.186,374.692 212.436,373.183 212.962 M284.429 231.028 C 284.429 232.095,293.730 240.599,297.614 243.084 C 312.405 252.546,332.317 254.216,348.010 247.311 C 352.765 245.219,352.472 245.153,354.375 248.740 C 355.269 250.425,356.213 251.673,356.473 251.513 C 357.051 251.156,368.166 231.583,368.166 230.922 C 368.166 230.662,362.703 230.450,356.026 230.450 L 343.886 230.450 345.646 233.452 C 347.933 237.355,347.988 237.189,343.772 239.048 C 330.182 245.040,312.132 242.657,299.561 233.212 C 295.976 230.518,284.429 228.852,284.429 231.028 M55.363 331.142 C 56.655 332.474,57.867 333.564,58.057 333.564 C 58.247 333.564,57.347 332.474,56.055 331.142 C 54.764 329.810,53.552 328.720,53.362 328.720 C 53.171 328.720,54.072 329.810,55.363 331.142 M343.215 331.315 L 340.830 333.910 343.426 331.525 C 344.853 330.213,346.021 329.046,346.021 328.930 C 346.021 328.402,345.435 328.899,343.215 331.315 M66.436 342.085 C 66.436 342.204,67.448 343.216,68.685 344.334 L 70.934 346.367 68.902 344.118 C 67.007 342.021,66.436 341.550,66.436 342.085 M184.610 394.261 C 185.471 394.427,186.717 394.420,187.378 394.247 C 188.040 394.074,187.336 393.938,185.813 393.946 C 184.291 393.954,183.749 394.096,184.610 394.261 M212.292 394.261 C 213.153 394.427,214.398 394.420,215.060 394.247 C 215.722 394.074,215.017 393.938,213.495 393.946 C 211.972 393.954,211.431 394.096,212.292 394.261 " stroke="none" fill="#ffffff" fill-rule="evenodd"></path><path id="path1" d="M185.813 5.251 C 80.348 15.706,5.255 96.557,5.255 199.654 C 5.255 351.195,169.973 444.301,300.279 366.414 C 408.219 301.896,426.560 151.201,337.333 61.975 C 298.033 22.674,237.742 0.103,185.813 5.251 M301.038 146.412 C 301.609 146.219,304.818 145.102,308.170 143.929 C 327.831 137.051,348.321 141.622,363.495 156.271 C 369.368 161.941,369.369 161.938,362.221 161.938 C 356.450 161.938,356.194 161.868,353.503 159.565 C 343.564 151.057,325.425 147.797,312.101 152.124 C 304.911 154.459,304.617 154.831,306.891 158.711 L 308.782 161.938 296.606 161.938 C 289.908 161.938,284.429 161.732,284.429 161.481 C 284.429 161.229,287.123 156.371,290.416 150.684 L 296.403 140.345 298.202 143.554 C 299.407 145.705,300.342 146.647,301.038 146.412 M215.772 174.071 L 218.685 175.237 218.685 180.698 C 218.685 183.702,218.517 186.159,218.312 186.159 C 218.106 186.159,216.717 185.536,215.225 184.775 C 209.685 181.949,200.515 183.504,197.740 187.739 C 189.669 200.056,201.745 213.300,215.398 207.106 L 218.685 205.614 218.685 211.147 L 218.685 216.680 216.090 217.818 C 197.383 226.027,177.993 206.469,185.388 186.851 C 189.823 175.088,203.712 169.246,215.772 174.071 M45.253 182.367 C 48.638 187.498,51.596 191.689,51.828 191.681 C 52.060 191.674,55.026 187.457,58.420 182.312 L 64.591 172.956 69.839 173.156 L 75.087 173.356 75.269 196.021 L 75.451 218.685 69.560 218.685 L 63.668 218.685 63.668 205.417 L 63.668 192.149 57.958 200.213 C 54.818 204.649,52.031 208.283,51.763 208.291 C 51.496 208.298,48.693 204.691,45.535 200.274 L 39.792 192.243 39.604 205.464 L 39.416 218.685 33.895 218.685 L 28.374 218.685 28.374 195.848 L 28.374 173.010 33.737 173.024 L 39.100 173.038 45.253 182.367 M120.085 192.193 C 124.009 202.553,127.864 212.752,128.652 214.857 L 130.084 218.685 124.272 218.685 L 118.460 218.685 116.809 214.360 L 115.157 210.035 106.626 210.035 L 98.095 210.035 96.624 214.187 L 95.154 218.339 89.360 218.541 C 84.029 218.728,83.605 218.645,84.050 217.503 C 84.317 216.821,87.909 207.388,92.034 196.540 C 96.158 185.692,99.869 175.948,100.279 174.886 C 101.024 172.957,101.028 172.956,106.987 173.156 L 112.950 173.356 120.085 192.193 M164.547 174.066 C 177.579 177.936,179.081 198.092,166.647 202.236 C 166.228 202.376,168.270 206.056,171.184 210.415 L 176.482 218.339 170.825 218.542 C 163.462 218.806,164.522 219.639,157.049 207.717 C 153.458 201.987,150.363 197.283,150.173 197.264 C 149.983 197.245,149.920 202.057,150.034 207.957 L 150.241 218.685 144.324 218.685 L 138.408 218.685 138.408 195.848 L 138.408 173.010 149.701 173.010 C 157.806 173.010,161.998 173.308,164.547 174.066 M241.522 182.007 L 241.522 191.003 250.865 191.003 L 260.208 191.003 260.208 182.007 L 260.208 173.010 265.744 173.010 L 271.280 173.010 271.280 195.848 L 271.280 218.685 265.765 218.685 L 260.249 218.685 260.055 209.862 L 259.862 201.038 250.692 200.845 L 241.522 200.652 241.522 209.668 L 241.522 218.685 235.986 218.685 L 230.450 218.685 230.450 195.848 L 230.450 173.010 235.986 173.010 L 241.522 173.010 241.522 182.007 M316.120 178.028 L 315.917 183.045 305.630 183.165 L 295.343 183.285 295.249 187.145 L 295.156 191.004 305.709 191.004 L 316.263 191.003 316.263 195.830 L 316.263 200.656 305.789 200.847 L 295.316 201.038 295.316 204.844 L 295.316 208.651 305.789 208.842 L 316.263 209.033 316.263 213.859 L 316.263 218.685 300.000 218.685 L 283.737 218.685 283.737 195.848 L 283.737 173.010 300.030 173.010 L 316.324 173.010 316.120 178.028 M342.038 179.568 C 347.280 187.509,346.333 187.508,351.557 179.585 L 355.892 173.010 362.103 173.010 C 369.586 173.010,369.736 171.879,360.438 185.503 L 353.396 195.820 360.781 206.903 C 364.843 212.999,368.166 218.143,368.166 218.336 C 368.166 218.528,365.368 218.685,361.948 218.685 L 355.730 218.685 351.279 212.029 L 346.828 205.373 342.445 212.013 L 338.062 218.652 331.661 218.669 C 328.140 218.678,325.260 218.512,325.260 218.301 C 325.260 218.089,328.529 213.058,332.526 207.120 C 336.522 201.183,339.792 196.131,339.792 195.894 C 339.792 195.657,336.522 190.669,332.526 184.808 C 323.793 172.002,323.882 173.010,331.485 173.010 L 337.710 173.010 342.038 179.568 M150.173 189.273 L 150.173 195.848 154.964 195.848 C 161.266 195.848,164.026 193.872,163.992 189.385 C 163.954 184.421,161.565 182.699,154.717 182.699 L 150.173 182.699 150.173 189.273 M106.314 187.543 C 104.727 191.846,101.730 200.305,101.730 200.478 C 101.730 200.596,103.910 200.692,106.574 200.692 C 109.239 200.692,111.419 200.419,111.419 200.085 C 111.419 198.377,106.644 186.647,106.314 187.543 M376.589 212.218 C 378.250 213.721,378.198 216.266,376.471 217.993 C 374.635 219.828,373.309 219.738,371.206 217.636 C 367.433 213.862,372.628 208.634,376.589 212.218 M372.145 212.512 C 369.624 213.981,371.101 217.993,374.163 217.993 C 376.762 217.993,377.969 214.747,376.075 212.852 C 374.824 211.601,373.854 211.517,372.145 212.512 M375.530 214.837 C 375.391 217.119,372.318 217.131,372.318 214.850 C 372.318 213.241,373.402 212.424,374.837 212.950 C 375.271 213.109,375.583 213.958,375.530 214.837 M299.561 233.212 C 312.132 242.657,330.182 245.040,343.772 239.048 C 347.988 237.189,347.933 237.355,345.646 233.452 L 343.886 230.450 356.026 230.450 C 362.703 230.450,368.166 230.662,368.166 230.922 C 368.166 231.583,357.051 251.156,356.473 251.513 C 356.213 251.673,355.269 250.425,354.375 248.740 C 352.472 245.153,352.765 245.219,348.010 247.311 C 328.437 255.923,305.003 251.470,289.100 236.117 C 283.244 230.463,283.246 230.450,290.157 230.450 C 295.762 230.450,295.964 230.509,299.561 233.212 " stroke="none" fill="#00b8df" fill-rule="evenodd"></path></g></svg>
