<?xml version="1.0" encoding="UTF-8" ?>
<!DOCTYPE svg PUBLIC "-//W3C//DTD SVG 1.1//EN" "http://www.w3.org/Graphics/SVG/1.1/DTD/svg11.dtd">
<svg width="500pt" height="500pt" viewBox="0 0 500 500" version="1.1" xmlns="http://www.w3.org/2000/svg">
<g id="#990000ff">
<path fill="#990000" class="modal-icon-color" opacity="1.00" d=" M 234.24 2.29 C 276.63 0.21 319.54 9.32 357.31 28.70 C 409.34 55.12 451.26 100.75 473.08 154.88 C 491.18 199.26 495.65 249.00 486.10 295.95 C 479.18 330.20 464.74 362.89 444.14 391.11 C 423.84 419.01 397.60 442.56 367.65 459.70 C 333.74 479.17 295.09 490.29 256.01 491.79 C 210.73 493.72 165.00 482.77 125.58 460.40 C 95.13 443.20 68.43 419.39 47.86 391.11 C 27.48 363.19 13.12 330.89 6.13 297.04 C -3.29 251.79 0.31 203.87 16.68 160.63 C 34.03 114.33 65.88 73.66 106.54 45.56 C 143.93 19.52 188.73 4.34 234.24 2.29 M 303.51 129.64 C 297.60 133.53 296.37 141.45 296.03 148.01 C 295.97 213.35 296.02 278.69 296.00 344.03 C 295.98 349.87 296.83 355.97 300.01 361.01 C 301.47 363.34 303.97 365.30 306.88 365.00 C 319.95 365.00 333.01 365.00 346.08 365.00 C 349.01 365.31 351.54 363.34 353.01 360.97 C 355.98 356.22 356.96 350.52 357.00 345.00 C 357.00 279.66 357.00 214.32 357.00 148.98 C 356.95 143.47 355.97 137.77 353.01 133.03 C 351.55 130.69 349.06 128.70 346.15 129.00 C 333.42 128.98 320.68 129.02 307.95 128.98 C 306.45 129.04 304.86 128.89 303.51 129.64 M 224.23 195.25 C 218.18 197.15 215.87 204.20 216.00 209.97 C 216.02 257.00 215.96 304.03 216.03 351.06 C 216.03 356.95 219.21 364.50 225.89 364.97 C 239.63 365.02 253.38 365.03 267.12 364.97 C 273.78 364.53 276.97 356.95 276.98 351.09 C 277.04 304.73 276.96 258.37 277.01 212.02 C 277.07 208.44 276.92 204.74 275.34 201.46 C 273.78 197.84 270.28 194.61 266.09 195.00 C 252.14 195.17 238.15 194.67 224.23 195.25 M 144.24 247.18 C 139.68 247.93 135.95 252.19 136.03 256.86 C 135.99 289.60 135.97 322.35 136.04 355.10 C 135.90 360.36 140.65 365.07 145.89 364.98 C 159.65 365.02 173.41 365.02 187.17 364.97 C 192.37 365.04 197.07 360.37 196.97 355.15 C 197.02 322.39 197.02 289.62 196.97 256.86 C 197.11 251.20 191.66 246.50 186.10 247.00 C 172.15 247.11 158.18 246.76 144.24 247.18 Z" />
</g>
<g id="#ffffffff">
<path fill="#ffffff" opacity="1.00" d=" M 303.51 129.64 C 304.86 128.89 306.45 129.04 307.95 128.98 C 320.68 129.02 333.42 128.98 346.15 129.00 C 349.06 128.70 351.55 130.69 353.01 133.03 C 355.97 137.77 356.95 143.47 357.00 148.98 C 357.00 214.32 357.00 279.66 357.00 345.00 C 356.96 350.52 355.98 356.22 353.01 360.97 C 351.54 363.34 349.01 365.31 346.08 365.00 C 333.01 365.00 319.95 365.00 306.88 365.00 C 303.97 365.30 301.47 363.34 300.01 361.01 C 296.83 355.97 295.98 349.87 296.00 344.03 C 296.02 278.69 295.97 213.35 296.03 148.01 C 296.37 141.45 297.60 133.53 303.51 129.64 Z" />
<path fill="#ffffff" opacity="1.00" d=" M 224.23 195.25 C 238.15 194.67 252.14 195.17 266.09 195.00 C 270.28 194.61 273.78 197.84 275.34 201.46 C 276.92 204.74 277.07 208.44 277.01 212.02 C 276.96 258.37 277.04 304.73 276.98 351.09 C 276.97 356.95 273.78 364.53 267.12 364.97 C 253.38 365.03 239.63 365.02 225.89 364.97 C 219.21 364.50 216.03 356.95 216.03 351.06 C 215.96 304.03 216.02 257.00 216.00 209.97 C 215.87 204.20 218.18 197.15 224.23 195.25 Z" />
<path fill="#ffffff" opacity="1.00" d=" M 144.24 247.18 C 158.18 246.76 172.15 247.11 186.10 247.00 C 191.66 246.50 197.11 251.20 196.97 256.86 C 197.02 289.62 197.02 322.39 196.97 355.15 C 197.07 360.37 192.37 365.04 187.17 364.97 C 173.41 365.02 159.65 365.02 145.89 364.98 C 140.65 365.07 135.90 360.36 136.04 355.10 C 135.97 322.35 135.99 289.60 136.03 256.86 C 135.95 252.19 139.68 247.93 144.24 247.18 Z" />
</g>
</svg>
