<?xml version="1.0" encoding="UTF-8" ?>
<!DOCTYPE svg PUBLIC "-//W3C//DTD SVG 1.1//EN" "http://www.w3.org/Graphics/SVG/1.1/DTD/svg11.dtd">
<svg width="447pt" height="447pt" viewBox="0 0 447 447" version="1.1" xmlns="http://www.w3.org/2000/svg">
<g id="#ff9000ff">
<path fill="#ff9000" class="modal-icon-color" opacity="1.00" d=" M 221.42 0.00 L 228.99 0.00 C 265.12 1.02 301.05 10.62 332.57 28.39 C 367.55 47.95 397.10 77.10 417.13 111.82 C 436.34 144.95 446.65 183.11 447.00 221.38 L 447.00 229.02 C 445.84 272.42 432.00 315.44 407.06 351.03 C 384.07 384.11 352.01 410.83 315.26 427.34 C 288.26 439.59 258.78 446.08 229.18 447.00 L 217.95 447.00 C 190.32 446.19 162.81 440.47 137.30 429.76 C 105.29 416.39 76.50 395.40 53.92 369.06 C 30.06 341.43 13.26 307.82 5.33 272.20 C 2.18 258.31 0.72 244.11 0.00 229.92 L 0.00 221.43 C 0.29 197.51 4.24 173.60 12.09 150.98 C 28.06 103.74 60.66 62.47 102.58 35.52 C 137.76 12.73 179.51 0.34 221.42 0.00 M 114.21 104.31 C 108.22 105.85 103.69 111.73 104.04 117.96 C 104.09 189.02 104.03 260.09 104.08 331.15 C 103.98 335.99 107.44 340.13 111.37 342.55 C 114.56 344.53 118.44 343.84 121.99 343.95 C 192.01 343.92 262.03 343.96 332.05 343.93 C 338.33 343.55 344.28 337.49 343.96 331.07 C 343.93 261.05 343.93 191.02 343.96 121.00 C 343.85 117.78 344.47 114.27 342.75 111.34 C 340.43 107.16 335.96 103.84 331.02 104.06 C 259.66 104.06 188.29 104.06 116.93 104.05 C 116.25 104.12 114.89 104.24 114.21 104.31 Z" />
<path fill="#ff9000" class="modal-icon-color" opacity="1.00" d=" M 133.43 127.57 C 140.03 124.25 148.75 129.61 148.93 136.93 C 149.62 143.09 144.19 149.06 137.98 148.85 C 132.43 149.15 127.40 144.54 126.76 139.11 C 126.11 134.35 129.03 129.43 133.43 127.57 Z" />
<path fill="#ff9000" class="modal-icon-color" opacity="1.00" d=" M 171.34 127.45 C 178.66 124.07 187.59 131.16 186.45 138.98 C 185.84 145.31 179.36 150.06 173.13 148.65 C 167.26 147.61 163.08 141.24 164.47 135.42 C 165.35 131.89 167.88 128.71 171.34 127.45 Z" />
<path fill="#ff9000" class="modal-icon-color" opacity="1.00" d=" M 208.40 127.63 C 215.01 124.22 223.73 129.66 223.92 136.99 C 224.51 143.09 219.22 149.01 213.04 148.83 C 207.52 149.12 202.46 144.57 201.79 139.15 C 201.12 134.42 204.01 129.49 208.40 127.63 Z" />
<path fill="#ff9000" class="modal-icon-color" opacity="1.00" d=" M 126.90 171.89 C 191.64 171.89 256.37 171.91 321.11 171.89 C 321.10 221.62 321.11 271.36 321.11 321.10 C 256.37 321.11 191.64 321.11 126.90 321.10 C 126.91 271.37 126.90 221.63 126.90 171.89 M 149.13 193.77 C 148.69 201.41 148.85 209.09 149.12 216.74 C 174.18 216.64 199.24 216.72 224.30 216.70 C 224.30 209.05 224.33 201.41 224.29 193.76 C 199.24 193.77 174.18 193.74 149.13 193.77 M 238.75 193.74 C 239.25 213.87 238.61 234.05 239.05 254.19 C 259.11 254.22 279.18 254.22 299.25 254.19 C 299.28 234.06 299.30 213.94 299.25 193.81 C 279.08 193.75 258.91 193.91 238.75 193.74 M 148.99 231.37 C 148.85 239.01 148.71 246.66 149.13 254.30 C 174.19 254.19 199.24 254.29 224.30 254.24 C 224.31 246.60 224.33 238.95 224.30 231.31 C 199.20 231.36 174.09 231.24 148.99 231.37 M 149.11 269.09 C 149.14 279.11 149.07 289.14 149.14 299.17 C 199.17 299.16 249.19 299.20 299.21 299.15 C 299.26 289.11 299.24 279.06 299.23 269.02 C 269.83 268.75 240.43 269.01 211.03 268.89 C 190.39 269.02 169.74 268.67 149.11 269.09 Z" />
</g>
<g id="#ffffffff">
<path fill="#ffffff" opacity="1.00" d=" M 114.21 104.31 C 114.89 104.24 116.25 104.12 116.93 104.05 C 188.29 104.06 259.66 104.06 331.02 104.06 C 335.96 103.84 340.43 107.16 342.75 111.34 C 344.47 114.27 343.85 117.78 343.96 121.00 C 343.93 191.02 343.93 261.05 343.96 331.07 C 344.28 337.49 338.33 343.55 332.05 343.93 C 262.03 343.96 192.01 343.92 121.99 343.95 C 118.44 343.84 114.56 344.53 111.37 342.55 C 107.44 340.13 103.98 335.99 104.08 331.15 C 104.03 260.09 104.09 189.02 104.04 117.96 C 103.69 111.73 108.22 105.85 114.21 104.31 M 133.43 127.57 C 129.03 129.43 126.11 134.35 126.76 139.11 C 127.40 144.54 132.43 149.15 137.98 148.85 C 144.19 149.06 149.62 143.09 148.93 136.93 C 148.75 129.61 140.03 124.25 133.43 127.57 M 171.34 127.45 C 167.88 128.71 165.35 131.89 164.47 135.42 C 163.08 141.24 167.26 147.61 173.13 148.65 C 179.36 150.06 185.84 145.31 186.45 138.98 C 187.59 131.16 178.66 124.07 171.34 127.45 M 208.40 127.63 C 204.01 129.49 201.12 134.42 201.79 139.15 C 202.46 144.57 207.52 149.12 213.04 148.83 C 219.22 149.01 224.51 143.09 223.92 136.99 C 223.73 129.66 215.01 124.22 208.40 127.63 M 126.90 171.89 C 126.90 221.63 126.91 271.37 126.90 321.10 C 191.64 321.11 256.37 321.11 321.11 321.10 C 321.11 271.36 321.10 221.62 321.11 171.89 C 256.37 171.91 191.64 171.89 126.90 171.89 Z" />
<path fill="#ffffff" opacity="1.00" d=" M 149.13 193.77 C 174.18 193.74 199.24 193.77 224.29 193.76 C 224.33 201.41 224.30 209.05 224.30 216.70 C 199.24 216.72 174.18 216.64 149.12 216.74 C 148.85 209.09 148.69 201.41 149.13 193.77 Z" />
<path fill="#ffffff" opacity="1.00" d=" M 238.75 193.74 C 258.91 193.91 279.08 193.75 299.25 193.81 C 299.30 213.94 299.28 234.06 299.25 254.19 C 279.18 254.22 259.11 254.22 239.05 254.19 C 238.61 234.05 239.25 213.87 238.75 193.74 Z" />
<path fill="#ffffff" opacity="1.00" d=" M 148.99 231.37 C 174.09 231.24 199.20 231.36 224.30 231.31 C 224.33 238.95 224.31 246.60 224.30 254.24 C 199.24 254.29 174.19 254.19 149.13 254.30 C 148.71 246.66 148.85 239.01 148.99 231.37 Z" />
<path fill="#ffffff" opacity="1.00" d=" M 149.11 269.09 C 169.74 268.67 190.39 269.02 211.03 268.89 C 240.43 269.01 269.83 268.75 299.23 269.02 C 299.24 279.06 299.26 289.11 299.21 299.15 C 249.19 299.20 199.17 299.16 149.14 299.17 C 149.07 289.14 149.14 279.11 149.11 269.09 Z" />
</g>
</svg>
