<?xml version="1.0" encoding="UTF-8" ?>
<!DOCTYPE svg PUBLIC "-//W3C//DTD SVG 1.1//EN" "http://www.w3.org/Graphics/SVG/1.1/DTD/svg11.dtd">
<svg width="71pt" height="71pt" viewBox="0 0 71 71" version="1.1" xmlns="http://www.w3.org/2000/svg">
<g id="#65cdefff">
<path fill="#65cdef" opacity="1.00" d=" M 32.82 0.00 L 37.44 0.00 C 54.46 0.64 69.52 15.11 70.74 32.11 C 72.62 48.46 61.45 64.97 45.64 69.41 C 30.86 74.10 13.58 67.65 5.48 54.45 C 2.23 49.39 0.40 43.48 0.00 37.49 L 0.00 33.47 C 0.61 16.14 15.54 1.02 32.82 0.00 M 38.58 23.68 C 35.57 25.21 34.95 28.73 34.73 31.77 C 28.97 31.09 23.75 28.21 19.89 23.92 C 18.59 27.41 19.20 31.22 21.92 33.88 C 21.13 33.67 19.56 33.25 18.77 33.04 C 19.36 35.57 20.55 37.91 22.73 39.42 C 22.50 40.19 22.24 40.94 21.97 41.69 C 23.63 43.67 25.86 44.94 28.28 45.76 C 24.96 47.54 21.31 48.52 17.54 48.59 C 23.46 51.69 30.65 52.80 36.94 50.11 C 44.93 47.00 49.76 38.48 49.77 30.10 C 51.00 28.78 52.23 27.48 53.46 26.18 C 52.51 26.46 50.60 27.03 49.64 27.32 C 50.60 25.98 51.58 24.66 52.55 23.32 C 51.03 23.88 49.51 24.41 47.99 24.93 C 45.29 22.99 41.63 21.67 38.58 23.68 Z" />
</g>
<g id="#ffffffff">
<path fill="#ffffff" opacity="1.00" d=" M 38.58 23.68 C 41.63 21.67 45.29 22.99 47.99 24.93 C 49.51 24.41 51.03 23.88 52.55 23.32 C 51.58 24.66 50.60 25.98 49.64 27.32 C 50.60 27.03 52.51 26.46 53.46 26.18 C 52.23 27.48 51.00 28.78 49.77 30.10 C 49.76 38.48 44.93 47.00 36.94 50.11 C 30.65 52.80 23.46 51.69 17.54 48.59 C 21.31 48.52 24.96 47.54 28.28 45.76 C 25.86 44.94 23.63 43.67 21.97 41.69 C 22.24 40.94 22.50 40.19 22.73 39.42 C 20.55 37.91 19.36 35.57 18.77 33.04 C 19.56 33.25 21.13 33.67 21.92 33.88 C 19.20 31.22 18.59 27.41 19.89 23.92 C 23.75 28.21 28.97 31.09 34.73 31.77 C 34.95 28.73 35.57 25.21 38.58 23.68 Z" />
</g>
</svg>
