<svg id="svg" version="1.1" width="400" height="400" xmlns="http://www.w3.org/2000/svg" xmlns:xlink="http://www.w3.org/1999/xlink" style="display: block;"><g id="svgg"><path id="path0" d="M303.117 132.986 C 301.183 134.455,296.540 137.733,292.800 140.271 C 289.060 142.809,283.171 146.847,279.714 149.243 C 276.257 151.639,273.193 153.600,272.906 153.600 C 272.619 153.600,271.391 154.520,270.178 155.645 L 267.973 157.690 268.000 198.645 C 268.015 221.170,268.022 240.053,268.014 240.606 C 268.003 241.405,257.770 241.570,218.200 241.406 L 168.400 241.200 168.254 225.200 C 168.095 207.783,167.662 206.414,163.535 210.260 C 162.635 211.098,159.582 213.318,156.750 215.195 C 153.917 217.071,150.700 219.274,149.600 220.091 C 148.500 220.908,144.720 223.548,141.200 225.960 C 137.680 228.371,132.820 231.797,130.400 233.573 C 127.980 235.349,125.225 237.139,124.278 237.552 C 123.330 237.964,122.318 238.686,122.027 239.156 C 121.736 239.627,118.517 241.975,114.873 244.375 C 111.229 246.775,107.787 249.292,107.226 249.969 C 106.664 250.646,105.867 251.200,105.454 251.200 C 105.042 251.200,103.120 252.370,101.185 253.800 C 99.249 255.230,96.401 257.300,94.855 258.400 C 91.060 261.100,91.255 261.926,96.508 265.410 C 98.988 267.054,102.000 269.120,103.203 270.000 C 104.405 270.880,108.406 273.660,112.095 276.178 C 115.783 278.696,122.220 283.158,126.400 286.093 C 130.580 289.029,136.178 292.909,138.840 294.715 C 141.502 296.522,144.742 298.827,146.040 299.838 C 153.008 305.264,165.992 313.621,166.908 313.269 C 167.723 312.957,168.015 309.327,168.183 297.432 L 168.400 282.000 238.000 281.600 L 307.600 281.200 307.804 206.444 C 307.916 165.328,307.699 131.379,307.321 131.001 C 306.939 130.619,305.076 131.498,303.117 132.986 " stroke="none" fill="#ffffff" fill-rule="evenodd"></path><path id="path1" d="M233.417 89.800 L 233.200 105.200 163.200 105.600 L 93.200 106.000 92.996 179.400 C 92.817 243.628,92.939 252.800,93.971 252.800 C 94.619 252.800,100.471 249.096,106.975 244.569 C 113.479 240.042,121.140 234.782,124.000 232.880 C 126.860 230.977,129.650 228.852,130.200 228.158 C 130.971 227.184,131.200 217.497,131.200 185.945 C 131.200 152.371,131.396 144.833,132.289 144.092 C 133.079 143.436,147.089 143.244,183.289 143.394 L 233.200 143.600 233.417 159.000 C 233.605 172.299,233.804 174.400,234.878 174.400 C 235.995 174.400,255.595 161.012,288.627 137.686 C 295.102 133.114,301.773 128.505,303.451 127.444 C 305.128 126.384,306.388 125.030,306.251 124.435 C 305.937 123.083,236.432 74.400,234.816 74.400 C 233.823 74.400,233.600 76.851,233.417 89.800 " stroke="none" fill="#ffa308" fill-rule="evenodd"></path><path id="path2" d="M178.400 16.000 C 178.400 16.440,176.441 16.800,174.047 16.800 C 171.653 16.800,169.498 17.117,169.259 17.505 C 169.019 17.893,166.118 18.463,162.812 18.773 C 159.505 19.083,156.800 19.666,156.800 20.068 C 156.800 20.471,155.540 20.800,154.000 20.800 C 152.460 20.800,151.200 21.114,151.200 21.497 C 151.200 21.880,149.415 22.431,147.233 22.720 C 145.051 23.010,143.050 23.596,142.786 24.023 C 142.522 24.450,141.427 24.800,140.353 24.800 C 139.279 24.800,138.400 25.120,138.400 25.511 C 138.400 25.902,137.096 26.467,135.502 26.766 C 132.756 27.281,129.677 28.622,128.800 29.685 C 128.580 29.951,127.050 30.417,125.400 30.721 C 123.750 31.024,122.400 31.616,122.400 32.036 C 122.400 32.456,121.680 32.800,120.800 32.800 C 119.920 32.800,119.200 33.131,119.200 33.536 C 119.200 33.941,118.120 34.510,116.800 34.800 C 115.480 35.090,114.400 35.659,114.400 36.064 C 114.400 36.469,113.904 36.800,113.298 36.800 C 112.692 36.800,111.748 37.340,111.200 38.000 C 110.652 38.660,109.528 39.200,108.702 39.200 C 107.876 39.200,107.200 39.560,107.200 40.000 C 107.200 40.440,106.660 40.800,106.000 40.800 C 105.340 40.800,104.800 41.153,104.800 41.585 C 104.800 42.016,103.900 42.595,102.800 42.871 C 101.700 43.148,100.800 43.638,100.800 43.961 C 100.800 44.284,99.540 45.227,98.000 46.056 C 96.460 46.885,95.200 47.842,95.200 48.182 C 95.200 48.522,94.824 48.800,94.365 48.800 C 93.906 48.800,92.560 49.700,91.373 50.800 C 90.187 51.900,88.955 52.800,88.636 52.800 C 88.316 52.800,86.982 53.790,85.670 55.000 C 84.358 56.210,81.790 58.460,79.963 60.000 C 78.137 61.540,76.228 63.238,75.721 63.772 C 75.215 64.307,74.367 65.207,73.838 65.772 C 73.309 66.338,72.409 67.233,71.838 67.762 C 71.267 68.291,70.367 69.191,69.838 69.762 C 69.309 70.333,68.409 71.233,67.838 71.762 C 67.267 72.291,66.367 73.191,65.838 73.762 C 65.309 74.333,64.409 75.206,63.838 75.702 C 63.267 76.198,62.080 77.628,61.200 78.881 C 60.320 80.133,58.610 82.145,57.400 83.352 C 56.190 84.559,55.200 85.902,55.200 86.337 C 55.200 86.772,54.343 87.984,53.296 89.031 C 52.249 90.079,51.144 91.715,50.842 92.668 C 50.540 93.620,49.956 94.400,49.546 94.400 C 49.136 94.400,48.800 94.940,48.800 95.600 C 48.800 96.260,48.464 96.800,48.054 96.800 C 47.644 96.800,47.052 97.610,46.739 98.600 C 46.427 99.590,45.527 100.961,44.739 101.647 C 43.951 102.333,43.064 103.863,42.767 105.047 C 42.470 106.231,41.996 107.204,41.713 107.209 C 41.431 107.214,40.485 108.744,39.612 110.609 C 38.739 112.474,37.820 114.180,37.570 114.400 C 36.713 115.156,34.400 120.643,34.400 121.921 C 34.400 122.624,34.040 123.200,33.600 123.200 C 33.160 123.200,32.800 123.920,32.800 124.800 C 32.800 125.680,32.444 126.400,32.009 126.400 C 31.575 126.400,30.989 127.840,30.707 129.600 C 30.426 131.360,29.882 132.800,29.498 132.800 C 29.114 132.800,28.800 133.700,28.800 134.800 C 28.800 135.900,28.474 136.800,28.075 136.800 C 27.676 136.800,27.103 138.600,26.800 140.800 C 26.497 143.000,25.924 144.800,25.525 144.800 C 25.126 144.800,24.800 145.679,24.800 146.753 C 24.800 147.827,24.468 148.911,24.063 149.161 C 23.657 149.412,23.075 151.958,22.768 154.820 C 22.462 157.681,21.894 160.218,21.506 160.458 C 21.118 160.698,20.800 162.241,20.800 163.887 C 20.800 165.533,20.350 167.330,19.800 167.880 C 18.352 169.328,18.352 226.672,19.800 228.120 C 20.350 228.670,20.800 230.467,20.800 232.113 C 20.800 233.759,21.118 235.302,21.506 235.542 C 21.894 235.782,22.462 238.319,22.768 241.180 C 23.075 244.042,23.657 246.588,24.063 246.839 C 24.468 247.089,24.800 248.173,24.800 249.247 C 24.800 250.321,25.114 251.200,25.497 251.200 C 25.880 251.200,26.431 252.985,26.720 255.167 C 27.010 257.349,27.596 259.350,28.023 259.614 C 28.450 259.878,28.800 260.793,28.800 261.647 C 28.800 262.501,29.114 263.200,29.498 263.200 C 29.882 263.200,30.426 264.640,30.707 266.400 C 30.989 268.160,31.575 269.600,32.009 269.600 C 32.444 269.600,32.800 270.320,32.800 271.200 C 32.800 272.080,33.160 272.800,33.600 272.800 C 34.040 272.800,34.400 273.376,34.400 274.079 C 34.400 275.357,36.713 280.844,37.570 281.600 C 37.820 281.820,38.739 283.526,39.612 285.391 C 40.485 287.256,41.431 288.786,41.713 288.791 C 41.996 288.796,42.470 289.769,42.767 290.953 C 43.064 292.137,43.951 293.667,44.739 294.353 C 45.527 295.039,46.400 296.320,46.681 297.200 C 46.961 298.080,48.093 299.846,49.195 301.124 C 50.298 302.403,51.200 303.853,51.200 304.348 C 51.200 304.842,51.920 305.766,52.800 306.400 C 53.680 307.034,54.400 308.011,54.400 308.570 C 54.400 309.129,55.480 310.618,56.800 311.880 C 58.120 313.141,59.200 314.740,59.200 315.433 C 59.200 316.125,59.902 316.915,60.759 317.187 C 61.617 317.459,62.535 318.365,62.800 319.200 C 63.065 320.035,63.965 320.935,64.800 321.200 C 65.635 321.465,66.535 322.365,66.800 323.200 C 67.065 324.035,67.965 324.935,68.800 325.200 C 69.635 325.465,70.535 326.365,70.800 327.200 C 71.065 328.035,71.965 328.935,72.800 329.200 C 73.635 329.465,74.535 330.365,74.800 331.200 C 75.065 332.035,75.965 332.935,76.800 333.200 C 77.635 333.465,78.535 334.365,78.800 335.200 C 79.065 336.035,79.983 336.941,80.841 337.213 C 81.698 337.485,82.400 338.044,82.400 338.454 C 82.400 338.864,82.807 339.200,83.306 339.200 C 83.804 339.200,85.399 340.460,86.852 342.000 C 88.304 343.540,89.860 344.800,90.310 344.800 C 90.759 344.800,91.984 345.657,93.031 346.704 C 94.079 347.751,95.715 348.856,96.668 349.158 C 97.620 349.460,98.400 350.044,98.400 350.454 C 98.400 350.864,98.940 351.200,99.600 351.200 C 100.260 351.200,100.800 351.553,100.800 351.985 C 100.800 352.416,101.700 352.995,102.800 353.271 C 103.900 353.548,104.800 354.094,104.800 354.487 C 104.800 354.879,105.340 355.200,106.000 355.200 C 106.660 355.200,107.200 355.553,107.200 355.985 C 107.200 356.416,108.100 356.995,109.200 357.271 C 110.300 357.548,111.200 358.094,111.200 358.487 C 111.200 358.879,111.920 359.200,112.800 359.200 C 113.680 359.200,114.400 359.531,114.400 359.936 C 114.400 360.341,115.480 360.910,116.800 361.200 C 118.120 361.490,119.200 362.059,119.200 362.464 C 119.200 362.869,119.920 363.200,120.800 363.200 C 121.680 363.200,122.400 363.531,122.400 363.936 C 122.400 364.341,123.476 364.909,124.791 365.198 C 126.106 365.487,127.387 366.055,127.638 366.462 C 127.889 366.868,128.793 367.200,129.647 367.200 C 130.501 367.200,131.200 367.538,131.200 367.951 C 131.200 368.364,132.820 368.945,134.800 369.242 C 136.780 369.539,138.400 370.101,138.400 370.491 C 138.400 370.881,139.300 371.200,140.400 371.200 C 141.500 371.200,142.400 371.526,142.400 371.925 C 142.400 372.324,144.200 372.897,146.399 373.200 C 148.599 373.502,150.600 374.076,150.846 374.475 C 151.093 374.874,152.152 375.200,153.200 375.200 C 154.248 375.200,155.305 375.522,155.548 375.916 C 155.792 376.310,158.873 376.888,162.396 377.200 C 165.918 377.511,168.800 378.089,168.800 378.483 C 168.800 378.877,170.960 379.200,173.600 379.200 C 176.267 379.200,178.400 379.556,178.400 380.000 C 178.400 380.514,186.118 380.800,199.953 380.800 C 213.458 380.800,221.690 380.501,222.000 380.000 C 222.272 379.560,224.453 379.200,226.847 379.200 C 229.241 379.200,231.200 378.886,231.200 378.503 C 231.200 378.120,234.074 377.556,237.586 377.250 C 241.098 376.943,244.180 376.357,244.433 375.946 C 244.687 375.536,245.752 375.200,246.800 375.200 C 247.848 375.200,248.899 374.887,249.135 374.505 C 249.371 374.123,251.357 373.573,253.549 373.282 C 255.741 372.992,257.750 372.404,258.014 371.977 C 258.278 371.550,259.373 371.200,260.447 371.200 C 261.521 371.200,262.400 370.872,262.400 370.470 C 262.400 370.069,263.840 369.497,265.600 369.200 C 267.360 368.903,268.800 368.331,268.800 367.930 C 268.800 367.528,269.285 367.200,269.877 367.200 C 270.469 367.200,271.999 366.705,273.277 366.100 C 274.555 365.494,276.770 364.507,278.200 363.904 C 279.630 363.302,280.800 362.537,280.800 362.205 C 280.800 361.872,281.196 361.600,281.679 361.600 C 282.750 361.600,288.243 359.092,288.800 358.350 C 289.020 358.056,290.010 357.563,291.000 357.254 C 291.990 356.945,292.800 356.356,292.800 355.946 C 292.800 355.536,293.340 355.200,294.000 355.200 C 294.660 355.200,295.200 354.840,295.200 354.400 C 295.200 353.960,295.714 353.600,296.343 353.600 C 296.971 353.600,297.977 353.150,298.577 352.600 C 299.850 351.432,302.293 349.825,303.998 349.033 C 304.657 348.727,306.023 347.650,307.034 346.638 C 308.045 345.627,309.246 344.800,309.703 344.800 C 310.160 344.800,311.757 343.540,313.253 342.000 C 314.748 340.460,316.299 339.200,316.700 339.200 C 317.658 339.200,340.800 316.200,340.800 315.248 C 340.800 314.844,342.060 313.178,343.600 311.545 C 345.140 309.912,346.400 308.292,346.400 307.945 C 346.400 307.598,346.850 306.839,347.400 306.257 C 349.504 304.033,352.800 299.270,352.800 298.453 C 352.800 297.984,353.121 297.600,353.513 297.600 C 353.906 297.600,354.452 296.700,354.729 295.600 C 355.005 294.500,355.584 293.600,356.015 293.600 C 356.447 293.600,356.800 293.060,356.800 292.400 C 356.800 291.740,357.160 291.200,357.600 291.200 C 358.040 291.200,358.400 290.686,358.400 290.057 C 358.400 289.429,358.864 288.439,359.430 287.857 C 360.646 286.610,363.200 281.340,363.200 280.079 C 363.200 279.596,363.475 279.200,363.811 279.200 C 364.646 279.200,367.200 273.166,367.200 271.195 C 367.200 270.318,367.560 269.600,368.000 269.600 C 368.440 269.600,368.800 269.060,368.800 268.400 C 368.800 267.740,369.114 267.200,369.498 267.200 C 369.882 267.200,370.426 265.760,370.707 264.000 C 370.989 262.240,371.575 260.800,372.009 260.800 C 372.444 260.800,372.800 259.972,372.800 258.960 C 372.800 257.948,373.170 256.750,373.621 256.299 C 374.073 255.847,374.663 253.615,374.933 251.339 C 375.202 249.062,375.733 247.200,376.111 247.200 C 376.490 247.200,376.800 245.970,376.800 244.467 C 376.800 242.963,377.150 241.613,377.578 241.467 C 378.006 241.320,378.598 238.590,378.893 235.400 C 379.188 232.210,379.706 229.600,380.044 229.600 C 381.209 229.600,381.754 219.530,381.754 198.000 C 381.754 176.470,381.209 166.400,380.044 166.400 C 379.706 166.400,379.188 163.790,378.893 160.600 C 378.598 157.410,378.006 154.680,377.578 154.533 C 377.150 154.387,376.800 153.037,376.800 151.533 C 376.800 150.030,376.486 148.800,376.103 148.800 C 375.720 148.800,375.163 146.969,374.866 144.730 C 374.569 142.492,374.013 140.062,373.630 139.330 C 371.797 135.826,370.400 131.998,370.400 130.479 C 370.400 129.556,370.040 128.800,369.600 128.800 C 369.160 128.800,368.800 128.260,368.800 127.600 C 368.800 126.940,368.440 126.400,368.000 126.400 C 367.560 126.400,367.200 125.682,367.200 124.805 C 367.200 122.834,364.646 116.800,363.811 116.800 C 363.475 116.800,363.200 116.404,363.200 115.921 C 363.200 114.660,360.646 109.390,359.430 108.143 C 358.864 107.561,358.400 106.571,358.400 105.943 C 358.400 105.314,358.040 104.800,357.600 104.800 C 357.160 104.800,356.800 104.260,356.800 103.600 C 356.800 102.940,356.447 102.400,356.015 102.400 C 355.584 102.400,355.005 101.500,354.729 100.400 C 354.452 99.300,353.906 98.400,353.513 98.400 C 353.121 98.400,352.800 98.016,352.800 97.547 C 352.800 96.730,349.504 91.967,347.400 89.743 C 346.850 89.161,346.400 88.402,346.400 88.055 C 346.400 87.708,345.140 86.088,343.600 84.455 C 342.060 82.822,340.800 81.156,340.800 80.752 C 340.800 79.800,317.658 56.800,316.700 56.800 C 316.299 56.800,314.748 55.540,313.253 54.000 C 311.757 52.460,310.160 51.200,309.703 51.200 C 309.246 51.200,308.025 50.390,306.989 49.400 C 305.014 47.512,302.817 45.965,300.800 45.040 C 300.140 44.737,299.124 44.019,298.543 43.445 C 297.961 42.870,296.971 42.400,296.343 42.400 C 295.714 42.400,295.200 42.040,295.200 41.600 C 295.200 41.160,294.660 40.800,294.000 40.800 C 293.340 40.800,292.800 40.464,292.800 40.054 C 292.800 39.644,291.990 39.055,291.000 38.746 C 290.010 38.437,289.020 37.944,288.800 37.650 C 288.243 36.908,282.750 34.400,281.679 34.400 C 281.196 34.400,280.800 34.128,280.800 33.795 C 280.800 33.463,279.630 32.698,278.200 32.096 C 276.770 31.493,274.555 30.506,273.277 29.900 C 271.999 29.295,270.469 28.800,269.877 28.800 C 269.285 28.800,268.800 28.480,268.800 28.089 C 268.800 27.698,267.496 27.133,265.902 26.834 C 264.307 26.535,262.237 25.899,261.302 25.420 C 257.333 23.391,256.594 23.141,253.161 22.671 C 251.178 22.399,249.365 21.867,249.131 21.488 C 248.897 21.110,247.848 20.800,246.800 20.800 C 245.752 20.800,244.687 20.464,244.433 20.054 C 244.180 19.643,241.098 19.057,237.586 18.750 C 234.074 18.444,231.200 17.880,231.200 17.497 C 231.200 17.114,229.241 16.800,226.847 16.800 C 224.453 16.800,222.272 16.440,222.000 16.000 C 221.690 15.499,213.458 15.200,199.953 15.200 C 186.118 15.200,178.400 15.486,178.400 16.000 M270.999 98.877 C 308.721 125.257,307.965 124.591,303.451 127.444 C 301.773 128.505,295.102 133.114,288.627 137.686 C 255.595 161.012,235.995 174.400,234.878 174.400 C 233.804 174.400,233.605 172.299,233.417 159.000 L 233.200 143.600 183.289 143.394 C 147.089 143.244,133.079 143.436,132.289 144.092 C 131.396 144.833,131.200 152.371,131.200 185.945 C 131.200 217.497,130.971 227.184,130.200 228.158 C 129.650 228.852,126.860 230.977,124.000 232.880 C 121.140 234.782,113.479 240.042,106.975 244.569 C 100.471 249.096,94.619 252.800,93.971 252.800 C 92.939 252.800,92.817 243.628,92.996 179.400 L 93.200 106.000 163.200 105.600 L 233.200 105.200 233.417 89.800 C 233.600 76.851,233.823 74.400,234.816 74.400 C 235.466 74.400,251.748 85.415,270.999 98.877 M307.804 206.444 L 307.600 281.200 238.000 281.600 L 168.400 282.000 168.183 297.432 C 168.015 309.327,167.723 312.957,166.908 313.269 C 165.992 313.621,153.008 305.264,146.040 299.838 C 144.742 298.827,141.502 296.522,138.840 294.715 C 136.178 292.909,130.580 289.029,126.400 286.093 C 122.220 283.158,115.783 278.696,112.095 276.178 C 108.406 273.660,104.405 270.880,103.203 270.000 C 102.000 269.120,98.988 267.054,96.508 265.410 C 91.255 261.926,91.060 261.100,94.855 258.400 C 96.401 257.300,99.249 255.230,101.185 253.800 C 103.120 252.370,105.042 251.200,105.454 251.200 C 105.867 251.200,106.664 250.646,107.226 249.969 C 107.787 249.292,111.229 246.775,114.873 244.375 C 118.517 241.975,121.736 239.627,122.027 239.156 C 122.318 238.686,123.330 237.964,124.278 237.552 C 125.225 237.139,127.980 235.349,130.400 233.573 C 132.820 231.797,137.680 228.371,141.200 225.960 C 144.720 223.548,148.500 220.908,149.600 220.091 C 150.700 219.274,153.917 217.071,156.750 215.195 C 159.582 213.318,162.635 211.098,163.535 210.260 C 167.662 206.414,168.095 207.783,168.254 225.200 L 168.400 241.200 218.200 241.406 C 257.770 241.570,268.003 241.405,268.014 240.606 C 268.022 240.053,268.015 221.170,268.000 198.645 L 267.973 157.690 270.178 155.645 C 271.391 154.520,272.619 153.600,272.906 153.600 C 273.193 153.600,276.257 151.639,279.714 149.243 C 283.171 146.847,289.060 142.809,292.800 140.271 C 296.540 137.733,301.183 134.455,303.117 132.986 C 305.076 131.498,306.939 130.619,307.321 131.001 C 307.699 131.379,307.916 165.328,307.804 206.444 M39.400 370.151 C 40.170 370.353,41.430 370.353,42.200 370.151 C 42.970 369.950,42.340 369.786,40.800 369.786 C 39.260 369.786,38.630 369.950,39.400 370.151 " stroke="none" fill="#096692" fill-rule="evenodd"></path></g></svg>
