<?xml version="1.0" encoding="UTF-8" ?>
<!DOCTYPE svg PUBLIC "-//W3C//DTD SVG 1.1//EN" "http://www.w3.org/Graphics/SVG/1.1/DTD/svg11.dtd">
<svg width="512pt" height="512pt" viewBox="0 0 512 512" version="1.1" xmlns="http://www.w3.org/2000/svg">
<g id="#007affff">
<path fill="#007aff" class="modal-icon-color" opacity="1.00" d=" M 233.57 4.87 C 273.58 1.34 314.34 8.08 351.37 23.56 C 406.80 46.56 453.83 89.69 480.46 143.59 C 502.05 186.72 510.81 236.09 505.77 284.03 C 501.71 323.78 487.93 362.51 465.78 395.79 C 442.71 430.58 410.95 459.51 374.25 479.38 C 339.61 498.22 300.51 508.93 261.06 509.81 C 213.05 511.01 164.88 497.94 123.80 473.12 C 91.82 453.89 64.08 427.57 43.49 396.43 C 41.09 393.12 39.36 389.35 36.66 386.26 C 34.46 384.10 34.31 380.81 32.64 378.31 C -3.21 313.11 -8.10 231.89 19.63 162.84 C 33.78 127.36 56.37 95.33 84.78 69.83 C 125.62 32.87 178.66 9.55 233.57 4.87 M 251.39 71.61 C 244.09 73.73 237.90 79.73 236.19 87.22 C 233.66 97.70 240.21 109.33 250.52 112.52 C 261.32 116.47 274.28 109.65 277.71 98.80 C 280.88 89.06 275.96 77.56 266.86 72.95 C 262.16 70.41 256.46 70.09 251.39 71.61 M 138.23 116.12 C 127.83 118.51 121.02 129.69 122.49 140.05 C 123.45 149.84 132.42 157.61 142.05 158.26 C 148.71 158.81 155.59 156.06 159.94 150.97 C 165.26 144.63 166.78 135.19 163.19 127.65 C 158.90 118.59 147.88 113.72 138.23 116.12 M 361.38 120.61 C 350.25 124.60 344.41 138.71 349.49 149.41 C 353.98 160.64 368.96 165.62 379.41 159.69 C 389.04 154.44 393.32 141.35 388.51 131.45 C 383.98 121.64 371.40 116.86 361.38 120.61 M 96.72 163.85 C 97.18 164.78 97.70 165.68 98.30 166.53 C 135.63 214.22 172.95 261.91 210.24 309.62 C 211.65 310.93 210.45 312.73 210.08 314.21 C 203.40 332.26 210.20 353.45 224.07 366.24 C 234.75 376.45 250.36 381.03 264.88 378.44 C 279.28 376.24 292.47 367.42 299.97 354.94 C 306.79 344.07 308.72 330.74 306.95 318.18 C 303.24 303.38 292.45 290.60 278.48 284.46 C 269.00 280.12 258.28 279.31 248.08 280.91 C 232.54 269.25 217.41 256.98 202.02 245.10 C 168.63 218.97 135.23 192.85 101.83 166.72 C 100.26 165.54 98.83 163.91 96.72 163.85 M 88.43 228.54 C 81.16 230.95 75.21 237.33 73.93 244.96 C 71.91 256.03 79.80 268.05 91.01 270.00 C 101.31 272.05 112.38 265.49 115.51 255.46 C 118.82 246.14 114.29 235.04 105.83 230.15 C 100.67 226.98 94.10 226.60 88.43 228.54 M 410.19 233.07 C 401.02 234.65 393.46 242.64 392.49 251.91 C 391.08 263.31 400.27 275.00 411.89 275.64 C 423.89 276.77 435.98 266.39 435.30 254.05 C 435.31 241.45 422.84 230.18 410.19 233.07 M 323.83 323.79 C 325.73 348.05 312.97 372.50 292.49 385.46 C 280.06 393.49 264.77 397.11 250.07 395.04 C 231.83 392.91 214.62 383.05 203.78 368.18 C 194.44 355.68 190.19 339.76 191.18 324.25 C 173.52 327.24 156.05 331.41 138.98 336.82 C 108.28 346.62 78.57 360.94 53.99 382.03 C 74.40 414.44 102.60 441.94 135.64 461.33 C 172.68 483.30 215.93 494.45 258.96 493.49 C 302.63 492.80 346.06 479.64 382.64 455.75 C 413.44 435.86 439.57 408.79 458.26 377.23 C 419.63 347.07 371.65 331.67 323.83 323.79 Z" />
</g>
<g id="#ffffffff">
<path fill="#ffffff" opacity="1.00" d=" M 251.39 71.61 C 256.46 70.09 262.16 70.41 266.86 72.95 C 275.96 77.56 280.88 89.06 277.71 98.80 C 274.28 109.65 261.32 116.47 250.52 112.52 C 240.21 109.33 233.66 97.70 236.19 87.22 C 237.90 79.73 244.09 73.73 251.39 71.61 Z" />
<path fill="#ffffff" opacity="1.00" d=" M 138.23 116.12 C 147.88 113.72 158.90 118.59 163.19 127.65 C 166.78 135.19 165.26 144.63 159.94 150.97 C 155.59 156.06 148.71 158.81 142.05 158.26 C 132.42 157.61 123.45 149.84 122.49 140.05 C 121.02 129.69 127.83 118.51 138.23 116.12 Z" />
<path fill="#ffffff" opacity="1.00" d=" M 361.38 120.61 C 371.40 116.86 383.98 121.64 388.51 131.45 C 393.32 141.35 389.04 154.44 379.41 159.69 C 368.96 165.62 353.98 160.64 349.49 149.41 C 344.41 138.71 350.25 124.60 361.38 120.61 Z" />
<path fill="#ffffff" opacity="1.00" d=" M 96.72 163.85 C 98.83 163.91 100.26 165.54 101.83 166.72 C 135.23 192.85 168.63 218.97 202.02 245.10 C 217.41 256.98 232.54 269.25 248.08 280.91 C 258.28 279.31 269.00 280.12 278.48 284.46 C 292.45 290.60 303.24 303.38 306.95 318.18 C 308.72 330.74 306.79 344.07 299.97 354.94 C 292.47 367.42 279.28 376.24 264.88 378.44 C 250.36 381.03 234.75 376.45 224.07 366.24 C 210.20 353.45 203.40 332.26 210.08 314.21 C 210.45 312.73 211.65 310.93 210.24 309.62 C 172.95 261.91 135.63 214.22 98.30 166.53 C 97.70 165.68 97.18 164.78 96.72 163.85 Z" />
<path fill="#ffffff" opacity="1.00" d=" M 88.43 228.54 C 94.10 226.60 100.67 226.98 105.83 230.15 C 114.29 235.04 118.82 246.14 115.51 255.46 C 112.38 265.49 101.31 272.05 91.01 270.00 C 79.80 268.05 71.91 256.03 73.93 244.96 C 75.21 237.33 81.16 230.95 88.43 228.54 Z" />
<path fill="#ffffff" opacity="1.00" d=" M 410.19 233.07 C 422.84 230.18 435.31 241.45 435.30 254.05 C 435.98 266.39 423.89 276.77 411.89 275.64 C 400.27 275.00 391.08 263.31 392.49 251.91 C 393.46 242.64 401.02 234.65 410.19 233.07 Z" />
<path fill="#ffffff" opacity="1.00" d=" M 323.83 323.79 C 371.65 331.67 419.63 347.07 458.26 377.23 C 439.57 408.79 413.44 435.86 382.64 455.75 C 346.06 479.64 302.63 492.80 258.96 493.49 C 215.93 494.45 172.68 483.30 135.64 461.33 C 102.60 441.94 74.40 414.44 53.99 382.03 C 78.57 360.94 108.28 346.62 138.98 336.82 C 156.05 331.41 173.52 327.24 191.18 324.25 C 190.19 339.76 194.44 355.68 203.78 368.18 C 214.62 383.05 231.83 392.91 250.07 395.04 C 264.77 397.11 280.06 393.49 292.49 385.46 C 312.97 372.50 325.73 348.05 323.83 323.79 Z" />
</g>
</svg>
