<?xml version="1.0" encoding="UTF-8" ?>
<!DOCTYPE svg PUBLIC "-//W3C//DTD SVG 1.1//EN" "http://www.w3.org/Graphics/SVG/1.1/DTD/svg11.dtd">
<svg width="500pt" height="500pt" viewBox="0 0 500 500" version="1.1" xmlns="http://www.w3.org/2000/svg">
<g id="#c30000ff">
<path fill="#c30000" opacity="1.00" d=" M 225.61 2.85 C 267.00 -0.61 309.27 6.55 347.09 23.78 C 400.28 47.75 444.25 91.41 468.55 144.45 C 488.07 186.50 495.02 234.17 488.77 280.08 C 484.21 314.10 472.32 347.11 454.16 376.24 C 436.50 404.68 412.93 429.42 385.42 448.48 C 354.65 469.84 318.89 484.00 281.82 489.38 C 238.90 495.67 194.26 490.57 154.08 474.11 C 98.45 451.87 51.86 408.21 25.71 354.34 C 5.55 313.23 -2.51 266.38 2.39 220.88 C 7.00 176.57 24.14 133.69 51.25 98.35 C 82.22 57.68 126.20 27.07 175.19 12.41 C 191.60 7.44 208.53 4.26 225.61 2.85 M 220.29 138.37 C 199.81 138.54 179.35 139.14 158.89 139.96 C 148.85 140.78 138.72 140.63 128.78 142.42 C 116.82 144.66 105.59 152.46 100.65 163.78 C 93.23 179.41 93.29 197.04 91.84 213.92 C 91.07 236.30 91.07 258.72 91.84 281.10 C 93.18 295.55 93.08 310.39 97.92 324.26 C 100.54 332.30 104.77 340.25 112.02 345.01 C 121.54 352.05 133.71 352.91 145.06 354.19 C 198.61 356.90 252.28 357.40 305.89 356.00 C 324.37 355.20 342.90 354.96 361.31 353.05 C 373.11 351.63 384.52 345.12 390.74 334.84 C 395.07 327.21 397.36 318.60 398.90 310.02 C 400.94 292.44 402.10 274.73 401.93 257.02 C 401.89 241.68 402.20 226.33 401.26 211.02 C 400.02 195.72 399.73 179.92 393.48 165.62 C 389.44 155.02 380.02 147.02 369.33 143.62 C 363.13 141.59 356.56 141.45 350.12 140.82 C 306.90 138.45 263.58 137.83 220.29 138.37 Z" />
<path fill="#c30000" opacity="1.00" d=" M 214.88 201.00 C 219.74 204.11 225.33 206.02 229.92 209.49 C 230.18 209.45 230.69 209.35 230.95 209.31 C 237.17 213.69 244.84 215.91 250.91 220.50 C 251.25 220.42 251.94 220.25 252.29 220.16 L 252.51 221.50 C 252.88 221.47 253.62 221.42 253.98 221.39 C 260.94 225.99 269.11 228.67 275.92 233.49 C 276.18 233.44 276.68 233.36 276.94 233.32 C 278.93 235.07 281.53 235.84 283.78 237.18 C 288.52 239.53 293.06 242.34 298.02 244.21 C 292.13 246.69 286.75 250.17 281.04 253.01 C 258.96 264.31 237.07 275.99 214.91 287.12 C 214.88 258.41 214.94 229.71 214.88 201.00 Z" />
</g>
<g id="#ffffffff">
<path fill="#ffffff" opacity="1.00" d=" M 220.29 138.37 C 263.58 137.83 306.90 138.45 350.12 140.82 C 356.56 141.45 363.13 141.59 369.33 143.62 C 380.02 147.02 389.44 155.02 393.48 165.62 C 399.73 179.92 400.02 195.72 401.26 211.02 C 402.20 226.33 401.89 241.68 401.93 257.02 C 402.10 274.73 400.94 292.44 398.90 310.02 C 397.36 318.60 395.07 327.21 390.74 334.84 C 384.52 345.12 373.11 351.63 361.31 353.05 C 342.90 354.96 324.37 355.20 305.89 356.00 C 252.28 357.40 198.61 356.90 145.06 354.19 C 133.71 352.91 121.54 352.05 112.02 345.01 C 104.77 340.25 100.54 332.30 97.92 324.26 C 93.08 310.39 93.18 295.55 91.84 281.10 C 91.07 258.72 91.07 236.30 91.84 213.92 C 93.29 197.04 93.23 179.41 100.65 163.78 C 105.59 152.46 116.82 144.66 128.78 142.42 C 138.72 140.63 148.85 140.78 158.89 139.96 C 179.35 139.14 199.81 138.54 220.29 138.37 M 214.88 201.00 C 214.94 229.71 214.88 258.41 214.91 287.12 C 237.07 275.99 258.96 264.31 281.04 253.01 C 286.75 250.17 292.13 246.69 298.02 244.21 C 293.06 242.34 288.52 239.53 283.78 237.18 C 281.53 235.84 278.93 235.07 276.94 233.32 C 276.68 233.36 276.18 233.44 275.92 233.49 C 269.11 228.67 260.94 225.99 253.98 221.39 C 253.62 221.42 252.88 221.47 252.51 221.50 L 252.29 220.16 C 251.94 220.25 251.25 220.42 250.91 220.50 C 244.84 215.91 237.17 213.69 230.95 209.31 C 230.69 209.35 230.18 209.45 229.92 209.49 C 225.33 206.02 219.74 204.11 214.88 201.00 Z" />
</g>
</svg>
